<?xml version="1.0" encoding="UTF-8"?>
<svg xmlns="http://www.w3.org/2000/svg" xmlns:xlink="http://www.w3.org/1999/xlink" version="1.2" >
<font id="Booster Next FY Light">
<font-face  font-family="Booster Next FY" units-per-em="1000" ascent="943" descent="-252" font-style="normal" font-weight="300" font-stretch="normal" cap-height="690" x-height="493" underline-position="-75" underline-thickness="50" />
<missing-glyph  horiz-adv-x="602" d="M305 435 Q321 464 346.5 482 Q372 500 403 500 Q446 500 474 470.5 Q502 441 502 395 Q502 365 488.5 330 Q475 295 449.5 260 Q424 225 386.5 192.5 Q349 160 301 135 Q253 160 215.5 192.5 Q178 225 152.5 260 Q127 295 113.5 330 Q100 365 100 395 Q100 441 128 470.5 Q156 500 199 500 Q230 500 255.5 482 Q281 464 297 435 L305 435 Z " />
<glyph glyph-name=".null" d="" />
<glyph glyph-name="nonmarkingreturn" unicode="&#xd;" d="" />
<glyph glyph-name="space" unicode="&#x20;" horiz-adv-x="218" d="" />
<glyph glyph-name="uni00A0" unicode="&#xa0;" horiz-adv-x="218" d="" />
<glyph glyph-name="A" unicode="A" horiz-adv-x="675" d="M92 19 Q87 8 81.5 4 Q76 0 68 0 Q59 0 51 6 Q43 12 43 23 Q43 28 46.5 37.5 Q50 47 61 74 L304 659 Q310 674 317.5 682 Q325 690 338 690 Q360 690 372 659 L614 74 Q625 47 628.5 38 Q632 29 632 24 Q632 12 623.5 6 Q615 0 605 0 Q592 0 585 9.5 Q578 19 565 50 L506 196 L164 196 L92 19 Z M183 241 L488 241 L337 617 L183 241 Z " />
<glyph glyph-name="B" unicode="B" horiz-adv-x="613" d="M117 0 Q91 0 91 26 L91 665 Q91 690 117 690 L333 690 Q383 690 419 675.5 Q455 661 477.5 638 Q500 615 510.5 585 Q521 555 521 524 Q521 494 512.5 469.5 Q504 445 490 426 Q476 407 458.5 394 Q441 381 423 374 Q451 367 475 352.5 Q499 338 517 317 Q535 296 545 267.5 Q555 239 555 204 Q555 158 540 120.5 Q525 83 496.5 56 Q468 29 428 14.5 Q388 0 339 0 L117 0 Z M144 391 L351 391 Q379 391 401 402.5 Q423 414 438 432 Q453 450 460.5 472.5 Q468 495 468 516 Q468 541 460 564 Q452 587 436 604.5 Q420 622 395.5 632.5 Q371 643 338 643 L144 643 L144 391 Z M144 47 L342 47 Q412 47 456.5 87 Q501 127 501 205 Q501 268 460.5 306.5 Q420 345 339 345 L144 345 L144 47 Z " />
<glyph glyph-name="C" unicode="C" horiz-adv-x="691" d="M247 15 Q190 41 148 87.5 Q106 134 82 200 Q58 266 58 346 Q58 426 82 491.5 Q106 557 148 603.5 Q190 650 247.5 675 Q305 700 373 700 Q421 700 460 688 Q499 676 530 658.5 Q561 641 582.5 620.5 Q604 600 617 583 Q638 554 638 537 Q638 524 630 518.5 Q622 513 614 513 Q598 513 591 525 Q576 547 554.5 569.5 Q533 592 506 609.5 Q479 627 446 638 Q413 649 373 649 Q313 649 264.5 625 Q216 601 182 560 Q148 519 130 464 Q112 409 112 347 Q112 285 130.5 229.5 Q149 174 183 132 Q217 90 265.5 65.5 Q314 41 375 41 Q444 41 498 73 Q552 105 588 160 Q598 175 610 175 Q619 175 627 168 Q635 161 635 150 Q635 146 633.5 140 Q632 134 627 127 Q617 112 597 88.5 Q577 65 546 43 Q515 21 472 5.5 Q429 -10 373 -10 Q305 -10 247 15 Z " />
<glyph glyph-name="D" unicode="D" horiz-adv-x="677" d="M117 0 Q91 0 91 26 L91 664 Q91 690 118 690 L320 690 Q389 690 444.5 664.5 Q500 639 539 593.5 Q578 548 598.5 485.5 Q619 423 619 350 Q619 279 598 215.5 Q577 152 538.5 104 Q500 56 444.5 28 Q389 0 320 0 L117 0 Z M144 47 L316 47 Q373 47 419 70.5 Q465 94 497.5 135.5 Q530 177 547.5 232 Q565 287 565 350 Q565 413 547.5 466.5 Q530 520 497 559 Q464 598 417 620.5 Q370 643 311 643 L144 643 L144 47 Z " />
<glyph glyph-name="E" unicode="E" horiz-adv-x="572" d="M118 0 Q91 0 91 26 L91 664 Q91 675 98.5 682.5 Q106 690 119 690 L504 690 Q515 690 522 683.5 Q529 677 529 667 Q529 656 522 649.5 Q515 643 504 643 L144 643 L144 378 L397 378 Q408 378 415.5 372 Q423 366 423 355 Q423 344 415.5 338 Q408 332 397 332 L144 332 L144 47 L504 47 Q515 47 522 40.5 Q529 34 529 23 Q529 13 522 6.5 Q515 0 504 0 L118 0 Z " />
<glyph glyph-name="F" unicode="F" horiz-adv-x="556" d="M144 26 Q144 0 118 0 Q91 0 91 26 L91 664 Q91 676 99 683 Q107 690 119 690 L493 690 Q504 690 511 683.5 Q518 677 518 667 Q518 656 511 649.5 Q504 643 493 643 L144 643 L144 367 L388 367 Q399 367 406 360.5 Q413 354 413 343 Q413 333 406 326.5 Q399 320 388 320 L144 320 L144 26 Z " />
<glyph glyph-name="G" unicode="G" horiz-adv-x="717" d="M428 285 Q416 285 409 291.5 Q402 298 402 309 Q402 319 409 325.5 Q416 332 428 332 L625 332 Q644 332 651.5 319.5 Q659 307 659 283 Q659 221 639.5 167.5 Q620 114 583 74.5 Q546 35 493 12.5 Q440 -10 373 -10 Q306 -10 248.5 15.5 Q191 41 148.5 87.5 Q106 134 82 199.5 Q58 265 58 345 Q58 425 82 490.5 Q106 556 148.5 602.5 Q191 649 248.5 674.5 Q306 700 374 700 Q539 700 624 572 Q633 561 636.5 552.5 Q640 544 640 538 Q640 527 633 520 Q626 513 617 513 Q609 513 602.5 517 Q596 521 585 536 Q543 596 492.5 622.5 Q442 649 374 649 Q313 649 264.5 624.5 Q216 600 182 558.5 Q148 517 130 461.5 Q112 406 112 344 Q112 282 130.5 227 Q149 172 183.5 130.5 Q218 89 266 65 Q314 41 374 41 Q427 41 471 58.5 Q515 76 545.5 108.5 Q576 141 592 186 Q608 231 606 285 L428 285 Z " />
<glyph glyph-name="H" unicode="H" horiz-adv-x="707" d="M144 26 Q144 0 118 0 Q106 0 98.5 7 Q91 14 91 26 L91 664 Q91 675 98.5 682.5 Q106 690 118 690 Q130 690 137 682.5 Q144 675 144 664 L144 379 L563 379 L563 664 Q563 675 570 682.5 Q577 690 589 690 Q601 690 608 682.5 Q615 675 615 664 L615 26 Q615 0 589 0 Q563 0 563 26 L563 332 L144 332 L144 26 Z " />
<glyph glyph-name="I" unicode="I" horiz-adv-x="236" d="M144 26 Q144 0 118 0 Q106 0 98.5 7 Q91 14 91 26 L91 664 Q91 675 98.5 682.5 Q106 690 118 690 Q130 690 137 682.5 Q144 675 144 664 L144 26 Z " />
<glyph glyph-name="J" unicode="J" horiz-adv-x="549" d="M463 208 Q463 152 446 111 Q429 70 399.5 43 Q370 16 331.5 3 Q293 -10 250 -10 Q204 -10 171 2.5 Q138 15 114.5 33.5 Q91 52 76.5 74.5 Q62 97 52 117 Q47 125 45 132.5 Q43 140 43 145 Q43 157 51 164 Q59 171 70 171 Q84 171 94 151 Q103 131 115 111 Q127 91 145 75.5 Q163 60 188.5 50.5 Q214 41 251 41 Q279 41 307 49 Q335 57 358 76.5 Q381 96 395.5 128 Q410 160 410 208 L410 665 Q410 676 417.5 683 Q425 690 436 690 Q448 690 455.5 683 Q463 676 463 664 L463 208 Z " />
<glyph glyph-name="K" unicode="K" horiz-adv-x="600" d="M144 26 Q144 15 137 7.5 Q130 0 118 0 Q106 0 98.5 7.5 Q91 15 91 26 L91 664 Q91 675 98.5 682.5 Q106 690 118 690 Q130 690 137 682.5 Q144 675 144 664 L144 304 L478 679 Q486 690 500 690 Q510 690 517.5 682.5 Q525 675 525 665 Q525 659 523 654 Q521 649 515 642 L271 369 L546 49 Q553 41 555 36.5 Q557 32 557 26 Q557 14 548.5 7 Q540 0 531 0 Q517 0 507 12 L233 331 L144 233 L144 26 Z " />
<glyph glyph-name="L" unicode="L" horiz-adv-x="540" d="M119 0 Q91 0 91 26 L91 664 Q91 675 98.5 682.5 Q106 690 118 690 Q130 690 137 682.5 Q144 675 144 664 L144 47 L482 47 Q493 47 500 40.5 Q507 34 507 23 Q507 13 500 6.5 Q493 0 482 0 L119 0 Z " />
<glyph glyph-name="M" unicode="M" horiz-adv-x="818" d="M144 25 Q144 0 118 0 Q106 0 98.5 7 Q91 14 91 25 L91 663 Q91 675 98 682.5 Q105 690 118 690 Q130 690 137 684.5 Q144 679 152 665 L410 215 L667 665 Q675 679 682 684.5 Q689 690 700 690 Q727 690 727 663 L727 24 Q727 13 719.5 6 Q712 -1 700 -1 Q689 -1 681.5 6 Q674 13 674 24 L674 583 L428 155 Q419 140 407 140 Q393 140 386 156 L144 580 L144 25 Z " />
<glyph glyph-name="N" unicode="N" horiz-adv-x="686" d="M144 25 Q144 0 118 0 Q106 0 98.5 7 Q91 14 91 25 L91 656 Q91 690 115 690 Q129 690 140 676 L541 107 L541 664 Q541 675 548.5 682 Q556 689 568 689 Q579 689 586.5 682 Q594 675 594 664 L594 25 Q594 0 571 0 Q557 0 545 15 L144 581 L144 25 Z " />
<glyph glyph-name="O" unicode="O" horiz-adv-x="749" d="M246 16 Q188 43 146 90.5 Q104 138 81 203.5 Q58 269 58 347 Q58 424 81 489 Q104 554 146 601 Q188 648 246 674 Q304 700 374 700 Q444 700 502.5 674 Q561 648 603 601 Q645 554 668 489 Q691 424 691 347 Q691 269 668 203.5 Q645 138 603 90.5 Q561 43 502.5 16.5 Q444 -10 374 -10 Q304 -10 246 16 Z M183 132 Q217 90 265.5 65.5 Q314 41 374 41 Q436 41 484.5 65.5 Q533 90 567 132 Q601 174 618.5 229.5 Q636 285 636 347 Q636 409 618 464 Q600 519 566 560 Q532 601 483.5 625 Q435 649 374 649 Q312 649 263.5 625 Q215 601 181 560 Q147 519 129.5 464 Q112 409 112 347 Q112 285 130.5 229.5 Q149 174 183 132 Z " />
<glyph glyph-name="P" unicode="P" horiz-adv-x="592" d="M144 26 Q144 0 118 0 Q106 0 98.5 7 Q91 14 91 26 L91 664 Q91 675 98.5 682.5 Q106 690 118 690 L317 690 Q430 690 487 632 Q544 574 544 469 Q544 369 483.5 311.5 Q423 254 313 254 L144 254 L144 26 Z M144 301 L313 301 Q361 301 395 313.5 Q429 326 450 348.5 Q471 371 481 402 Q491 433 491 469 Q491 551 445.5 597 Q400 643 311 643 L144 643 L144 301 Z " />
<glyph glyph-name="Q" unicode="Q" horiz-adv-x="749" d="M601 -1 Q575 11 549 43 Q512 17 468.5 3.5 Q425 -10 374 -10 Q304 -10 246 16.5 Q188 43 146 90.5 Q104 138 81 203.5 Q58 269 58 347 Q58 424 81 489 Q104 554 146 601 Q188 648 246 674 Q304 700 374 700 Q444 700 502.5 674 Q561 648 603 601 Q645 554 668 489 Q691 424 691 347 Q691 260 663 189.5 Q635 119 584 71 Q604 49 621.5 40.5 Q639 32 661 32 Q678 32 687 36 Q696 40 706 40 Q715 40 719 33.5 Q723 27 723 20 Q723 3 704 -5 Q685 -13 657 -13 Q628 -13 601 -1 Z M374 41 Q456 41 516 84 Q493 109 469.5 122.5 Q446 136 416 136 Q404 136 398 142.5 Q392 149 392 157 Q392 168 398.5 174.5 Q405 181 420 181 Q451 181 484.5 165.5 Q518 150 550 112 Q592 155 614 216 Q636 277 636 347 Q636 409 618 464 Q600 519 566 560 Q532 601 483.5 625 Q435 649 374 649 Q312 649 263.5 625 Q215 601 181 560 Q147 519 129.5 464 Q112 409 112 347 Q112 285 130.5 229.5 Q149 174 183 132 Q217 90 265.5 65.5 Q314 41 374 41 Z " />
<glyph glyph-name="R" unicode="R" horiz-adv-x="600" d="M144 26 Q144 0 118 0 Q106 0 98.5 7 Q91 14 91 26 L91 664 Q91 675 99 682.5 Q107 690 119 690 L308 690 Q421 690 477 635 Q533 580 533 484 Q533 412 491.5 359.5 Q450 307 365 290 L535 52 Q547 36 547 24 Q547 14 539.5 7 Q532 0 521 0 Q504 0 490 20 L308 285 L144 285 L144 26 Z M144 331 L305 331 Q352 331 385 343 Q418 355 439 375.5 Q460 396 470 424 Q480 452 480 484 Q480 559 434.5 601 Q389 643 303 643 L144 643 L144 331 Z " />
<glyph glyph-name="S" unicode="S" horiz-adv-x="574" d="M130 34 Q102 53 84.5 73 Q67 93 58 107 Q54 112 51 118.5 Q48 125 48 131 Q48 142 56.5 148.5 Q65 155 74 155 Q88 155 97 142 Q108 126 124 108.5 Q140 91 163 76 Q186 61 218 51 Q250 41 294 41 Q330 41 362 51.5 Q394 62 417 80.5 Q440 99 453.5 124.5 Q467 150 467 179 Q467 217 453.5 241.5 Q440 266 414 283 Q388 300 350.5 312 Q313 324 265 336 Q238 343 205 355 Q172 367 142.5 388 Q113 409 93.5 440 Q74 471 74 517 Q74 557 90.5 591 Q107 625 136 649 Q165 673 204 686.5 Q243 700 287 700 Q324 700 354 692.5 Q384 685 406.5 674.5 Q429 664 444.5 652.5 Q460 641 469 634 Q483 625 483 611 Q483 600 475 592.5 Q467 585 458 585 Q449 585 443 588 Q437 591 432 594 Q425 599 413.5 608.5 Q402 618 384.5 627 Q367 636 342 642.5 Q317 649 283 649 Q247 649 218.5 638.5 Q190 628 169.5 610 Q149 592 138.5 568.5 Q128 545 128 519 Q128 486 144 463.5 Q160 441 187 424.5 Q214 408 250.5 396 Q287 384 328 373 Q360 364 394 352.5 Q428 341 456.5 320.5 Q485 300 503.5 267.5 Q522 235 522 185 Q522 147 506.5 112 Q491 77 460.5 50 Q430 23 385.5 6.5 Q341 -10 284 -10 Q234 -10 196 3 Q158 16 130 34 Z " />
<glyph glyph-name="T" unicode="T" horiz-adv-x="600" d="M326 26 Q326 0 300 0 Q274 0 274 26 L274 643 L57 643 Q46 643 39.5 649.5 Q33 656 33 667 Q33 677 39.5 683.5 Q46 690 57 690 L542 690 Q553 690 560 683.5 Q567 677 567 667 Q567 656 560 649.5 Q553 643 542 643 L326 643 L326 26 Z " />
<glyph glyph-name="U" unicode="U" horiz-adv-x="690" d="M139 244 Q139 198 154 160.5 Q169 123 196 96.5 Q223 70 261 55.5 Q299 41 345 41 Q391 41 429 56 Q467 71 494 98 Q521 125 536 163 Q551 201 551 248 L551 664 Q551 675 558.5 682.5 Q566 690 578 690 Q589 690 596.5 682.5 Q604 675 604 664 L604 244 Q604 188 585 141 Q566 94 532 60.5 Q498 27 450.5 8.5 Q403 -10 345 -10 Q288 -10 240 8.5 Q192 27 158 60 Q124 93 105 139 Q86 185 86 241 L86 664 Q86 675 93.5 682.5 Q101 690 113 690 Q125 690 132 682.5 Q139 675 139 664 L139 244 Z " />
<glyph glyph-name="V" unicode="V" horiz-adv-x="666" d="M359 22 Q352 0 333 0 Q322 0 316.5 5.5 Q311 11 306 22 L46 651 Q44 653 43.5 657 Q43 661 43 664 Q43 676 51.5 683 Q60 690 70 690 Q79 690 84.5 685 Q90 680 95 671 L334 83 L575 673 Q578 680 583 685 Q588 690 597 690 Q608 690 615.5 684 Q623 678 623 667 Q623 658 620 652 L359 22 Z " />
<glyph glyph-name="W" unicode="W" horiz-adv-x="897" d="M305 19 Q299 0 282 0 Q264 0 258 19 L46 650 Q43 659 43 667 Q43 676 50 683 Q57 690 70 690 Q80 690 86 684 Q92 678 95 669 L283 94 L426 546 Q433 564 449 564 Q466 564 473 546 L616 94 L804 670 Q809 690 827 690 Q837 690 845.5 684 Q854 678 854 667 Q854 659 851 650 L639 19 Q633 0 616 0 Q598 0 592 19 L447 469 L305 19 Z " />
<glyph glyph-name="X" unicode="X" horiz-adv-x="635" d="M108 14 Q103 6 97 3 Q91 0 86 0 Q75 0 68 7 Q61 14 61 24 Q61 32 68 43 L284 353 L75 649 Q71 654 70 658 Q69 662 69 666 Q69 674 75 682 Q81 690 94 690 Q103 690 108.5 684.5 Q114 679 120 671 L321 389 L518 673 Q523 681 528.5 685.5 Q534 690 543 690 Q553 690 560 683 Q567 676 567 668 Q567 661 565 656.5 Q563 652 558 644 L351 346 L567 44 Q574 34 574 24 Q574 14 567 7 Q560 0 549 0 Q535 0 521 19 L314 310 L108 14 Z " />
<glyph glyph-name="Y" unicode="Y" horiz-adv-x="622" d="M338 26 Q338 14 330.5 7 Q323 0 311 0 Q285 0 285 26 L285 267 L47 649 Q43 656 43 665 Q43 674 49.5 682 Q56 690 68 690 Q75 690 81.5 687 Q88 684 92 676 L311 318 L530 674 Q535 682 539.5 686 Q544 690 553 690 Q563 690 571 683.5 Q579 677 579 667 Q579 662 577 657.5 Q575 653 573 648 L338 267 L338 26 Z " />
<glyph glyph-name="Z" unicode="Z" horiz-adv-x="582" d="M77 0 Q66 0 59.5 6 Q53 12 53 22 Q53 27 54.5 32.5 Q56 38 61 43 L460 642 L107 642 Q81 642 81 667 Q81 677 88 683.5 Q95 690 107 690 L504 690 Q529 690 529 669 Q529 657 518 639 L124 48 L496 48 Q508 48 514.5 41 Q521 34 521 23 Q521 13 514.5 6.5 Q508 0 496 0 L77 0 Z " />
<glyph glyph-name="AE" unicode="&#xc6;" horiz-adv-x="901" d="M78 17 Q67 0 52 0 Q41 0 34 6.5 Q27 13 27 24 Q27 33 33 42 L421 672 Q427 681 434.5 685.5 Q442 690 454 690 L842 690 Q853 690 860 683.5 Q867 677 867 667 Q867 656 860 649.5 Q853 643 842 643 L482 643 L482 378 L735 378 Q746 378 753.5 372 Q761 366 761 355 Q761 344 753.5 338 Q746 332 735 332 L482 332 L482 47 L842 47 Q853 47 860 40.5 Q867 34 867 23 Q867 13 860 6.5 Q853 0 842 0 L456 0 Q430 0 430 26 L430 203 L192 203 L78 17 Z M218 251 L430 251 L430 598 L218 251 Z " />
<glyph glyph-name="OE" unicode="&#x152;" horiz-adv-x="1093" d="M650 0 Q623 0 623 25 L623 164 Q605 126 579 94.5 Q553 63 519 39.5 Q485 16 444.5 3 Q404 -10 356 -10 Q287 -10 229.5 16.5 Q172 43 130.5 90.5 Q89 138 66 203.5 Q43 269 43 347 Q43 424 66 489 Q89 554 130.5 601 Q172 648 230 674 Q288 700 358 700 Q454 700 520 652.5 Q586 605 623 528 L623 665 Q623 690 649 690 L1034 690 Q1045 690 1052 683.5 Q1059 677 1059 667 Q1059 656 1052 649.5 Q1045 643 1034 643 L675 643 L675 378 L928 378 Q939 378 946 372 Q953 366 953 355 Q953 344 946 338 Q939 332 928 332 L675 332 L675 47 L1034 47 Q1045 47 1052 40.5 Q1059 34 1059 23 Q1059 13 1052 6.5 Q1045 0 1034 0 L650 0 Z M169 132 Q203 90 251.5 65.5 Q300 41 360 41 Q420 41 468.5 65.5 Q517 90 551 131.5 Q585 173 603.5 228 Q622 283 622 345 Q622 407 604 462.5 Q586 518 552 559.5 Q518 601 469.5 625 Q421 649 360 649 Q299 649 250.5 625 Q202 601 168 560 Q134 519 116 464 Q98 409 98 347 Q98 285 116.5 229.5 Q135 174 169 132 Z " />
<glyph glyph-name="Lslash" unicode="&#x141;" horiz-adv-x="540" d="M119 0 Q91 0 91 26 L91 313 L47 288 Q39 283 28 283 Q19 283 13.5 289.5 Q8 296 8 307 Q8 313 11 318 Q14 323 23 328 L91 366 L91 664 Q91 675 98.5 682.5 Q106 690 118 690 Q130 690 137 682.5 Q144 675 144 664 L144 396 L226 443 Q231 446 235 447 Q239 448 242 448 Q253 448 258.5 440.5 Q264 433 264 425 Q264 410 253 405 L144 343 L144 47 L482 47 Q493 47 500 40.5 Q507 34 507 23 Q507 13 500 6.5 Q493 0 482 0 L119 0 Z " />
<glyph glyph-name="Oslash" unicode="&#xd8;" horiz-adv-x="749" d="M159 3 Q149 -10 138 -10 Q127 -10 120.5 -3 Q114 4 114 12 Q114 22 120 28 L156 80 Q109 128 83.5 196 Q58 264 58 347 Q58 424 81 489 Q104 554 146 601 Q188 648 246 674 Q304 700 374 700 Q425 700 469 686.5 Q513 673 550 647 L580 689 Q584 695 589 697.5 Q594 700 599 700 Q610 700 616.5 693.5 Q623 687 623 677 Q623 670 619 664 L586 617 Q636 569 663.5 500.5 Q691 432 691 347 Q691 269 668 203.5 Q645 138 603 90.5 Q561 43 502.5 16.5 Q444 -10 374 -10 Q320 -10 274.5 5 Q229 20 191 49 L159 3 Z M221 93 Q252 68 290.5 54.5 Q329 41 374 41 Q436 41 484.5 65.5 Q533 90 567 132 Q601 174 618.5 229.5 Q636 285 636 347 Q636 414 615 472 Q594 530 555 572 L221 93 Z M520 603 Q490 625 453.5 637 Q417 649 374 649 Q312 649 263.5 625 Q215 601 181 560 Q147 519 129.5 464 Q112 409 112 347 Q112 282 131.5 224.5 Q151 167 188 125 L520 603 Z " />
<glyph glyph-name="Eth" unicode="&#xd0;" horiz-adv-x="677" d="M117 0 Q91 0 91 26 L91 332 L36 332 Q25 332 17 339 Q9 346 9 357 Q9 369 17 375.5 Q25 382 36 382 L91 382 L91 664 Q91 690 118 690 L320 690 Q389 690 444.5 664.5 Q500 639 539 593.5 Q578 548 598.5 485.5 Q619 423 619 350 Q619 279 598 215.5 Q577 152 538.5 104 Q500 56 444.5 28 Q389 0 320 0 L117 0 Z M144 47 L316 47 Q373 47 419 70.5 Q465 94 497.5 135.5 Q530 177 547.5 232 Q565 287 565 350 Q565 413 547.5 466.5 Q530 520 497 559 Q464 598 417 620.5 Q370 643 311 643 L144 643 L144 382 L293 382 Q304 382 312 375.5 Q320 369 320 357 Q320 346 312 339 Q304 332 293 332 L144 332 L144 47 Z " />
<glyph glyph-name="Thorn" unicode="&#xde;" horiz-adv-x="592" d="M144 26 Q144 0 118 0 Q106 0 98.5 7 Q91 14 91 26 L91 664 Q91 675 98.5 682.5 Q106 690 118 690 Q130 690 137 682.5 Q144 675 144 664 L144 555 L317 555 Q430 555 487 499.5 Q544 444 544 344 Q544 249 483.5 194 Q423 139 313 139 L144 139 L144 26 Z M144 186 L313 186 Q361 186 395 198 Q429 210 450 231 Q471 252 481 281 Q491 310 491 344 Q491 422 445.5 465 Q400 508 311 508 L144 508 L144 186 Z " />
<glyph glyph-name="a" unicode="a" horiz-adv-x="609" d="M475 121 Q447 63 397.5 26.5 Q348 -10 280 -10 Q230 -10 188 9.5 Q146 29 114.5 63 Q83 97 65.5 144 Q48 191 48 246 Q48 301 66 348.5 Q84 396 115.5 430 Q147 464 189.5 483.5 Q232 503 282 503 Q353 503 400 468 Q447 433 475 375 L475 471 Q475 493 500 493 Q511 493 518.5 487 Q526 481 526 471 L526 100 Q526 90 527 80.5 Q528 71 531.5 63.5 Q535 56 541.5 51 Q548 46 559 46 Q580 46 580 24 Q580 0 551 0 Q507 0 491.5 25 Q476 50 475 88 L475 121 Z M152 96 Q177 68 211.5 52.5 Q246 37 288 37 Q328 37 362 52 Q396 67 421 94.5 Q446 122 460.5 160 Q475 198 475 244 Q475 289 461 328 Q447 367 422 395.5 Q397 424 362.5 440.5 Q328 457 288 457 Q245 457 210.5 440.5 Q176 424 151.5 395.5 Q127 367 114 328.5 Q101 290 101 245 Q101 200 114.5 162 Q128 124 152 96 Z " />
<glyph glyph-name="b" unicode="b" horiz-adv-x="604" d="M129 24 Q129 14 122.5 7 Q116 0 104 0 Q90 0 84 7 Q78 14 78 24 L78 666 Q78 677 85.5 683.5 Q93 690 104 690 Q115 690 122 683.5 Q129 677 129 666 L129 374 Q154 431 202 467 Q250 503 322 503 Q375 503 418 483.5 Q461 464 492 429.5 Q523 395 539.5 348.5 Q556 302 556 247 Q556 192 538.5 145 Q521 98 489.5 63.5 Q458 29 415 9.5 Q372 -10 321 -10 Q253 -10 203.5 24.5 Q154 59 129 116 L129 24 Z M182 97 Q208 69 242 53 Q276 37 317 37 Q357 37 391.5 53 Q426 69 450.5 97.5 Q475 126 489 164.5 Q503 203 503 247 Q503 291 489 329.5 Q475 368 450.5 396.5 Q426 425 391.5 441 Q357 457 317 457 Q276 457 242 441 Q208 425 182.5 396.5 Q157 368 143 329.5 Q129 291 129 247 Q129 202 143 164 Q157 126 182 97 Z " />
<glyph glyph-name="c" unicode="c" horiz-adv-x="528" d="M480 107 Q480 95 474 89 Q445 47 396.5 18.5 Q348 -10 285 -10 Q233 -10 189.5 9.5 Q146 29 114.5 63.5 Q83 98 65.5 144.5 Q48 191 48 246 Q48 301 66 348 Q84 395 115.5 429.5 Q147 464 190.5 483.5 Q234 503 285 503 Q321 503 349.5 494.5 Q378 486 400.5 473 Q423 460 439 444.5 Q455 429 466 415 Q473 407 479 397.5 Q485 388 485 379 Q485 368 477.5 362 Q470 356 462 356 Q454 356 449.5 359 Q445 362 441 367 Q435 377 422 392.5 Q409 408 390 422.5 Q371 437 345.5 447 Q320 457 287 457 Q246 457 212 440.5 Q178 424 153.5 395.5 Q129 367 115 328.5 Q101 290 101 246 Q101 201 114.5 163 Q128 125 152 97 Q176 69 210 53 Q244 37 285 37 Q332 37 370 59.5 Q408 82 437 118 Q446 130 457 130 Q466 130 473 124 Q480 118 480 107 Z " />
<glyph glyph-name="d" unicode="d" horiz-adv-x="604" d="M526 25 Q526 0 500 0 Q488 0 481.5 7 Q475 14 475 24 L475 121 Q446 63 397.5 26.5 Q349 -10 281 -10 Q231 -10 188.5 9 Q146 28 115 62.5 Q84 97 66 143.5 Q48 190 48 246 Q48 302 66 349 Q84 396 115.5 430.5 Q147 465 189.5 484 Q232 503 282 503 Q354 503 400 468 Q446 433 475 375 L475 666 Q475 677 482.5 683.5 Q490 690 501 690 Q512 690 519 683.5 Q526 677 526 666 L526 25 Z M152 96 Q177 68 211.5 52.5 Q246 37 288 37 Q328 37 362 52 Q396 67 421 95 Q446 123 460.5 161 Q475 199 475 246 Q475 291 461 329.5 Q447 368 422 396.5 Q397 425 362.5 441 Q328 457 288 457 Q245 457 210.5 440.5 Q176 424 151.5 395.5 Q127 367 114 328.5 Q101 290 101 245 Q101 200 114.5 162 Q128 124 152 96 Z " />
<glyph glyph-name="e" unicode="e" horiz-adv-x="559" d="M99 248 Q100 203 113 164.5 Q126 126 150 97.5 Q174 69 209 53 Q244 37 289 37 Q342 37 380 55.5 Q418 74 446 100 Q456 107 462 107 Q472 107 479 99.5 Q486 92 486 83 Q486 71 475 62 Q446 33 396.5 11.5 Q347 -10 286 -10 Q232 -10 188 9.5 Q144 29 113 63 Q82 97 65 144 Q48 191 48 245 Q48 301 66 348 Q84 395 116 429.5 Q148 464 191 483.5 Q234 503 284 503 Q332 503 373 486.5 Q414 470 443 441.5 Q472 413 488.5 375.5 Q505 338 505 297 Q505 275 498 261.5 Q491 248 466 248 L99 248 Z M454 286 Q457 317 445.5 348 Q434 379 411 403 Q388 427 355.5 442 Q323 457 284 457 Q251 457 220 445.5 Q189 434 164 411.5 Q139 389 122.5 357 Q106 325 101 286 L454 286 Z " />
<glyph glyph-name="f" unicode="f" horiz-adv-x="339" d="M129 24 Q129 13 122 6.5 Q115 0 104 0 Q93 0 85.5 6.5 Q78 13 78 24 L78 486 Q78 586 126 643 Q174 700 260 700 Q278 700 290.5 699 Q303 698 308 696 Q321 692 325 685.5 Q329 679 329 672 Q329 649 307 649 Q296 649 287.5 650.5 Q279 652 263 652 Q193 652 162.5 610.5 Q132 569 130 491 L250 491 Q261 491 267.5 484.5 Q274 478 274 468 Q274 457 267.5 450.5 Q261 444 250 444 L129 444 L129 24 Z " />
<glyph glyph-name="g" unicode="g" horiz-adv-x="603" d="M526 37 Q526 -200 303 -200 Q248 -200 209.5 -185.5 Q171 -171 140 -154 Q121 -144 121 -129 Q121 -119 127.5 -111.5 Q134 -104 144 -104 Q153 -104 166.5 -111.5 Q180 -119 199.5 -128 Q219 -137 245.5 -144.5 Q272 -152 307 -152 Q398 -152 436.5 -102 Q475 -52 475 42 L475 121 Q446 63 397.5 26.5 Q349 -10 280 -10 Q231 -10 188.5 9 Q146 28 115 62 Q84 96 66 142.5 Q48 189 48 245 Q48 301 66 348 Q84 395 115.5 429.5 Q147 464 190 483.5 Q233 503 282 503 Q354 503 400 467.5 Q446 432 475 375 L475 471 Q475 493 500 493 Q512 493 519 486.5 Q526 480 526 471 L526 37 Z M154 96 Q179 68 213 52.5 Q247 37 287 37 Q327 37 361.5 52.5 Q396 68 421 96 Q446 124 460.5 162 Q475 200 475 245 Q475 290 461 328.5 Q447 367 421.5 395.5 Q396 424 361.5 440.5 Q327 457 287 457 Q247 457 212.5 440.5 Q178 424 153 395.5 Q128 367 114 328.5 Q100 290 100 245 Q100 200 114.5 162 Q129 124 154 96 Z " />
<glyph glyph-name="h" unicode="h" horiz-adv-x="554" d="M129 24 Q129 13 122 6.5 Q115 0 104 0 Q93 0 85.5 6.5 Q78 13 78 24 L78 666 Q78 677 85.5 683.5 Q93 690 104 690 Q115 690 122 683.5 Q129 677 129 666 L129 405 Q150 447 189 475 Q228 503 288 503 Q337 503 373 487.5 Q409 472 433 445 Q457 418 469 381.5 Q481 345 481 303 L481 24 Q481 13 473.5 6.5 Q466 0 455 0 Q444 0 437 6.5 Q430 13 430 24 L430 296 Q430 329 420 358.5 Q410 388 391 409.5 Q372 431 343.5 444 Q315 457 279 457 Q243 457 215 444 Q187 431 168 409 Q149 387 139 357.5 Q129 328 129 295 L129 24 Z " />
<glyph glyph-name="i" unicode="i" horiz-adv-x="212" d="M103 601 Q68 601 68 637 Q68 674 103 674 Q140 674 140 637 Q140 601 103 601 Z M129 94 Q129 72 135.5 59.5 Q142 47 162 47 Q173 47 178 40 Q183 33 183 24 Q183 13 175.5 6.5 Q168 0 153 0 Q109 0 93.5 25.5 Q78 51 78 93 L78 469 Q78 480 85 486.5 Q92 493 104 493 Q116 493 122.5 486.5 Q129 480 129 469 L129 94 Z " />
<glyph glyph-name="j" unicode="j" horiz-adv-x="207" d="M129 -27 Q129 -103 92.5 -146.5 Q56 -190 -19 -190 Q-49 -190 -49 -165 Q-49 -143 -24 -143 Q10 -143 30.5 -131.5 Q51 -120 61.5 -101.5 Q72 -83 75 -60 Q78 -37 78 -13 L78 469 Q78 480 85 486.5 Q92 493 104 493 Q116 493 122.5 486.5 Q129 480 129 469 L129 -27 Z M103 601 Q86 601 76.5 610.5 Q67 620 67 637 Q67 674 103 674 Q140 674 140 637 Q140 601 103 601 Z " />
<glyph glyph-name="k" unicode="k" horiz-adv-x="504" d="M129 24 Q129 14 123 7 Q117 0 104 0 Q91 0 84.5 7 Q78 14 78 24 L78 666 Q78 676 84 683 Q90 690 104 690 Q118 690 123.5 683 Q129 676 129 666 L129 252 L394 482 Q399 487 405 490 Q411 493 418 493 Q429 493 434.5 485.5 Q440 478 440 470 Q440 457 426 446 L237 283 L451 45 Q461 35 461 25 Q461 14 453.5 7 Q446 0 435 0 Q424 0 413 12 L199 250 L129 190 L129 24 Z " />
<glyph glyph-name="l" unicode="l" horiz-adv-x="212" d="M129 94 Q129 72 135.5 59.5 Q142 47 162 47 Q173 47 178 40 Q183 33 183 24 Q183 13 175.5 6.5 Q168 0 153 0 Q109 0 93.5 25.5 Q78 51 78 93 L78 666 Q78 676 85 683 Q92 690 104 690 Q116 690 122.5 683 Q129 676 129 666 L129 94 Z " />
<glyph glyph-name="m" unicode="m" horiz-adv-x="824" d="M129 24 Q129 14 122.5 7 Q116 0 104 0 Q92 0 85 6.5 Q78 13 78 24 L78 469 Q78 493 104 493 Q129 493 129 470 L129 405 Q146 450 180 476.5 Q214 503 270 503 Q332 503 370 473.5 Q408 444 427 392 Q446 442 482.5 472.5 Q519 503 577 503 Q663 503 707 450.5 Q751 398 751 314 L751 24 Q751 14 744 7 Q737 0 725 0 Q713 0 706 7 Q699 14 699 24 L699 313 Q699 376 666 416.5 Q633 457 570 457 Q509 457 474.5 416.5 Q440 376 440 312 L440 25 Q440 14 433.5 7 Q427 0 414 0 Q402 0 395.5 7 Q389 14 389 25 L389 313 Q389 376 355.5 416.5 Q322 457 259 457 Q199 457 164 417 Q129 377 129 313 L129 24 Z " />
<glyph glyph-name="n" unicode="n" horiz-adv-x="563" d="M129 24 Q129 14 122 7 Q115 0 104 0 Q93 0 85.5 6.5 Q78 13 78 24 L78 471 Q78 480 84.5 486.5 Q91 493 104 493 Q117 493 123 486.5 Q129 480 129 471 L129 405 Q150 447 192.5 475 Q235 503 297 503 Q346 503 382 488 Q418 473 442 446 Q466 419 478 382.5 Q490 346 490 303 L490 24 Q490 14 482.5 7 Q475 0 464 0 Q453 0 445.5 7 Q438 14 438 24 L438 296 Q438 330 428 359.5 Q418 389 399.5 410.5 Q381 432 353 444.5 Q325 457 289 457 Q251 457 221 444 Q191 431 170.5 409 Q150 387 139.5 357.5 Q129 328 129 295 L129 24 Z " />
<glyph glyph-name="o" unicode="o" horiz-adv-x="572" d="M189 9 Q145 29 113.5 63.5 Q82 98 65 144.5 Q48 191 48 246 Q48 301 65 348 Q82 395 113.5 429.5 Q145 464 189 483.5 Q233 503 286 503 Q339 503 383 483.5 Q427 464 458.5 429.5 Q490 395 507 348 Q524 301 524 246 Q524 191 507 144.5 Q490 98 458.5 63.5 Q427 29 383 9.5 Q339 -10 286 -10 Q233 -10 189 9 Z M150 97 Q174 69 208.5 53 Q243 37 286 37 Q329 37 363.5 53 Q398 69 422 97 Q446 125 458.5 163.5 Q471 202 471 246 Q471 290 458.5 328.5 Q446 367 422 395.5 Q398 424 363.5 440.5 Q329 457 286 457 Q243 457 209 441 Q175 425 151 396.5 Q127 368 114 329.5 Q101 291 101 246 Q101 202 113.5 163.5 Q126 125 150 97 Z " />
<glyph glyph-name="p" unicode="p" horiz-adv-x="603" d="M129 -166 Q129 -177 122.5 -183.5 Q116 -190 104 -190 Q93 -190 85.5 -183.5 Q78 -177 78 -166 L78 471 Q78 480 84.5 486.5 Q91 493 104 493 Q117 493 123 486.5 Q129 480 129 471 L129 375 Q155 430 204 466.5 Q253 503 322 503 Q372 503 415 483.5 Q458 464 489 429.5 Q520 395 537.5 348 Q555 301 555 246 Q555 191 537.5 144.5 Q520 98 488.5 63.5 Q457 29 414.5 9.5 Q372 -10 321 -10 Q254 -10 205 24 Q156 58 129 120 L129 -166 Z M182 97 Q208 69 242 53 Q276 37 317 37 Q357 37 391 52.5 Q425 68 450 95.5 Q475 123 488.5 161.5 Q502 200 502 246 Q502 290 488.5 329 Q475 368 450 396.5 Q425 425 391 441.5 Q357 458 317 458 Q276 458 242 441.5 Q208 425 182.5 396.5 Q157 368 143 329 Q129 290 129 246 Q129 201 143 163 Q157 125 182 97 Z " />
<glyph glyph-name="q" unicode="q" horiz-adv-x="603" d="M525 -166 Q525 -177 518 -183.5 Q511 -190 499 -190 Q488 -190 481 -183.5 Q474 -177 474 -166 L474 120 Q445 60 396.5 25 Q348 -10 279 -10 Q230 -10 187.5 9 Q145 28 114 62 Q83 96 65.5 142.5 Q48 189 48 245 Q48 300 65.5 347.5 Q83 395 114 429.5 Q145 464 188 483.5 Q231 503 281 503 Q350 503 399.5 468.5 Q449 434 474 375 L474 471 Q474 480 480.5 486.5 Q487 493 499 493 Q510 493 517.5 487.5 Q525 482 525 471 L525 -166 Z M153 96 Q178 69 212 53 Q246 37 286 37 Q326 37 360.5 53 Q395 69 420 96.5 Q445 124 459.5 162.5 Q474 201 474 246 Q474 291 460 329.5 Q446 368 420.5 396.5 Q395 425 360.5 441 Q326 457 286 457 Q246 457 212 441 Q178 425 153.5 396.5 Q129 368 115 329.5 Q101 291 101 246 Q101 201 115 162.5 Q129 124 153 96 Z " />
<glyph glyph-name="r" unicode="r" horiz-adv-x="359" d="M129 24 Q129 13 122 6.5 Q115 0 104 0 Q93 0 85.5 6.5 Q78 13 78 24 L78 470 Q78 480 84.5 486.5 Q91 493 103 493 Q128 493 128 470 L128 390 Q154 443 194 473 Q234 503 305 503 Q333 503 333 481 Q333 470 327 463 Q321 456 308 456 Q227 456 178 406 Q129 356 129 269 L129 24 Z " />
<glyph glyph-name="s" unicode="s" horiz-adv-x="458" d="M72 115 Q81 115 93 103 Q101 92 113.5 80.5 Q126 69 143 59 Q160 49 182.5 42.5 Q205 36 233 36 Q290 36 323.5 61 Q357 86 357 130 Q357 161 335.5 180 Q314 199 282 212.5 Q250 226 213 237 Q176 249 144 265.5 Q112 282 90.5 307 Q69 332 69 373 Q69 403 81.5 427 Q94 451 116.5 468 Q139 485 169.5 494 Q200 503 235 503 Q284 503 321 485 Q358 467 378 445 Q386 436 386 425 Q386 418 380.5 410 Q375 402 365 402 Q361 402 356 404.5 Q351 407 346 410 Q332 424 304.5 441 Q277 458 235 458 Q214 458 193.5 453.5 Q173 449 157.5 439.5 Q142 430 132 413.5 Q122 397 122 373 Q122 344 143.5 326 Q165 308 196 295.5 Q227 283 261 271 Q264 271 283.5 265 Q303 259 335 242.5 Q367 226 388.5 201.5 Q410 177 410 137 Q410 105 397 78 Q384 51 360.5 31.5 Q337 12 304 1 Q271 -10 230 -10 Q172 -10 128.5 12 Q85 34 56 72 Q49 80 49 92 Q49 100 55.5 107.5 Q62 115 72 115 Z " />
<glyph glyph-name="t" unicode="t" horiz-adv-x="348" d="M162 130 Q162 80 177 58.5 Q192 37 225 37 Q241 37 253 40.5 Q265 44 274 47.5 Q283 51 288.5 54.5 Q294 58 299 58 Q308 58 314 51 Q320 44 320 35 Q320 22 310 15 Q293 2 268 -4 Q243 -10 219 -10 Q160 -10 135 26.5 Q110 63 110 121 L110 447 L57 447 Q46 447 39.5 453 Q33 459 33 470 Q33 481 39.5 487 Q46 493 57 493 L110 493 L110 592 Q110 604 117.5 610 Q125 616 136 616 Q162 616 162 592 L162 493 L269 493 Q280 493 286.5 487 Q293 481 293 470 Q293 460 286.5 453.5 Q280 447 269 447 L162 447 L162 130 Z " />
<glyph glyph-name="u" unicode="u" horiz-adv-x="534" d="M129 181 Q129 150 138 123.5 Q147 97 165 78 Q183 59 208.5 48 Q234 37 267 37 Q300 37 325.5 48 Q351 59 369 78 Q387 97 396 123.5 Q405 150 405 181 L405 469 Q405 480 413 486.5 Q421 493 432 493 Q443 493 450 486.5 Q457 480 457 469 L457 183 Q457 141 444.5 106 Q432 71 408 45 Q384 19 348.5 4.5 Q313 -10 267 -10 Q220 -10 184.5 4.5 Q149 19 125 45 Q101 71 89 106 Q77 141 77 183 L77 469 Q77 480 84 486.5 Q91 493 102 493 Q113 493 121 486.5 Q129 480 129 469 L129 181 Z " />
<glyph glyph-name="v" unicode="v" horiz-adv-x="507" d="M279 19 Q270 0 254 0 Q234 0 227 20 L39 452 Q37 456 35 461 Q33 466 33 470 Q33 481 41 487 Q49 493 60 493 Q70 493 75 488.5 Q80 484 82 479 L254 75 L425 477 Q432 493 446 493 Q474 493 474 470 Q474 466 472.5 462.5 Q471 459 470 456 L279 19 Z " />
<glyph glyph-name="w" unicode="w" horiz-adv-x="715" d="M255 18 Q248 0 229 0 Q211 0 204 18 L36 456 Q33 465 33 471 Q33 481 41 487 Q49 493 60 493 Q77 493 83 476 L231 76 L334 405 Q336 414 342.5 418.5 Q349 423 357 423 Q365 423 371.5 418.5 Q378 414 381 405 L491 76 L634 476 Q640 493 656 493 Q667 493 675 487.5 Q683 482 683 471 Q683 465 680 456 L514 18 Q506 0 489 0 Q470 0 464 18 L356 344 L255 18 Z " />
<glyph glyph-name="x" unicode="x" horiz-adv-x="481" d="M92 12 Q83 0 70 0 Q61 0 53 6.5 Q45 13 45 23 Q45 31 52 41 L204 248 L53 452 Q45 461 45 471 Q45 479 52 486 Q59 493 70 493 Q79 493 84.5 488.5 Q90 484 96 476 L241 281 L392 483 Q400 493 410 493 Q419 493 428.5 487 Q438 481 438 470 Q438 463 433 455 L270 242 L421 41 Q427 32 427 23 Q427 15 420.5 7.5 Q414 0 403 0 Q389 0 378 13 L233 208 L92 12 Z " />
<glyph glyph-name="y" unicode="y" horiz-adv-x="485" d="M239 -50 Q224 -86 210 -112.5 Q196 -139 178 -156.5 Q160 -174 135.5 -182 Q111 -190 75 -190 Q42 -190 42 -166 Q42 -143 70 -143 Q101 -143 121.5 -135.5 Q142 -128 155.5 -114.5 Q169 -101 178 -82.5 Q187 -64 196 -43 L218 12 L36 456 Q33 462 33 470 Q33 480 40.5 486.5 Q48 493 61 493 Q77 493 83 477 L242 72 L404 478 Q410 493 425 493 Q435 493 442.5 487 Q450 481 450 470 Q450 467 449 462.5 Q448 458 447 456 L239 -50 Z " />
<glyph glyph-name="z" unicode="z" horiz-adv-x="443" d="M62 0 Q38 0 38 24 Q38 34 47 46 L339 447 L84 447 Q59 447 59 469 Q59 493 84 493 L381 493 Q406 493 406 474 Q406 462 393 445 L105 47 L376 47 Q400 47 400 24 Q400 0 376 0 L62 0 Z " />
<glyph glyph-name="ae" unicode="&#xe6;" horiz-adv-x="988" d="M528 248 Q529 203 542 164.5 Q555 126 579 97.5 Q603 69 638 53 Q673 37 718 37 Q771 37 809 55.5 Q847 74 875 100 Q884 107 891 107 Q901 107 907.5 99.5 Q914 92 914 83 Q914 70 904 62 Q875 33 825.5 11.5 Q776 -10 714 -10 Q630 -10 575 35.5 Q520 81 498 154 Q469 74 411 32 Q353 -10 281 -10 Q231 -10 188.5 9.5 Q146 29 114.5 63 Q83 97 65.5 144 Q48 191 48 246 Q48 301 66 348.5 Q84 396 115.5 430 Q147 464 189.5 483.5 Q232 503 282 503 Q354 503 402 468 Q450 433 477 376 L477 471 Q477 481 483.5 487 Q490 493 500 493 Q510 493 516.5 487 Q523 481 523 471 L523 372 Q553 440 604.5 471.5 Q656 503 714 503 Q762 503 802.5 486.5 Q843 470 872 441.5 Q901 413 917.5 375.5 Q934 338 934 297 Q934 275 927 261.5 Q920 248 895 248 L528 248 Z M152 96 Q177 68 211.5 52.5 Q246 37 288 37 Q328 37 362 52 Q396 67 421 94.5 Q446 122 460.5 160 Q475 198 475 244 Q475 289 461 328 Q447 367 422 395.5 Q397 424 362.5 440.5 Q328 457 288 457 Q245 457 210.5 440.5 Q176 424 151.5 395.5 Q127 367 114 328.5 Q101 290 101 245 Q101 200 114.5 162 Q128 124 152 96 Z M882 286 Q885 317 873.5 348 Q862 379 839.5 403 Q817 427 784.5 442 Q752 457 713 457 Q680 457 649 445.5 Q618 434 593 411.5 Q568 389 551.5 357 Q535 325 530 286 L882 286 Z " />
<glyph glyph-name="oe" unicode="&#x153;" horiz-adv-x="983" d="M523 246 Q524 202 537 163.5 Q550 125 574.5 97 Q599 69 633.5 53 Q668 37 713 37 Q766 37 804.5 55.5 Q843 74 870 100 Q880 107 886 107 Q896 107 903 99.5 Q910 92 910 83 Q910 71 899 62 Q870 33 820.5 11.5 Q771 -10 710 -10 Q635 -10 580 26.5 Q525 63 497 124 Q469 63 414.5 26.5 Q360 -10 286 -10 Q233 -10 189 9.5 Q145 29 113.5 63.5 Q82 98 65 144.5 Q48 191 48 246 Q48 301 65 348 Q82 395 113.5 429.5 Q145 464 189 483.5 Q233 503 286 503 Q361 503 415.5 465.5 Q470 428 498 366 Q527 429 582 466 Q637 503 708 503 Q756 503 797 486.5 Q838 470 867 441.5 Q896 413 912.5 375.5 Q929 338 929 297 Q929 275 922 261.5 Q915 248 890 246 L523 246 Z M150 97 Q174 69 208.5 53 Q243 37 286 37 Q329 37 363.5 53 Q398 69 422 97 Q446 125 458.5 163.5 Q471 202 471 246 Q471 290 458.5 328.5 Q446 367 422 395.5 Q398 424 363.5 440.5 Q329 457 286 457 Q243 457 209 441 Q175 425 151 396.5 Q127 368 114 329.5 Q101 291 101 246 Q101 202 113.5 163.5 Q126 125 150 97 Z M878 286 Q881 317 869.5 348 Q858 379 835 403 Q812 427 779.5 442 Q747 457 708 457 Q675 457 644 445.5 Q613 434 588 411.5 Q563 389 546.5 357 Q530 325 525 286 L878 286 Z " />
<glyph glyph-name="lslash" unicode="&#x142;" horiz-adv-x="212" d="M129 94 Q129 72 135.5 59.5 Q142 47 162 47 Q173 47 178 40 Q183 33 183 24 Q183 13 175.5 6.5 Q168 0 153 0 Q109 0 93.5 25.5 Q78 51 78 93 L78 325 L24 294 Q17 290 10 290 Q1 290 -5 296.5 Q-11 303 -11 312 Q-11 324 2 332 L78 375 L78 666 Q78 676 85 683 Q92 690 104 690 Q116 690 122.5 683 Q129 676 129 666 L129 404 L195 441 Q200 445 208 445 Q218 445 223.5 438.5 Q229 432 229 424 Q229 412 216 405 L129 354 L129 94 Z " />
<glyph glyph-name="oslash" unicode="&#xf8;" horiz-adv-x="572" d="M133 3 Q124 -10 113 -10 Q102 -10 96 -3.5 Q90 3 90 11 Q90 16 91.5 19.5 Q93 23 95 27 L117 59 Q84 94 66 141.5 Q48 189 48 246 Q48 301 65 348 Q82 395 113.5 429.5 Q145 464 189 483.5 Q233 503 286 503 Q320 503 350 494.5 Q380 486 406 471 L420 492 Q424 498 429 500.5 Q434 503 439 503 Q450 503 455.5 496.5 Q461 490 461 482 Q461 473 457 469 L441 446 Q480 411 502 359.5 Q524 308 524 246 Q524 191 507 144.5 Q490 98 458.5 63.5 Q427 29 383 9.5 Q339 -10 286 -10 Q209 -10 152 30 L133 3 Z M179 70 Q201 54 227.5 45.5 Q254 37 286 37 Q329 37 363.5 53 Q398 69 422 97 Q446 125 458.5 163.5 Q471 202 471 246 Q471 294 456 335 Q441 376 413 405 L179 70 Z M378 432 Q337 457 286 457 Q243 457 209 441 Q175 425 151 396.5 Q127 368 114 329.5 Q101 291 101 246 Q101 158 147 101 L378 432 Z " />
<glyph glyph-name="eth" unicode="&#xf0;" horiz-adv-x="572" d="M524 245 Q524 191 507 144 Q490 97 458.5 63 Q427 29 383 9.5 Q339 -10 286 -10 Q233 -10 189 9.5 Q145 29 113.5 63 Q82 97 65 144 Q48 191 48 245 Q48 299 65 345.5 Q82 392 113.5 426.5 Q145 461 188.5 481 Q232 501 285 501 Q326 501 361.5 489 Q397 477 426 455 Q404 499 377 533.5 Q350 568 324 595 L296 568 Q292 565 288.5 562.5 Q285 560 279 560 Q271 560 264 565.5 Q257 571 257 582 Q257 590 265 598 L293 625 L277 640 Q263 651 253 660 Q243 669 243 677 Q243 685 249 692.5 Q255 700 266 700 Q276 700 287.5 692 Q299 684 313 672 L328 659 L362 692 Q365 695 368.5 697.5 Q372 700 378 700 Q389 700 394 694 Q399 688 399 679 Q399 670 392 663 L359 630 Q384 605 412 570 Q440 535 463.5 489.5 Q487 444 503.5 388 Q520 332 523 266 Q524 261 524 255 L524 245 Z M150 97 Q174 69 208.5 53 Q243 37 286 37 Q329 37 363.5 53 Q398 69 422 96.5 Q446 124 458.5 162 Q471 200 471 244 Q471 288 458.5 326.5 Q446 365 422 393.5 Q398 422 363.5 438 Q329 454 286 454 Q243 454 209 438 Q175 422 151 393.5 Q127 365 114 327 Q101 289 101 245 Q101 201 113.5 163 Q126 125 150 97 Z " />
<glyph glyph-name="thorn" unicode="&#xfe;" horiz-adv-x="603" d="M129 -166 Q129 -177 122.5 -183.5 Q116 -190 104 -190 Q93 -190 85.5 -183.5 Q78 -177 78 -166 L78 667 Q78 676 84.5 683 Q91 690 104 690 Q117 690 123 683.5 Q129 677 129 667 L129 375 Q155 430 204 466.5 Q253 503 322 503 Q372 503 415 483.5 Q458 464 489 429.5 Q520 395 537.5 348 Q555 301 555 246 Q555 191 537.5 144.5 Q520 98 488.5 63.5 Q457 29 414.5 9.5 Q372 -10 321 -10 Q254 -10 205 24 Q156 58 129 120 L129 -166 Z M182 97 Q208 69 242 53 Q276 37 317 37 Q357 37 391 52.5 Q425 68 450 95.5 Q475 123 488.5 161.5 Q502 200 502 246 Q502 290 488.5 329 Q475 368 450 396.5 Q425 425 391 441.5 Q357 458 317 458 Q276 458 242 441.5 Q208 425 182.5 396.5 Q157 368 143 329 Q129 290 129 246 Q129 201 143 163 Q157 125 182 97 Z " />
<glyph glyph-name="germandbls" unicode="&#xdf;" horiz-adv-x="560" d="M133 27 Q133 13 125.5 6.5 Q118 0 106 0 Q79 0 79 27 L78 493 Q78 549 93 588.5 Q108 628 133.5 652.5 Q159 677 194 688.5 Q229 700 268 700 Q356 700 402 643 Q448 586 448 484 Q448 465 440 455.5 Q432 446 406 445 Q352 445 327 426 Q302 407 302 377 Q302 351 318.5 332 Q335 313 360 296.5 Q385 280 414 264 Q444 249 469 229.5 Q494 210 510.5 185 Q527 160 527 126 Q527 100 517 75.5 Q507 51 487 32 Q467 13 437.5 1.5 Q408 -10 369 -10 Q342 -10 317 -3 Q292 4 271 16.5 Q250 29 234.5 45 Q219 61 210 79 Q209 81 208 84.5 Q207 88 207 94 Q207 102 213.5 109.5 Q220 117 231 117 Q242 117 251 105 Q257 94 267 82 Q277 70 292 60 Q307 50 326.5 43 Q346 36 371 36 Q420 36 447.5 60 Q475 84 475 125 Q475 151 458 170.5 Q441 190 417.5 206 Q394 222 368 236 Q364 237 348 246 Q332 255 307 274.5 Q282 294 265.5 318.5 Q249 343 249 377 Q249 402 260.5 422.5 Q272 443 291.5 457 Q311 471 337.5 478.5 Q364 486 395 485 Q397 563 363 608.5 Q329 654 264 654 Q228 654 203.5 642.5 Q179 631 163 610 Q147 589 140 560 Q133 531 133 495 L133 27 Z " />
<glyph glyph-name="dotlessi" unicode="&#x131;" horiz-adv-x="212" d="M129 94 Q129 72 135.5 59.5 Q142 47 162 47 Q173 47 178 40 Q183 33 183 24 Q183 13 175.5 6.5 Q168 0 153 0 Q109 0 93.5 25.5 Q78 51 78 93 L78 469 Q78 480 85 486.5 Q92 493 104 493 Q116 493 122.5 486.5 Q129 480 129 469 L129 94 Z " />
<glyph glyph-name="dotlessj" unicode="&#x237;" horiz-adv-x="207" d="M129 -27 Q129 -103 92.5 -146.5 Q56 -190 -19 -190 Q-49 -190 -49 -165 Q-49 -143 -24 -143 Q10 -143 30.5 -131.5 Q51 -120 61.5 -101.5 Q72 -83 75 -60 Q78 -37 78 -13 L78 469 Q78 480 85 486.5 Q92 493 104 493 Q116 493 122.5 486.5 Q129 480 129 469 L129 -27 Z " />
<glyph glyph-name="fi" unicode="&#xfb01;" horiz-adv-x="521" d="M129 24 Q129 13 122 6.5 Q115 0 104 0 Q93 0 85.5 6.5 Q78 13 78 24 L78 486 Q78 586 127.5 643 Q177 700 273 700 Q321 700 354.5 693.5 Q388 687 411 678 Q423 674 427.5 667.5 Q432 661 432 654 Q432 642 425.5 635.5 Q419 629 409 629 Q401 629 389.5 632.5 Q378 636 362.5 640.5 Q347 645 326.5 648.5 Q306 652 279 652 Q238 652 210 641.5 Q182 631 164.5 610.5 Q147 590 139 560 Q131 530 130 491 L414 491 Q425 491 431.5 484.5 Q438 478 438 468 L438 94 Q438 72 444.5 59.5 Q451 47 471 47 Q482 47 487 40 Q492 33 492 24 Q492 13 484.5 6.5 Q477 0 462 0 Q418 0 402.5 25.5 Q387 51 387 93 L387 444 L129 444 L129 24 Z " />
<glyph glyph-name="fl" unicode="&#xfb02;" horiz-adv-x="521" d="M129 24 Q129 13 122 6.5 Q115 0 104 0 Q93 0 87.5 8 Q82 16 80 27 Q78 38 78 51 L78 486 Q78 586 128 643 Q178 700 277 700 Q325 700 357.5 695 Q390 690 415 679 Q427 674 432.5 666.5 Q438 659 438 645 L438 94 Q438 72 444.5 59.5 Q451 47 471 47 Q482 47 487 40 Q492 33 492 24 Q492 13 484.5 6.5 Q477 0 462 0 Q419 0 403 24.5 Q387 49 387 93 L387 633 Q370 638 343.5 645 Q317 652 279 652 Q199 652 165.5 609.5 Q132 567 130 491 L250 491 Q261 491 267.5 484.5 Q274 478 274 468 Q274 457 267.5 450.5 Q261 444 250 444 L129 444 L129 24 Z " />
<glyph glyph-name="Aacute" unicode="&#xc1;" horiz-adv-x="675" d="M92 19 Q87 8 81.5 4 Q76 0 68 0 Q59 0 51 6 Q43 12 43 23 Q43 28 46.5 37.5 Q50 47 61 74 L304 659 Q310 674 317.5 682 Q325 690 338 690 Q360 690 372 659 L614 74 Q625 47 628.5 38 Q632 29 632 24 Q632 12 623.5 6 Q615 0 605 0 Q592 0 585 9.5 Q578 19 565 50 L506 196 L164 196 L92 19 Z M183 241 L488 241 L337 617 L183 241 Z M281 759 Q276 755 269 755 Q261 755 256.5 760 Q252 765 252 772 Q252 781 259 787 L357 881 Q365 889 375.5 898 Q386 907 398 907 Q409 907 418 899 Q427 891 427 878 Q427 864 414 855 L281 759 Z " />
<glyph glyph-name="Acircumflex" unicode="&#xc2;" horiz-adv-x="675" d="M92 19 Q87 8 81.5 4 Q76 0 68 0 Q59 0 51 6 Q43 12 43 23 Q43 28 46.5 37.5 Q50 47 61 74 L304 659 Q310 674 317.5 682 Q325 690 338 690 Q360 690 372 659 L614 74 Q625 47 628.5 38 Q632 29 632 24 Q632 12 623.5 6 Q615 0 605 0 Q592 0 585 9.5 Q578 19 565 50 L506 196 L164 196 L92 19 Z M183 241 L488 241 L337 617 L183 241 Z M231 764 Q224 759 220.5 757 Q217 755 213 755 Q206 755 201 760 Q196 765 196 772 Q196 779 208 791 L317 897 Q327 907 339 907 Q353 907 362 897 L470 791 Q482 779 482 772 Q482 765 477 760 Q472 755 465 755 Q460 755 447 764 L339 853 L231 764 Z " />
<glyph glyph-name="Adieresis" unicode="&#xc4;" horiz-adv-x="675" d="M92 19 Q87 8 81.5 4 Q76 0 68 0 Q59 0 51 6 Q43 12 43 23 Q43 28 46.5 37.5 Q50 47 61 74 L304 659 Q310 674 317.5 682 Q325 690 338 690 Q360 690 372 659 L614 74 Q625 47 628.5 38 Q632 29 632 24 Q632 12 623.5 6 Q615 0 605 0 Q592 0 585 9.5 Q578 19 565 50 L506 196 L164 196 L92 19 Z M183 241 L488 241 L337 617 L183 241 Z M265 800 Q229 800 229 835 Q229 872 265 872 Q280 872 290.5 862.5 Q301 853 301 835 Q301 800 265 800 Z M411 800 Q375 800 375 836 Q375 872 411 872 Q426 872 436.5 862.5 Q447 853 447 836 Q447 800 411 800 Z " />
<glyph glyph-name="Agrave" unicode="&#xc0;" horiz-adv-x="675" d="M92 19 Q87 8 81.5 4 Q76 0 68 0 Q59 0 51 6 Q43 12 43 23 Q43 28 46.5 37.5 Q50 47 61 74 L304 659 Q310 674 317.5 682 Q325 690 338 690 Q360 690 372 659 L614 74 Q625 47 628.5 38 Q632 29 632 24 Q632 12 623.5 6 Q615 0 605 0 Q592 0 585 9.5 Q578 19 565 50 L506 196 L164 196 L92 19 Z M183 241 L488 241 L337 617 L183 241 Z M265 855 Q252 864 252 878 Q252 891 261 899 Q270 907 281 907 Q293 907 303.5 898 Q314 889 322 881 L420 787 Q427 781 427 772 Q427 765 422 760 Q417 755 410 755 Q403 755 398 759 L265 855 Z " />
<glyph glyph-name="Aring" unicode="&#xc5;" horiz-adv-x="675" d="M92 19 Q87 8 81.5 4 Q76 0 68 0 Q59 0 51 6 Q43 12 43 23 Q43 28 46.5 37.5 Q50 47 61 74 L304 659 Q310 674 317.5 682 Q325 690 338 690 Q360 690 372 659 L614 74 Q625 47 628.5 38 Q632 29 632 24 Q632 12 623.5 6 Q615 0 605 0 Q592 0 585 9.5 Q578 19 565 50 L506 196 L164 196 L92 19 Z M183 241 L488 241 L337 617 L183 241 Z M275 779 Q262 791 253.5 808.5 Q245 826 245 849 Q245 872 253.5 889.5 Q262 907 275.5 919 Q289 931 305.5 937 Q322 943 338 943 Q378 943 404.5 916.5 Q431 890 431 849 Q431 809 404.5 782 Q378 755 338 755 Q321 755 304.5 761 Q288 767 275 779 Z M299 812 Q312 795 338 795 Q352 795 362 800 Q372 805 378 813 Q384 821 387 830.5 Q390 840 390 849 Q390 868 378.5 886 Q367 904 338 904 Q321 904 311 898.5 Q301 893 295.5 884.5 Q290 876 288 866.5 Q286 857 286 850 Q286 829 299 812 Z " />
<glyph glyph-name="Atilde" unicode="&#xc3;" horiz-adv-x="675" d="M92 19 Q87 8 81.5 4 Q76 0 68 0 Q59 0 51 6 Q43 12 43 23 Q43 28 46.5 37.5 Q50 47 61 74 L304 659 Q310 674 317.5 682 Q325 690 338 690 Q360 690 372 659 L614 74 Q625 47 628.5 38 Q632 29 632 24 Q632 12 623.5 6 Q615 0 605 0 Q592 0 585 9.5 Q578 19 565 50 L506 196 L164 196 L92 19 Z M183 241 L488 241 L337 617 L183 241 Z M436 843 Q447 851 458 866 Q465 878 476 878 Q484 878 490.5 872 Q497 866 497 856 Q497 846 490 836 Q476 815 456.5 802 Q437 789 411 789 Q388 789 372 796 Q356 803 341.5 811 Q327 819 312.5 826 Q298 833 279 833 Q256 833 242.5 824 Q229 815 219 803 Q215 799 211 796.5 Q207 794 201 794 Q192 794 185.5 799.5 Q179 805 179 813 Q179 822 187 832 Q204 852 224 865 Q244 878 278 878 Q300 878 316.5 871.5 Q333 865 347.5 856.5 Q362 848 376.5 841.5 Q391 835 408 835 Q425 835 436 843 Z " />
<glyph glyph-name="Abreve" unicode="&#x102;" horiz-adv-x="675" d="M92 19 Q87 8 81.5 4 Q76 0 68 0 Q59 0 51 6 Q43 12 43 23 Q43 28 46.5 37.5 Q50 47 61 74 L304 659 Q310 674 317.5 682 Q325 690 338 690 Q360 690 372 659 L614 74 Q625 47 628.5 38 Q632 29 632 24 Q632 12 623.5 6 Q615 0 605 0 Q592 0 585 9.5 Q578 19 565 50 L506 196 L164 196 L92 19 Z M183 241 L488 241 L337 617 L183 241 Z M387 829 Q408 848 418 882 Q421 897 437 897 Q447 897 452 891.5 Q457 886 457 878 Q457 858 448 839 Q439 820 422.5 804 Q406 788 382 778.5 Q358 769 329 769 Q300 769 276.5 778.5 Q253 788 236.5 804 Q220 820 211 839 Q202 858 202 878 Q202 886 206.5 891.5 Q211 897 222 897 Q236 897 241 882 Q251 848 272 829 Q293 810 329 810 Q366 810 387 829 Z " />
<glyph glyph-name="Amacron" unicode="&#x100;" horiz-adv-x="675" d="M92 19 Q87 8 81.5 4 Q76 0 68 0 Q59 0 51 6 Q43 12 43 23 Q43 28 46.5 37.5 Q50 47 61 74 L304 659 Q310 674 317.5 682 Q325 690 338 690 Q360 690 372 659 L614 74 Q625 47 628.5 38 Q632 29 632 24 Q632 12 623.5 6 Q615 0 605 0 Q592 0 585 9.5 Q578 19 565 50 L506 196 L164 196 L92 19 Z M183 241 L488 241 L337 617 L183 241 Z M237 828 Q226 828 219 835 Q212 842 212 852 Q212 863 219 869.5 Q226 876 237 876 L439 876 Q450 876 457 869.5 Q464 863 464 852 Q464 842 457 835 Q450 828 439 828 L237 828 Z " />
<glyph glyph-name="Aogonek" unicode="&#x104;" horiz-adv-x="675" d="M92 19 Q87 8 81.5 4 Q76 0 68 0 Q59 0 51 6 Q43 12 43 23 Q43 28 46.5 37.5 Q50 47 61 74 L304 659 Q310 674 317.5 682 Q325 690 338 690 Q360 690 372 659 L614 74 Q625 47 628.5 38 Q632 29 632 24 Q632 13 624.5 7 Q617 1 608 0 Q567 -30 549.5 -60 Q532 -90 532 -116 Q532 -142 547 -156 Q562 -170 585 -171 Q599 -171 607 -175.5 Q615 -180 615 -190 Q615 -203 606.5 -207.5 Q598 -212 581 -212 Q542 -212 514.5 -191 Q487 -170 487 -126 Q487 -104 495 -84 Q503 -64 516.5 -47 Q530 -30 547.5 -15 Q565 0 583 11 Q579 17 575 26.5 Q571 36 565 50 L506 196 L164 196 L92 19 Z M183 241 L488 241 L337 617 L183 241 Z " />
<glyph glyph-name="Ccedilla" unicode="&#xc7;" horiz-adv-x="691" d="M334 -7 Q274 0 223 28 Q172 56 135.5 101.5 Q99 147 78.5 209 Q58 271 58 346 Q58 426 82 491.5 Q106 557 148 603.5 Q190 650 247.5 675 Q305 700 373 700 Q421 700 460 688 Q499 676 530 658.5 Q561 641 582.5 620.5 Q604 600 617 583 Q638 554 638 537 Q638 524 630 518.5 Q622 513 614 513 Q598 513 591 525 Q576 547 554.5 569.5 Q533 592 506 609.5 Q479 627 446 638 Q413 649 373 649 Q313 649 264.5 625 Q216 601 182 560 Q148 519 130 464 Q112 409 112 347 Q112 285 130.5 229.5 Q149 174 183 132 Q217 90 265.5 65.5 Q314 41 375 41 Q444 41 498 73 Q552 105 588 160 Q598 175 610 175 Q619 175 627 168 Q635 161 635 150 Q635 146 633.5 140 Q632 134 627 127 Q617 112 597 88.5 Q577 65 546 43.5 Q515 22 472.5 6 Q430 -10 375 -10 L375 -43 Q388 -45 401 -50.5 Q414 -56 424 -65.5 Q434 -75 440.5 -89 Q447 -103 447 -121 Q447 -146 438 -163.5 Q429 -181 414.5 -192.5 Q400 -204 383 -209 Q366 -214 350 -214 Q330 -214 323.5 -208.5 Q317 -203 317 -193 Q317 -183 323.5 -178 Q330 -173 341 -173 Q373 -173 387 -159.5 Q401 -146 401 -124 Q401 -103 388.5 -93 Q376 -83 354 -80 Q344 -79 339 -75 Q334 -71 334 -60 L334 -7 Z " />
<glyph glyph-name="Cacute" unicode="&#x106;" horiz-adv-x="691" d="M247 15 Q190 41 148 87.5 Q106 134 82 200 Q58 266 58 346 Q58 426 82 491.5 Q106 557 148 603.5 Q190 650 247.5 675 Q305 700 373 700 Q421 700 460 688 Q499 676 530 658.5 Q561 641 582.5 620.5 Q604 600 617 583 Q638 554 638 537 Q638 524 630 518.5 Q622 513 614 513 Q598 513 591 525 Q576 547 554.5 569.5 Q533 592 506 609.5 Q479 627 446 638 Q413 649 373 649 Q313 649 264.5 625 Q216 601 182 560 Q148 519 130 464 Q112 409 112 347 Q112 285 130.5 229.5 Q149 174 183 132 Q217 90 265.5 65.5 Q314 41 375 41 Q444 41 498 73 Q552 105 588 160 Q598 175 610 175 Q619 175 627 168 Q635 161 635 150 Q635 146 633.5 140 Q632 134 627 127 Q617 112 597 88.5 Q577 65 546 43 Q515 21 472 5.5 Q429 -10 373 -10 Q305 -10 247 15 Z M310 759 Q305 755 298 755 Q290 755 285.5 760 Q281 765 281 772 Q281 781 288 787 L386 881 Q394 889 404.5 898 Q415 907 427 907 Q438 907 447 899 Q456 891 456 878 Q456 864 443 855 L310 759 Z " />
<glyph glyph-name="Ccaron" unicode="&#x10c;" horiz-adv-x="691" d="M247 15 Q190 41 148 87.5 Q106 134 82 200 Q58 266 58 346 Q58 426 82 491.5 Q106 557 148 603.5 Q190 650 247.5 675 Q305 700 373 700 Q421 700 460 688 Q499 676 530 658.5 Q561 641 582.5 620.5 Q604 600 617 583 Q638 554 638 537 Q638 524 630 518.5 Q622 513 614 513 Q598 513 591 525 Q576 547 554.5 569.5 Q533 592 506 609.5 Q479 627 446 638 Q413 649 373 649 Q313 649 264.5 625 Q216 601 182 560 Q148 519 130 464 Q112 409 112 347 Q112 285 130.5 229.5 Q149 174 183 132 Q217 90 265.5 65.5 Q314 41 375 41 Q444 41 498 73 Q552 105 588 160 Q598 175 610 175 Q619 175 627 168 Q635 161 635 150 Q635 146 633.5 140 Q632 134 627 127 Q617 112 597 88.5 Q577 65 546 43 Q515 21 472 5.5 Q429 -10 373 -10 Q305 -10 247 15 Z M237 871 Q225 883 225 891 Q225 897 230 902 Q235 907 242 907 Q248 907 260 898 L368 810 L476 898 Q488 907 494 907 Q501 907 506 902 Q511 897 511 891 Q511 883 499 871 L391 765 Q381 755 368 755 Q358 755 346 765 L237 871 Z " />
<glyph glyph-name="Ccircumflex" unicode="&#x108;" horiz-adv-x="691" d="M247 15 Q190 41 148 87.5 Q106 134 82 200 Q58 266 58 346 Q58 426 82 491.5 Q106 557 148 603.5 Q190 650 247.5 675 Q305 700 373 700 Q421 700 460 688 Q499 676 530 658.5 Q561 641 582.5 620.5 Q604 600 617 583 Q638 554 638 537 Q638 524 630 518.5 Q622 513 614 513 Q598 513 591 525 Q576 547 554.5 569.5 Q533 592 506 609.5 Q479 627 446 638 Q413 649 373 649 Q313 649 264.5 625 Q216 601 182 560 Q148 519 130 464 Q112 409 112 347 Q112 285 130.5 229.5 Q149 174 183 132 Q217 90 265.5 65.5 Q314 41 375 41 Q444 41 498 73 Q552 105 588 160 Q598 175 610 175 Q619 175 627 168 Q635 161 635 150 Q635 146 633.5 140 Q632 134 627 127 Q617 112 597 88.5 Q577 65 546 43 Q515 21 472 5.5 Q429 -10 373 -10 Q305 -10 247 15 Z M260 764 Q253 759 249.5 757 Q246 755 242 755 Q235 755 230 760 Q225 765 225 772 Q225 779 237 791 L346 897 Q356 907 368 907 Q382 907 391 897 L499 791 Q511 779 511 772 Q511 765 506 760 Q501 755 494 755 Q489 755 476 764 L368 853 L260 764 Z " />
<glyph glyph-name="Cdotaccent" unicode="&#x10a;" horiz-adv-x="691" d="M247 15 Q190 41 148 87.5 Q106 134 82 200 Q58 266 58 346 Q58 426 82 491.5 Q106 557 148 603.5 Q190 650 247.5 675 Q305 700 373 700 Q421 700 460 688 Q499 676 530 658.5 Q561 641 582.5 620.5 Q604 600 617 583 Q638 554 638 537 Q638 524 630 518.5 Q622 513 614 513 Q598 513 591 525 Q576 547 554.5 569.5 Q533 592 506 609.5 Q479 627 446 638 Q413 649 373 649 Q313 649 264.5 625 Q216 601 182 560 Q148 519 130 464 Q112 409 112 347 Q112 285 130.5 229.5 Q149 174 183 132 Q217 90 265.5 65.5 Q314 41 375 41 Q444 41 498 73 Q552 105 588 160 Q598 175 610 175 Q619 175 627 168 Q635 161 635 150 Q635 146 633.5 140 Q632 134 627 127 Q617 112 597 88.5 Q577 65 546 43 Q515 21 472 5.5 Q429 -10 373 -10 Q305 -10 247 15 Z M340 822 Q330 832 330 850 Q330 889 367 889 Q384 889 394.5 879 Q405 869 405 850 Q405 831 394.5 822 Q384 813 367 813 Q350 813 340 822 Z " />
<glyph glyph-name="Dcaron" unicode="&#x10e;" horiz-adv-x="677" d="M117 0 Q91 0 91 26 L91 664 Q91 690 118 690 L320 690 Q389 690 444.5 664.5 Q500 639 539 593.5 Q578 548 598.5 485.5 Q619 423 619 350 Q619 279 598 215.5 Q577 152 538.5 104 Q500 56 444.5 28 Q389 0 320 0 L117 0 Z M144 47 L316 47 Q373 47 419 70.5 Q465 94 497.5 135.5 Q530 177 547.5 232 Q565 287 565 350 Q565 413 547.5 466.5 Q530 520 497 559 Q464 598 417 620.5 Q370 643 311 643 L144 643 L144 47 Z M158 871 Q146 883 146 891 Q146 897 151 902 Q156 907 163 907 Q169 907 181 898 L289 810 L397 898 Q409 907 415 907 Q422 907 427 902 Q432 897 432 891 Q432 883 420 871 L312 765 Q302 755 289 755 Q279 755 267 765 L158 871 Z " />
<glyph glyph-name="Dcroat" unicode="&#x110;" horiz-adv-x="677" d="M117 0 Q91 0 91 26 L91 332 L36 332 Q25 332 17 339 Q9 346 9 357 Q9 369 17 375.5 Q25 382 36 382 L91 382 L91 664 Q91 690 118 690 L320 690 Q389 690 444.5 664.5 Q500 639 539 593.5 Q578 548 598.5 485.5 Q619 423 619 350 Q619 279 598 215.5 Q577 152 538.5 104 Q500 56 444.5 28 Q389 0 320 0 L117 0 Z M144 47 L316 47 Q373 47 419 70.5 Q465 94 497.5 135.5 Q530 177 547.5 232 Q565 287 565 350 Q565 413 547.5 466.5 Q530 520 497 559 Q464 598 417 620.5 Q370 643 311 643 L144 643 L144 382 L293 382 Q304 382 312 375.5 Q320 369 320 357 Q320 346 312 339 Q304 332 293 332 L144 332 L144 47 Z " />
<glyph glyph-name="Eacute" unicode="&#xc9;" horiz-adv-x="572" d="M118 0 Q91 0 91 26 L91 664 Q91 675 98.5 682.5 Q106 690 119 690 L504 690 Q515 690 522 683.5 Q529 677 529 667 Q529 656 522 649.5 Q515 643 504 643 L144 643 L144 378 L397 378 Q408 378 415.5 372 Q423 366 423 355 Q423 344 415.5 338 Q408 332 397 332 L144 332 L144 47 L504 47 Q515 47 522 40.5 Q529 34 529 23 Q529 13 522 6.5 Q515 0 504 0 L118 0 Z M257 759 Q252 755 245 755 Q237 755 232.5 760 Q228 765 228 772 Q228 781 235 787 L333 881 Q341 889 351.5 898 Q362 907 374 907 Q385 907 394 899 Q403 891 403 878 Q403 864 390 855 L257 759 Z " />
<glyph glyph-name="Ecircumflex" unicode="&#xca;" horiz-adv-x="572" d="M118 0 Q91 0 91 26 L91 664 Q91 675 98.5 682.5 Q106 690 119 690 L504 690 Q515 690 522 683.5 Q529 677 529 667 Q529 656 522 649.5 Q515 643 504 643 L144 643 L144 378 L397 378 Q408 378 415.5 372 Q423 366 423 355 Q423 344 415.5 338 Q408 332 397 332 L144 332 L144 47 L504 47 Q515 47 522 40.5 Q529 34 529 23 Q529 13 522 6.5 Q515 0 504 0 L118 0 Z M207 764 Q200 759 196.5 757 Q193 755 189 755 Q182 755 177 760 Q172 765 172 772 Q172 779 184 791 L293 897 Q303 907 315 907 Q329 907 338 897 L446 791 Q458 779 458 772 Q458 765 453 760 Q448 755 441 755 Q436 755 423 764 L315 853 L207 764 Z " />
<glyph glyph-name="Edieresis" unicode="&#xcb;" horiz-adv-x="572" d="M118 0 Q91 0 91 26 L91 664 Q91 675 98.5 682.5 Q106 690 119 690 L504 690 Q515 690 522 683.5 Q529 677 529 667 Q529 656 522 649.5 Q515 643 504 643 L144 643 L144 378 L397 378 Q408 378 415.5 372 Q423 366 423 355 Q423 344 415.5 338 Q408 332 397 332 L144 332 L144 47 L504 47 Q515 47 522 40.5 Q529 34 529 23 Q529 13 522 6.5 Q515 0 504 0 L118 0 Z M241 800 Q205 800 205 835 Q205 872 241 872 Q256 872 266.5 862.5 Q277 853 277 835 Q277 800 241 800 Z M387 800 Q351 800 351 836 Q351 872 387 872 Q402 872 412.5 862.5 Q423 853 423 836 Q423 800 387 800 Z " />
<glyph glyph-name="Egrave" unicode="&#xc8;" horiz-adv-x="572" d="M118 0 Q91 0 91 26 L91 664 Q91 675 98.5 682.5 Q106 690 119 690 L504 690 Q515 690 522 683.5 Q529 677 529 667 Q529 656 522 649.5 Q515 643 504 643 L144 643 L144 378 L397 378 Q408 378 415.5 372 Q423 366 423 355 Q423 344 415.5 338 Q408 332 397 332 L144 332 L144 47 L504 47 Q515 47 522 40.5 Q529 34 529 23 Q529 13 522 6.5 Q515 0 504 0 L118 0 Z M241 855 Q228 864 228 878 Q228 891 237 899 Q246 907 257 907 Q269 907 279.5 898 Q290 889 298 881 L396 787 Q403 781 403 772 Q403 765 398 760 Q393 755 386 755 Q379 755 374 759 L241 855 Z " />
<glyph glyph-name="Ebreve" unicode="&#x114;" horiz-adv-x="572" d="M118 0 Q91 0 91 26 L91 664 Q91 675 98.5 682.5 Q106 690 119 690 L504 690 Q515 690 522 683.5 Q529 677 529 667 Q529 656 522 649.5 Q515 643 504 643 L144 643 L144 378 L397 378 Q408 378 415.5 372 Q423 366 423 355 Q423 344 415.5 338 Q408 332 397 332 L144 332 L144 47 L504 47 Q515 47 522 40.5 Q529 34 529 23 Q529 13 522 6.5 Q515 0 504 0 L118 0 Z M363 829 Q384 848 394 882 Q397 897 413 897 Q423 897 428 891.5 Q433 886 433 878 Q433 858 424 839 Q415 820 398.5 804 Q382 788 358 778.5 Q334 769 305 769 Q276 769 252.5 778.5 Q229 788 212.5 804 Q196 820 187 839 Q178 858 178 878 Q178 886 182.5 891.5 Q187 897 198 897 Q212 897 217 882 Q227 848 248 829 Q269 810 305 810 Q342 810 363 829 Z " />
<glyph glyph-name="Ecaron" unicode="&#x11a;" horiz-adv-x="572" d="M118 0 Q91 0 91 26 L91 664 Q91 675 98.5 682.5 Q106 690 119 690 L504 690 Q515 690 522 683.5 Q529 677 529 667 Q529 656 522 649.5 Q515 643 504 643 L144 643 L144 378 L397 378 Q408 378 415.5 372 Q423 366 423 355 Q423 344 415.5 338 Q408 332 397 332 L144 332 L144 47 L504 47 Q515 47 522 40.5 Q529 34 529 23 Q529 13 522 6.5 Q515 0 504 0 L118 0 Z M184 871 Q172 883 172 891 Q172 897 177 902 Q182 907 189 907 Q195 907 207 898 L315 810 L423 898 Q435 907 441 907 Q448 907 453 902 Q458 897 458 891 Q458 883 446 871 L338 765 Q328 755 315 755 Q305 755 293 765 L184 871 Z " />
<glyph glyph-name="Edotaccent" unicode="&#x116;" horiz-adv-x="572" d="M118 0 Q91 0 91 26 L91 664 Q91 675 98.5 682.5 Q106 690 119 690 L504 690 Q515 690 522 683.5 Q529 677 529 667 Q529 656 522 649.5 Q515 643 504 643 L144 643 L144 378 L397 378 Q408 378 415.5 372 Q423 366 423 355 Q423 344 415.5 338 Q408 332 397 332 L144 332 L144 47 L504 47 Q515 47 522 40.5 Q529 34 529 23 Q529 13 522 6.5 Q515 0 504 0 L118 0 Z M287 822 Q277 832 277 850 Q277 889 314 889 Q331 889 341.5 879 Q352 869 352 850 Q352 831 341.5 822 Q331 813 314 813 Q297 813 287 822 Z " />
<glyph glyph-name="Emacron" unicode="&#x112;" horiz-adv-x="572" d="M118 0 Q91 0 91 26 L91 664 Q91 675 98.5 682.5 Q106 690 119 690 L504 690 Q515 690 522 683.5 Q529 677 529 667 Q529 656 522 649.5 Q515 643 504 643 L144 643 L144 378 L397 378 Q408 378 415.5 372 Q423 366 423 355 Q423 344 415.5 338 Q408 332 397 332 L144 332 L144 47 L504 47 Q515 47 522 40.5 Q529 34 529 23 Q529 13 522 6.5 Q515 0 504 0 L118 0 Z M213 828 Q202 828 195 835 Q188 842 188 852 Q188 863 195 869.5 Q202 876 213 876 L415 876 Q426 876 433 869.5 Q440 863 440 852 Q440 842 433 835 Q426 828 415 828 L213 828 Z " />
<glyph glyph-name="Eogonek" unicode="&#x118;" horiz-adv-x="572" d="M118 0 Q91 0 91 26 L91 664 Q91 675 98.5 682.5 Q106 690 119 690 L504 690 Q515 690 522 683.5 Q529 677 529 667 Q529 656 522 649.5 Q515 643 504 643 L144 643 L144 378 L397 378 Q408 378 415.5 372 Q423 366 423 355 Q423 344 415.5 338 Q408 332 397 332 L144 332 L144 47 L504 47 Q515 47 522 40.5 Q529 34 529 23 Q529 13 522 6.5 Q515 0 504 0 L502 0 Q461 -30 443.5 -60 Q426 -90 426 -116 Q426 -142 441 -156 Q456 -170 479 -171 Q492 -171 500 -175.5 Q508 -180 508 -190 Q508 -203 499.5 -207.5 Q491 -212 474 -212 Q435 -212 407.5 -191 Q380 -170 380 -126 Q380 -87 404 -55 Q428 -23 460 0 L118 0 Z " />
<glyph glyph-name="Gbreve" unicode="&#x11e;" horiz-adv-x="717" d="M428 285 Q416 285 409 291.5 Q402 298 402 309 Q402 319 409 325.5 Q416 332 428 332 L625 332 Q644 332 651.5 319.5 Q659 307 659 283 Q659 221 639.5 167.5 Q620 114 583 74.5 Q546 35 493 12.5 Q440 -10 373 -10 Q306 -10 248.5 15.5 Q191 41 148.5 87.5 Q106 134 82 199.5 Q58 265 58 345 Q58 425 82 490.5 Q106 556 148.5 602.5 Q191 649 248.5 674.5 Q306 700 374 700 Q539 700 624 572 Q633 561 636.5 552.5 Q640 544 640 538 Q640 527 633 520 Q626 513 617 513 Q609 513 602.5 517 Q596 521 585 536 Q543 596 492.5 622.5 Q442 649 374 649 Q313 649 264.5 624.5 Q216 600 182 558.5 Q148 517 130 461.5 Q112 406 112 344 Q112 282 130.5 227 Q149 172 183.5 130.5 Q218 89 266 65 Q314 41 374 41 Q427 41 471 58.5 Q515 76 545.5 108.5 Q576 141 592 186 Q608 231 606 285 L428 285 Z M417 829 Q438 848 448 882 Q451 897 467 897 Q477 897 482 891.5 Q487 886 487 878 Q487 858 478 839 Q469 820 452.5 804 Q436 788 412 778.5 Q388 769 359 769 Q330 769 306.5 778.5 Q283 788 266.5 804 Q250 820 241 839 Q232 858 232 878 Q232 886 236.5 891.5 Q241 897 252 897 Q266 897 271 882 Q281 848 302 829 Q323 810 359 810 Q396 810 417 829 Z " />
<glyph glyph-name="Gcircumflex" unicode="&#x11c;" horiz-adv-x="717" d="M428 285 Q416 285 409 291.5 Q402 298 402 309 Q402 319 409 325.5 Q416 332 428 332 L625 332 Q644 332 651.5 319.5 Q659 307 659 283 Q659 221 639.5 167.5 Q620 114 583 74.5 Q546 35 493 12.5 Q440 -10 373 -10 Q306 -10 248.5 15.5 Q191 41 148.5 87.5 Q106 134 82 199.5 Q58 265 58 345 Q58 425 82 490.5 Q106 556 148.5 602.5 Q191 649 248.5 674.5 Q306 700 374 700 Q539 700 624 572 Q633 561 636.5 552.5 Q640 544 640 538 Q640 527 633 520 Q626 513 617 513 Q609 513 602.5 517 Q596 521 585 536 Q543 596 492.5 622.5 Q442 649 374 649 Q313 649 264.5 624.5 Q216 600 182 558.5 Q148 517 130 461.5 Q112 406 112 344 Q112 282 130.5 227 Q149 172 183.5 130.5 Q218 89 266 65 Q314 41 374 41 Q427 41 471 58.5 Q515 76 545.5 108.5 Q576 141 592 186 Q608 231 606 285 L428 285 Z M261 764 Q254 759 250.5 757 Q247 755 243 755 Q236 755 231 760 Q226 765 226 772 Q226 779 238 791 L347 897 Q357 907 369 907 Q383 907 392 897 L500 791 Q512 779 512 772 Q512 765 507 760 Q502 755 495 755 Q490 755 477 764 L369 853 L261 764 Z " />
<glyph glyph-name="Gcommaaccent" unicode="&#x122;" horiz-adv-x="717" d="M428 285 Q416 285 409 291.5 Q402 298 402 309 Q402 319 409 325.5 Q416 332 428 332 L625 332 Q644 332 651.5 319.5 Q659 307 659 283 Q659 221 639.5 167.5 Q620 114 583 74.5 Q546 35 493 12.5 Q440 -10 373 -10 Q306 -10 248.5 15.5 Q191 41 148.5 87.5 Q106 134 82 199.5 Q58 265 58 345 Q58 425 82 490.5 Q106 556 148.5 602.5 Q191 649 248.5 674.5 Q306 700 374 700 Q539 700 624 572 Q633 561 636.5 552.5 Q640 544 640 538 Q640 527 633 520 Q626 513 617 513 Q609 513 602.5 517 Q596 521 585 536 Q543 596 492.5 622.5 Q442 649 374 649 Q313 649 264.5 624.5 Q216 600 182 558.5 Q148 517 130 461.5 Q112 406 112 344 Q112 282 130.5 227 Q149 172 183.5 130.5 Q218 89 266 65 Q314 41 374 41 Q427 41 471 58.5 Q515 76 545.5 108.5 Q576 141 592 186 Q608 231 606 285 L428 285 Z M359 -192 Q376 -169 375 -138 Q326 -138 326 -95 Q326 -75 337.5 -63.5 Q349 -52 368 -52 Q388 -52 401 -65.5 Q414 -79 414 -111 Q414 -148 404.5 -174.5 Q395 -201 381 -218.5 Q367 -236 351.5 -244 Q336 -252 325 -252 Q310 -252 310 -237 Q310 -227 322 -222 Q342 -215 359 -192 Z " />
<glyph glyph-name="Gdotaccent" unicode="&#x120;" horiz-adv-x="717" d="M428 285 Q416 285 409 291.5 Q402 298 402 309 Q402 319 409 325.5 Q416 332 428 332 L625 332 Q644 332 651.5 319.5 Q659 307 659 283 Q659 221 639.5 167.5 Q620 114 583 74.5 Q546 35 493 12.5 Q440 -10 373 -10 Q306 -10 248.5 15.5 Q191 41 148.5 87.5 Q106 134 82 199.5 Q58 265 58 345 Q58 425 82 490.5 Q106 556 148.5 602.5 Q191 649 248.5 674.5 Q306 700 374 700 Q539 700 624 572 Q633 561 636.5 552.5 Q640 544 640 538 Q640 527 633 520 Q626 513 617 513 Q609 513 602.5 517 Q596 521 585 536 Q543 596 492.5 622.5 Q442 649 374 649 Q313 649 264.5 624.5 Q216 600 182 558.5 Q148 517 130 461.5 Q112 406 112 344 Q112 282 130.5 227 Q149 172 183.5 130.5 Q218 89 266 65 Q314 41 374 41 Q427 41 471 58.5 Q515 76 545.5 108.5 Q576 141 592 186 Q608 231 606 285 L428 285 Z M341 822 Q331 832 331 850 Q331 889 368 889 Q385 889 395.5 879 Q406 869 406 850 Q406 831 395.5 822 Q385 813 368 813 Q351 813 341 822 Z " />
<glyph glyph-name="Hbar" unicode="&#x126;" horiz-adv-x="707" d="M144 26 Q144 0 118 0 Q106 0 98.5 7 Q91 14 91 26 L91 537 L79 537 Q54 537 54 559 Q54 581 79 581 L91 581 L91 664 Q91 675 98.5 682.5 Q106 690 118 690 Q130 690 137 682.5 Q144 675 144 664 L144 581 L563 581 L563 664 Q563 675 570 682.5 Q577 690 589 690 Q601 690 608 682.5 Q615 675 615 664 L615 581 L627 581 Q652 581 652 559 Q652 537 627 537 L615 537 L615 26 Q615 0 589 0 Q563 0 563 26 L563 332 L144 332 L144 26 Z M144 379 L563 379 L563 537 L144 537 L144 379 Z " />
<glyph glyph-name="Hcircumflex" unicode="&#x124;" horiz-adv-x="707" d="M144 26 Q144 0 118 0 Q106 0 98.5 7 Q91 14 91 26 L91 664 Q91 675 98.5 682.5 Q106 690 118 690 Q130 690 137 682.5 Q144 675 144 664 L144 379 L563 379 L563 664 Q563 675 570 682.5 Q577 690 589 690 Q601 690 608 682.5 Q615 675 615 664 L615 26 Q615 0 589 0 Q563 0 563 26 L563 332 L144 332 L144 26 Z M246 764 Q239 759 235.5 757 Q232 755 228 755 Q221 755 216 760 Q211 765 211 772 Q211 779 223 791 L332 897 Q342 907 354 907 Q368 907 377 897 L485 791 Q497 779 497 772 Q497 765 492 760 Q487 755 480 755 Q475 755 462 764 L354 853 L246 764 Z " />
<glyph glyph-name="Iacute" unicode="&#xcd;" horiz-adv-x="236" d="M144 26 Q144 0 118 0 Q106 0 98.5 7 Q91 14 91 26 L91 664 Q91 675 98.5 682.5 Q106 690 118 690 Q130 690 137 682.5 Q144 675 144 664 L144 26 Z M61 759 Q56 755 49 755 Q41 755 36.5 760 Q32 765 32 772 Q32 781 39 787 L137 881 Q145 889 155.5 898 Q166 907 178 907 Q189 907 198 899 Q207 891 207 878 Q207 864 194 855 L61 759 Z " />
<glyph glyph-name="Icircumflex" unicode="&#xce;" horiz-adv-x="236" d="M144 26 Q144 0 118 0 Q106 0 98.5 7 Q91 14 91 26 L91 664 Q91 675 98.5 682.5 Q106 690 118 690 Q130 690 137 682.5 Q144 675 144 664 L144 26 Z M11 764 Q4 759 0.5 757 Q-3 755 -7 755 Q-14 755 -19 760 Q-24 765 -24 772 Q-24 779 -12 791 L97 897 Q107 907 119 907 Q133 907 142 897 L250 791 Q262 779 262 772 Q262 765 257 760 Q252 755 245 755 Q240 755 227 764 L119 853 L11 764 Z " />
<glyph glyph-name="Idieresis" unicode="&#xcf;" horiz-adv-x="236" d="M144 26 Q144 0 118 0 Q106 0 98.5 7 Q91 14 91 26 L91 664 Q91 675 98.5 682.5 Q106 690 118 690 Q130 690 137 682.5 Q144 675 144 664 L144 26 Z M45 800 Q9 800 9 835 Q9 872 45 872 Q60 872 70.5 862.5 Q81 853 81 835 Q81 800 45 800 Z M191 800 Q155 800 155 836 Q155 872 191 872 Q206 872 216.5 862.5 Q227 853 227 836 Q227 800 191 800 Z " />
<glyph glyph-name="Igrave" unicode="&#xcc;" horiz-adv-x="236" d="M144 26 Q144 0 118 0 Q106 0 98.5 7 Q91 14 91 26 L91 664 Q91 675 98.5 682.5 Q106 690 118 690 Q130 690 137 682.5 Q144 675 144 664 L144 26 Z M45 855 Q32 864 32 878 Q32 891 41 899 Q50 907 61 907 Q73 907 83.5 898 Q94 889 102 881 L200 787 Q207 781 207 772 Q207 765 202 760 Q197 755 190 755 Q183 755 178 759 L45 855 Z " />
<glyph glyph-name="Ibreve" unicode="&#x12c;" horiz-adv-x="236" d="M144 26 Q144 0 118 0 Q106 0 98.5 7 Q91 14 91 26 L91 664 Q91 675 98.5 682.5 Q106 690 118 690 Q130 690 137 682.5 Q144 675 144 664 L144 26 Z M167 829 Q188 848 198 882 Q201 897 217 897 Q227 897 232 891.5 Q237 886 237 878 Q237 858 228 839 Q219 820 202.5 804 Q186 788 162 778.5 Q138 769 109 769 Q80 769 56.5 778.5 Q33 788 16.5 804 Q0 820 -9 839 Q-18 858 -18 878 Q-18 886 -13.5 891.5 Q-9 897 2 897 Q16 897 21 882 Q31 848 52 829 Q73 810 109 810 Q146 810 167 829 Z " />
<glyph glyph-name="Idotaccent" unicode="&#x130;" horiz-adv-x="236" d="M144 26 Q144 0 118 0 Q106 0 98.5 7 Q91 14 91 26 L91 664 Q91 675 98.5 682.5 Q106 690 118 690 Q130 690 137 682.5 Q144 675 144 664 L144 26 Z M91 822 Q81 832 81 850 Q81 889 118 889 Q135 889 145.5 879 Q156 869 156 850 Q156 831 145.5 822 Q135 813 118 813 Q101 813 91 822 Z " />
<glyph glyph-name="Imacron" unicode="&#x12a;" horiz-adv-x="236" d="M144 26 Q144 0 118 0 Q106 0 98.5 7 Q91 14 91 26 L91 664 Q91 675 98.5 682.5 Q106 690 118 690 Q130 690 137 682.5 Q144 675 144 664 L144 26 Z M17 828 Q6 828 -1 835 Q-8 842 -8 852 Q-8 863 -1 869.5 Q6 876 17 876 L219 876 Q230 876 237 869.5 Q244 863 244 852 Q244 842 237 835 Q230 828 219 828 L17 828 Z " />
<glyph glyph-name="Iogonek" unicode="&#x12e;" horiz-adv-x="236" d="M144 26 Q144 2 121 0 Q80 -30 62.5 -60 Q45 -90 45 -116 Q45 -142 60 -156 Q75 -170 98 -171 Q112 -171 120 -175.5 Q128 -180 128 -190 Q128 -203 119.5 -207.5 Q111 -212 94 -212 Q55 -212 27.5 -191 Q0 -170 0 -126 Q0 -104 8 -84.5 Q16 -65 29.5 -48 Q43 -31 60 -16 Q77 -1 95 11 Q91 16 91 26 L91 664 Q91 675 98.5 682.5 Q106 690 118 690 Q130 690 137 682.5 Q144 675 144 664 L144 26 Z " />
<glyph glyph-name="Itilde" unicode="&#x128;" horiz-adv-x="236" d="M144 26 Q144 0 118 0 Q106 0 98.5 7 Q91 14 91 26 L91 664 Q91 675 98.5 682.5 Q106 690 118 690 Q130 690 137 682.5 Q144 675 144 664 L144 26 Z M216 843 Q227 851 238 866 Q245 878 256 878 Q264 878 270.5 872 Q277 866 277 856 Q277 846 270 836 Q256 815 236.5 802 Q217 789 191 789 Q168 789 152 796 Q136 803 121.5 811 Q107 819 92.5 826 Q78 833 59 833 Q36 833 22.5 824 Q9 815 -1 803 Q-5 799 -9 796.5 Q-13 794 -19 794 Q-28 794 -34.5 799.5 Q-41 805 -41 813 Q-41 822 -33 832 Q-16 852 4 865 Q24 878 58 878 Q80 878 96.5 871.5 Q113 865 127.5 856.5 Q142 848 156.5 841.5 Q171 835 188 835 Q205 835 216 843 Z " />
<glyph glyph-name="Jcircumflex" unicode="&#x134;" horiz-adv-x="549" d="M463 208 Q463 152 446 111 Q429 70 399.5 43 Q370 16 331.5 3 Q293 -10 250 -10 Q204 -10 171 2.5 Q138 15 114.5 33.5 Q91 52 76.5 74.5 Q62 97 52 117 Q47 125 45 132.5 Q43 140 43 145 Q43 157 51 164 Q59 171 70 171 Q84 171 94 151 Q103 131 115 111 Q127 91 145 75.5 Q163 60 188.5 50.5 Q214 41 251 41 Q279 41 307 49 Q335 57 358 76.5 Q381 96 395.5 128 Q410 160 410 208 L410 665 Q410 676 417.5 683 Q425 690 436 690 Q448 690 455.5 683 Q463 676 463 664 L463 208 Z M326 764 Q319 759 315.5 757 Q312 755 308 755 Q301 755 296 760 Q291 765 291 772 Q291 779 303 791 L412 897 Q422 907 434 907 Q448 907 457 897 L565 791 Q577 779 577 772 Q577 765 572 760 Q567 755 560 755 Q555 755 542 764 L434 853 L326 764 Z " />
<glyph glyph-name="IJ" unicode="&#x132;" horiz-adv-x="785" d="M144 26 Q144 0 118 0 Q106 0 98.5 7 Q91 14 91 26 L91 664 Q91 675 98.5 682.5 Q106 690 118 690 Q130 690 137 682.5 Q144 675 144 664 L144 26 Z M699 208 Q699 152 682 111 Q665 70 635.5 43 Q606 16 567.5 3 Q529 -10 486 -10 Q440 -10 407 2.5 Q374 15 350.5 33.5 Q327 52 312.5 74.5 Q298 97 288 117 Q283 125 281 132.5 Q279 140 279 145 Q279 157 287 164 Q295 171 306 171 Q320 171 330 151 Q339 131 351 111 Q363 91 381 75.5 Q399 60 424.5 50.5 Q450 41 487 41 Q515 41 543 49 Q571 57 594 76.5 Q617 96 631.5 128 Q646 160 646 208 L646 665 Q646 676 653.5 683 Q661 690 672 690 Q684 690 691.5 683 Q699 676 699 664 L699 208 Z " />
<glyph glyph-name="Kcommaaccent" unicode="&#x136;" horiz-adv-x="600" d="M144 26 Q144 15 137 7.5 Q130 0 118 0 Q106 0 98.5 7.5 Q91 15 91 26 L91 664 Q91 675 98.5 682.5 Q106 690 118 690 Q130 690 137 682.5 Q144 675 144 664 L144 304 L478 679 Q486 690 500 690 Q510 690 517.5 682.5 Q525 675 525 665 Q525 659 523 654 Q521 649 515 642 L271 369 L546 49 Q553 41 555 36.5 Q557 32 557 26 Q557 14 548.5 7 Q540 0 531 0 Q517 0 507 12 L233 331 L144 233 L144 26 Z M303 -192 Q320 -169 319 -138 Q270 -138 270 -95 Q270 -75 281.5 -63.5 Q293 -52 312 -52 Q332 -52 345 -65.5 Q358 -79 358 -111 Q358 -148 348.5 -174.5 Q339 -201 325 -218.5 Q311 -236 295.5 -244 Q280 -252 269 -252 Q254 -252 254 -237 Q254 -227 266 -222 Q286 -215 303 -192 Z " />
<glyph glyph-name="Lacute" unicode="&#x139;" horiz-adv-x="540" d="M119 0 Q91 0 91 26 L91 664 Q91 675 98.5 682.5 Q106 690 118 690 Q130 690 137 682.5 Q144 675 144 664 L144 47 L482 47 Q493 47 500 40.5 Q507 34 507 23 Q507 13 500 6.5 Q493 0 482 0 L119 0 Z M124 759 Q119 755 112 755 Q104 755 99.5 760 Q95 765 95 772 Q95 781 102 787 L200 881 Q208 889 218.5 898 Q229 907 241 907 Q252 907 261 899 Q270 891 270 878 Q270 864 257 855 L124 759 Z " />
<glyph glyph-name="Lcaron" unicode="&#x13d;" horiz-adv-x="540" d="M119 0 Q91 0 91 26 L91 664 Q91 675 98.5 682.5 Q106 690 118 690 Q130 690 137 682.5 Q144 675 144 664 L144 47 L482 47 Q493 47 500 40.5 Q507 34 507 23 Q507 13 500 6.5 Q493 0 482 0 L119 0 Z M305 608 Q322 631 321 662 Q272 662 272 705 Q272 725 283.5 736.5 Q295 748 314 748 Q334 748 347 734.5 Q360 721 360 689 Q360 652 350.5 625.5 Q341 599 327 581.5 Q313 564 297.5 556 Q282 548 271 548 Q256 548 256 563 Q256 573 268 578 Q288 585 305 608 Z " />
<glyph glyph-name="Lcommaaccent" unicode="&#x13b;" horiz-adv-x="540" d="M119 0 Q91 0 91 26 L91 664 Q91 675 98.5 682.5 Q106 690 118 690 Q130 690 137 682.5 Q144 675 144 664 L144 47 L482 47 Q493 47 500 40.5 Q507 34 507 23 Q507 13 500 6.5 Q493 0 482 0 L119 0 Z M291 -192 Q308 -169 307 -138 Q258 -138 258 -95 Q258 -75 269.5 -63.5 Q281 -52 300 -52 Q320 -52 333 -65.5 Q346 -79 346 -111 Q346 -148 336.5 -174.5 Q327 -201 313 -218.5 Q299 -236 283.5 -244 Q268 -252 257 -252 Q242 -252 242 -237 Q242 -227 254 -222 Q274 -215 291 -192 Z " />
<glyph glyph-name="Ldot" unicode="&#x13f;" horiz-adv-x="540" d="M119 0 Q91 0 91 26 L91 664 Q91 675 98.5 682.5 Q106 690 118 690 Q130 690 137 682.5 Q144 675 144 664 L144 47 L482 47 Q493 47 500 40.5 Q507 34 507 23 Q507 13 500 6.5 Q493 0 482 0 L119 0 Z M378 317 Q341 317 341 354 Q341 392 378 392 Q395 392 405.5 382 Q416 372 416 354 Q416 335 405.5 326 Q395 317 378 317 Z " />
<glyph glyph-name="Ntilde" unicode="&#xd1;" horiz-adv-x="686" d="M144 25 Q144 0 118 0 Q106 0 98.5 7 Q91 14 91 25 L91 656 Q91 690 115 690 Q129 690 140 676 L541 107 L541 664 Q541 675 548.5 682 Q556 689 568 689 Q579 689 586.5 682 Q594 675 594 664 L594 25 Q594 0 571 0 Q557 0 545 15 L144 581 L144 25 Z M441 843 Q452 851 463 866 Q470 878 481 878 Q489 878 495.5 872 Q502 866 502 856 Q502 846 495 836 Q481 815 461.5 802 Q442 789 416 789 Q393 789 377 796 Q361 803 346.5 811 Q332 819 317.5 826 Q303 833 284 833 Q261 833 247.5 824 Q234 815 224 803 Q220 799 216 796.5 Q212 794 206 794 Q197 794 190.5 799.5 Q184 805 184 813 Q184 822 192 832 Q209 852 229 865 Q249 878 283 878 Q305 878 321.5 871.5 Q338 865 352.5 856.5 Q367 848 381.5 841.5 Q396 835 413 835 Q430 835 441 843 Z " />
<glyph glyph-name="Nacute" unicode="&#x143;" horiz-adv-x="686" d="M144 25 Q144 0 118 0 Q106 0 98.5 7 Q91 14 91 25 L91 656 Q91 690 115 690 Q129 690 140 676 L541 107 L541 664 Q541 675 548.5 682 Q556 689 568 689 Q579 689 586.5 682 Q594 675 594 664 L594 25 Q594 0 571 0 Q557 0 545 15 L144 581 L144 25 Z M286 759 Q281 755 274 755 Q266 755 261.5 760 Q257 765 257 772 Q257 781 264 787 L362 881 Q370 889 380.5 898 Q391 907 403 907 Q414 907 423 899 Q432 891 432 878 Q432 864 419 855 L286 759 Z " />
<glyph glyph-name="Ncaron" unicode="&#x147;" horiz-adv-x="686" d="M144 25 Q144 0 118 0 Q106 0 98.5 7 Q91 14 91 25 L91 656 Q91 690 115 690 Q129 690 140 676 L541 107 L541 664 Q541 675 548.5 682 Q556 689 568 689 Q579 689 586.5 682 Q594 675 594 664 L594 25 Q594 0 571 0 Q557 0 545 15 L144 581 L144 25 Z M213 871 Q201 883 201 891 Q201 897 206 902 Q211 907 218 907 Q224 907 236 898 L344 810 L452 898 Q464 907 470 907 Q477 907 482 902 Q487 897 487 891 Q487 883 475 871 L367 765 Q357 755 344 755 Q334 755 322 765 L213 871 Z " />
<glyph glyph-name="Ncommaaccent" unicode="&#x145;" horiz-adv-x="686" d="M144 25 Q144 0 118 0 Q106 0 98.5 7 Q91 14 91 25 L91 656 Q91 690 115 690 Q129 690 140 676 L541 107 L541 664 Q541 675 548.5 682 Q556 689 568 689 Q579 689 586.5 682 Q594 675 594 664 L594 25 Q594 0 571 0 Q557 0 545 15 L144 581 L144 25 Z M317 -192 Q334 -169 333 -138 Q284 -138 284 -95 Q284 -75 295.5 -63.5 Q307 -52 326 -52 Q346 -52 359 -65.5 Q372 -79 372 -111 Q372 -148 362.5 -174.5 Q353 -201 339 -218.5 Q325 -236 309.5 -244 Q294 -252 283 -252 Q268 -252 268 -237 Q268 -227 280 -222 Q300 -215 317 -192 Z " />
<glyph glyph-name="Oacute" unicode="&#xd3;" horiz-adv-x="749" d="M246 16 Q188 43 146 90.5 Q104 138 81 203.5 Q58 269 58 347 Q58 424 81 489 Q104 554 146 601 Q188 648 246 674 Q304 700 374 700 Q444 700 502.5 674 Q561 648 603 601 Q645 554 668 489 Q691 424 691 347 Q691 269 668 203.5 Q645 138 603 90.5 Q561 43 502.5 16.5 Q444 -10 374 -10 Q304 -10 246 16 Z M183 132 Q217 90 265.5 65.5 Q314 41 374 41 Q436 41 484.5 65.5 Q533 90 567 132 Q601 174 618.5 229.5 Q636 285 636 347 Q636 409 618 464 Q600 519 566 560 Q532 601 483.5 625 Q435 649 374 649 Q312 649 263.5 625 Q215 601 181 560 Q147 519 129.5 464 Q112 409 112 347 Q112 285 130.5 229.5 Q149 174 183 132 Z M317 759 Q312 755 305 755 Q297 755 292.5 760 Q288 765 288 772 Q288 781 295 787 L393 881 Q401 889 411.5 898 Q422 907 434 907 Q445 907 454 899 Q463 891 463 878 Q463 864 450 855 L317 759 Z " />
<glyph glyph-name="Ocircumflex" unicode="&#xd4;" horiz-adv-x="749" d="M246 16 Q188 43 146 90.5 Q104 138 81 203.5 Q58 269 58 347 Q58 424 81 489 Q104 554 146 601 Q188 648 246 674 Q304 700 374 700 Q444 700 502.5 674 Q561 648 603 601 Q645 554 668 489 Q691 424 691 347 Q691 269 668 203.5 Q645 138 603 90.5 Q561 43 502.5 16.5 Q444 -10 374 -10 Q304 -10 246 16 Z M183 132 Q217 90 265.5 65.5 Q314 41 374 41 Q436 41 484.5 65.5 Q533 90 567 132 Q601 174 618.5 229.5 Q636 285 636 347 Q636 409 618 464 Q600 519 566 560 Q532 601 483.5 625 Q435 649 374 649 Q312 649 263.5 625 Q215 601 181 560 Q147 519 129.5 464 Q112 409 112 347 Q112 285 130.5 229.5 Q149 174 183 132 Z M267 764 Q260 759 256.5 757 Q253 755 249 755 Q242 755 237 760 Q232 765 232 772 Q232 779 244 791 L353 897 Q363 907 375 907 Q389 907 398 897 L506 791 Q518 779 518 772 Q518 765 513 760 Q508 755 501 755 Q496 755 483 764 L375 853 L267 764 Z " />
<glyph glyph-name="Odieresis" unicode="&#xd6;" horiz-adv-x="749" d="M246 16 Q188 43 146 90.5 Q104 138 81 203.5 Q58 269 58 347 Q58 424 81 489 Q104 554 146 601 Q188 648 246 674 Q304 700 374 700 Q444 700 502.5 674 Q561 648 603 601 Q645 554 668 489 Q691 424 691 347 Q691 269 668 203.5 Q645 138 603 90.5 Q561 43 502.5 16.5 Q444 -10 374 -10 Q304 -10 246 16 Z M183 132 Q217 90 265.5 65.5 Q314 41 374 41 Q436 41 484.5 65.5 Q533 90 567 132 Q601 174 618.5 229.5 Q636 285 636 347 Q636 409 618 464 Q600 519 566 560 Q532 601 483.5 625 Q435 649 374 649 Q312 649 263.5 625 Q215 601 181 560 Q147 519 129.5 464 Q112 409 112 347 Q112 285 130.5 229.5 Q149 174 183 132 Z M301 800 Q265 800 265 835 Q265 872 301 872 Q316 872 326.5 862.5 Q337 853 337 835 Q337 800 301 800 Z M447 800 Q411 800 411 836 Q411 872 447 872 Q462 872 472.5 862.5 Q483 853 483 836 Q483 800 447 800 Z " />
<glyph glyph-name="Ograve" unicode="&#xd2;" horiz-adv-x="749" d="M246 16 Q188 43 146 90.5 Q104 138 81 203.5 Q58 269 58 347 Q58 424 81 489 Q104 554 146 601 Q188 648 246 674 Q304 700 374 700 Q444 700 502.5 674 Q561 648 603 601 Q645 554 668 489 Q691 424 691 347 Q691 269 668 203.5 Q645 138 603 90.5 Q561 43 502.5 16.5 Q444 -10 374 -10 Q304 -10 246 16 Z M183 132 Q217 90 265.5 65.5 Q314 41 374 41 Q436 41 484.5 65.5 Q533 90 567 132 Q601 174 618.5 229.5 Q636 285 636 347 Q636 409 618 464 Q600 519 566 560 Q532 601 483.5 625 Q435 649 374 649 Q312 649 263.5 625 Q215 601 181 560 Q147 519 129.5 464 Q112 409 112 347 Q112 285 130.5 229.5 Q149 174 183 132 Z M301 855 Q288 864 288 878 Q288 891 297 899 Q306 907 317 907 Q329 907 339.5 898 Q350 889 358 881 L456 787 Q463 781 463 772 Q463 765 458 760 Q453 755 446 755 Q439 755 434 759 L301 855 Z " />
<glyph glyph-name="Otilde" unicode="&#xd5;" horiz-adv-x="749" d="M246 16 Q188 43 146 90.5 Q104 138 81 203.5 Q58 269 58 347 Q58 424 81 489 Q104 554 146 601 Q188 648 246 674 Q304 700 374 700 Q444 700 502.5 674 Q561 648 603 601 Q645 554 668 489 Q691 424 691 347 Q691 269 668 203.5 Q645 138 603 90.5 Q561 43 502.5 16.5 Q444 -10 374 -10 Q304 -10 246 16 Z M183 132 Q217 90 265.5 65.5 Q314 41 374 41 Q436 41 484.5 65.5 Q533 90 567 132 Q601 174 618.5 229.5 Q636 285 636 347 Q636 409 618 464 Q600 519 566 560 Q532 601 483.5 625 Q435 649 374 649 Q312 649 263.5 625 Q215 601 181 560 Q147 519 129.5 464 Q112 409 112 347 Q112 285 130.5 229.5 Q149 174 183 132 Z M472 843 Q483 851 494 866 Q501 878 512 878 Q520 878 526.5 872 Q533 866 533 856 Q533 846 526 836 Q512 815 492.5 802 Q473 789 447 789 Q424 789 408 796 Q392 803 377.5 811 Q363 819 348.5 826 Q334 833 315 833 Q292 833 278.5 824 Q265 815 255 803 Q251 799 247 796.5 Q243 794 237 794 Q228 794 221.5 799.5 Q215 805 215 813 Q215 822 223 832 Q240 852 260 865 Q280 878 314 878 Q336 878 352.5 871.5 Q369 865 383.5 856.5 Q398 848 412.5 841.5 Q427 835 444 835 Q461 835 472 843 Z " />
<glyph glyph-name="Obreve" unicode="&#x14e;" horiz-adv-x="749" d="M246 16 Q188 43 146 90.5 Q104 138 81 203.5 Q58 269 58 347 Q58 424 81 489 Q104 554 146 601 Q188 648 246 674 Q304 700 374 700 Q444 700 502.5 674 Q561 648 603 601 Q645 554 668 489 Q691 424 691 347 Q691 269 668 203.5 Q645 138 603 90.5 Q561 43 502.5 16.5 Q444 -10 374 -10 Q304 -10 246 16 Z M183 132 Q217 90 265.5 65.5 Q314 41 374 41 Q436 41 484.5 65.5 Q533 90 567 132 Q601 174 618.5 229.5 Q636 285 636 347 Q636 409 618 464 Q600 519 566 560 Q532 601 483.5 625 Q435 649 374 649 Q312 649 263.5 625 Q215 601 181 560 Q147 519 129.5 464 Q112 409 112 347 Q112 285 130.5 229.5 Q149 174 183 132 Z M423 829 Q444 848 454 882 Q457 897 473 897 Q483 897 488 891.5 Q493 886 493 878 Q493 858 484 839 Q475 820 458.5 804 Q442 788 418 778.5 Q394 769 365 769 Q336 769 312.5 778.5 Q289 788 272.5 804 Q256 820 247 839 Q238 858 238 878 Q238 886 242.5 891.5 Q247 897 258 897 Q272 897 277 882 Q287 848 308 829 Q329 810 365 810 Q402 810 423 829 Z " />
<glyph glyph-name="Ohungarumlaut" unicode="&#x150;" horiz-adv-x="749" d="M246 16 Q188 43 146 90.5 Q104 138 81 203.5 Q58 269 58 347 Q58 424 81 489 Q104 554 146 601 Q188 648 246 674 Q304 700 374 700 Q444 700 502.5 674 Q561 648 603 601 Q645 554 668 489 Q691 424 691 347 Q691 269 668 203.5 Q645 138 603 90.5 Q561 43 502.5 16.5 Q444 -10 374 -10 Q304 -10 246 16 Z M183 132 Q217 90 265.5 65.5 Q314 41 374 41 Q436 41 484.5 65.5 Q533 90 567 132 Q601 174 618.5 229.5 Q636 285 636 347 Q636 409 618 464 Q600 519 566 560 Q532 601 483.5 625 Q435 649 374 649 Q312 649 263.5 625 Q215 601 181 560 Q147 519 129.5 464 Q112 409 112 347 Q112 285 130.5 229.5 Q149 174 183 132 Z M283 759 Q278 755 271 755 Q263 755 258.5 760 Q254 765 254 772 Q254 781 261 787 L359 881 Q367 889 377.5 898 Q388 907 400 907 Q411 907 420 899 Q429 891 429 878 Q429 864 416 855 L283 759 Z M443 759 Q436 755 431 755 Q423 755 418 760 Q413 765 413 772 Q413 780 420 787 L519 881 Q527 889 537.5 898 Q548 907 559 907 Q570 907 579.5 899 Q589 891 589 878 Q589 865 576 855 L443 759 Z " />
<glyph glyph-name="Omacron" unicode="&#x14c;" horiz-adv-x="749" d="M246 16 Q188 43 146 90.5 Q104 138 81 203.5 Q58 269 58 347 Q58 424 81 489 Q104 554 146 601 Q188 648 246 674 Q304 700 374 700 Q444 700 502.5 674 Q561 648 603 601 Q645 554 668 489 Q691 424 691 347 Q691 269 668 203.5 Q645 138 603 90.5 Q561 43 502.5 16.5 Q444 -10 374 -10 Q304 -10 246 16 Z M183 132 Q217 90 265.5 65.5 Q314 41 374 41 Q436 41 484.5 65.5 Q533 90 567 132 Q601 174 618.5 229.5 Q636 285 636 347 Q636 409 618 464 Q600 519 566 560 Q532 601 483.5 625 Q435 649 374 649 Q312 649 263.5 625 Q215 601 181 560 Q147 519 129.5 464 Q112 409 112 347 Q112 285 130.5 229.5 Q149 174 183 132 Z M273 828 Q262 828 255 835 Q248 842 248 852 Q248 863 255 869.5 Q262 876 273 876 L475 876 Q486 876 493 869.5 Q500 863 500 852 Q500 842 493 835 Q486 828 475 828 L273 828 Z " />
<glyph glyph-name="Racute" unicode="&#x154;" horiz-adv-x="600" d="M144 26 Q144 0 118 0 Q106 0 98.5 7 Q91 14 91 26 L91 664 Q91 675 99 682.5 Q107 690 119 690 L308 690 Q421 690 477 635 Q533 580 533 484 Q533 412 491.5 359.5 Q450 307 365 290 L535 52 Q547 36 547 24 Q547 14 539.5 7 Q532 0 521 0 Q504 0 490 20 L308 285 L144 285 L144 26 Z M144 331 L305 331 Q352 331 385 343 Q418 355 439 375.5 Q460 396 470 424 Q480 452 480 484 Q480 559 434.5 601 Q389 643 303 643 L144 643 L144 331 Z M243 759 Q238 755 231 755 Q223 755 218.5 760 Q214 765 214 772 Q214 781 221 787 L319 881 Q327 889 337.5 898 Q348 907 360 907 Q371 907 380 899 Q389 891 389 878 Q389 864 376 855 L243 759 Z " />
<glyph glyph-name="Rcaron" unicode="&#x158;" horiz-adv-x="600" d="M144 26 Q144 0 118 0 Q106 0 98.5 7 Q91 14 91 26 L91 664 Q91 675 99 682.5 Q107 690 119 690 L308 690 Q421 690 477 635 Q533 580 533 484 Q533 412 491.5 359.5 Q450 307 365 290 L535 52 Q547 36 547 24 Q547 14 539.5 7 Q532 0 521 0 Q504 0 490 20 L308 285 L144 285 L144 26 Z M144 331 L305 331 Q352 331 385 343 Q418 355 439 375.5 Q460 396 470 424 Q480 452 480 484 Q480 559 434.5 601 Q389 643 303 643 L144 643 L144 331 Z M159 871 Q147 883 147 891 Q147 897 152 902 Q157 907 164 907 Q170 907 182 898 L290 810 L398 898 Q410 907 416 907 Q423 907 428 902 Q433 897 433 891 Q433 883 421 871 L313 765 Q303 755 290 755 Q280 755 268 765 L159 871 Z " />
<glyph glyph-name="Rcommaaccent" unicode="&#x156;" horiz-adv-x="600" d="M144 26 Q144 0 118 0 Q106 0 98.5 7 Q91 14 91 26 L91 664 Q91 675 99 682.5 Q107 690 119 690 L308 690 Q421 690 477 635 Q533 580 533 484 Q533 412 491.5 359.5 Q450 307 365 290 L535 52 Q547 36 547 24 Q547 14 539.5 7 Q532 0 521 0 Q504 0 490 20 L308 285 L144 285 L144 26 Z M144 331 L305 331 Q352 331 385 343 Q418 355 439 375.5 Q460 396 470 424 Q480 452 480 484 Q480 559 434.5 601 Q389 643 303 643 L144 643 L144 331 Z M284 -192 Q301 -169 300 -138 Q251 -138 251 -95 Q251 -75 262.5 -63.5 Q274 -52 293 -52 Q313 -52 326 -65.5 Q339 -79 339 -111 Q339 -148 329.5 -174.5 Q320 -201 306 -218.5 Q292 -236 276.5 -244 Q261 -252 250 -252 Q235 -252 235 -237 Q235 -227 247 -222 Q267 -215 284 -192 Z " />
<glyph glyph-name="Scaron" unicode="&#x160;" horiz-adv-x="574" d="M130 34 Q102 53 84.5 73 Q67 93 58 107 Q54 112 51 118.5 Q48 125 48 131 Q48 142 56.5 148.5 Q65 155 74 155 Q88 155 97 142 Q108 126 124 108.5 Q140 91 163 76 Q186 61 218 51 Q250 41 294 41 Q330 41 362 51.5 Q394 62 417 80.5 Q440 99 453.5 124.5 Q467 150 467 179 Q467 217 453.5 241.5 Q440 266 414 283 Q388 300 350.5 312 Q313 324 265 336 Q238 343 205 355 Q172 367 142.5 388 Q113 409 93.5 440 Q74 471 74 517 Q74 557 90.5 591 Q107 625 136 649 Q165 673 204 686.5 Q243 700 287 700 Q324 700 354 692.5 Q384 685 406.5 674.5 Q429 664 444.5 652.5 Q460 641 469 634 Q483 625 483 611 Q483 600 475 592.5 Q467 585 458 585 Q449 585 443 588 Q437 591 432 594 Q425 599 413.5 608.5 Q402 618 384.5 627 Q367 636 342 642.5 Q317 649 283 649 Q247 649 218.5 638.5 Q190 628 169.5 610 Q149 592 138.5 568.5 Q128 545 128 519 Q128 486 144 463.5 Q160 441 187 424.5 Q214 408 250.5 396 Q287 384 328 373 Q360 364 394 352.5 Q428 341 456.5 320.5 Q485 300 503.5 267.5 Q522 235 522 185 Q522 147 506.5 112 Q491 77 460.5 50 Q430 23 385.5 6.5 Q341 -10 284 -10 Q234 -10 196 3 Q158 16 130 34 Z M157 871 Q145 883 145 891 Q145 897 150 902 Q155 907 162 907 Q168 907 180 898 L288 810 L396 898 Q408 907 414 907 Q421 907 426 902 Q431 897 431 891 Q431 883 419 871 L311 765 Q301 755 288 755 Q278 755 266 765 L157 871 Z " />
<glyph glyph-name="Sacute" unicode="&#x15a;" horiz-adv-x="574" d="M130 34 Q102 53 84.5 73 Q67 93 58 107 Q54 112 51 118.5 Q48 125 48 131 Q48 142 56.5 148.5 Q65 155 74 155 Q88 155 97 142 Q108 126 124 108.5 Q140 91 163 76 Q186 61 218 51 Q250 41 294 41 Q330 41 362 51.5 Q394 62 417 80.5 Q440 99 453.5 124.5 Q467 150 467 179 Q467 217 453.5 241.5 Q440 266 414 283 Q388 300 350.5 312 Q313 324 265 336 Q238 343 205 355 Q172 367 142.5 388 Q113 409 93.5 440 Q74 471 74 517 Q74 557 90.5 591 Q107 625 136 649 Q165 673 204 686.5 Q243 700 287 700 Q324 700 354 692.5 Q384 685 406.5 674.5 Q429 664 444.5 652.5 Q460 641 469 634 Q483 625 483 611 Q483 600 475 592.5 Q467 585 458 585 Q449 585 443 588 Q437 591 432 594 Q425 599 413.5 608.5 Q402 618 384.5 627 Q367 636 342 642.5 Q317 649 283 649 Q247 649 218.5 638.5 Q190 628 169.5 610 Q149 592 138.5 568.5 Q128 545 128 519 Q128 486 144 463.5 Q160 441 187 424.5 Q214 408 250.5 396 Q287 384 328 373 Q360 364 394 352.5 Q428 341 456.5 320.5 Q485 300 503.5 267.5 Q522 235 522 185 Q522 147 506.5 112 Q491 77 460.5 50 Q430 23 385.5 6.5 Q341 -10 284 -10 Q234 -10 196 3 Q158 16 130 34 Z M230 759 Q225 755 218 755 Q210 755 205.5 760 Q201 765 201 772 Q201 781 208 787 L306 881 Q314 889 324.5 898 Q335 907 347 907 Q358 907 367 899 Q376 891 376 878 Q376 864 363 855 L230 759 Z " />
<glyph glyph-name="Scedilla" unicode="&#x15e;" horiz-adv-x="574" d="M247 -7 Q206 -3 174.5 11 Q143 25 119.5 42 Q96 59 81 76.5 Q66 94 58 107 Q54 112 51 118.5 Q48 125 48 131 Q48 142 56.5 148.5 Q65 155 74 155 Q88 155 97 142 Q108 126 124 108.5 Q140 91 163 76 Q186 61 218 51 Q250 41 294 41 Q330 41 362 51.5 Q394 62 417 80.5 Q440 99 453.5 124.5 Q467 150 467 179 Q467 217 453.5 241.5 Q440 266 414 283 Q388 300 350.5 312 Q313 324 265 336 Q238 343 205 355 Q172 367 142.5 388 Q113 409 93.5 440 Q74 471 74 517 Q74 557 90.5 591 Q107 625 136 649 Q165 673 204 686.5 Q243 700 287 700 Q324 700 354 692.5 Q384 685 406.5 674.5 Q429 664 444.5 652.5 Q460 641 469 634 Q483 625 483 611 Q483 600 475 592.5 Q467 585 458 585 Q449 585 443 588 Q437 591 432 594 Q425 599 413.5 608.5 Q402 618 384.5 627 Q367 636 342 642.5 Q317 649 283 649 Q247 649 218.5 638.5 Q190 628 169.5 610 Q149 592 138.5 568.5 Q128 545 128 519 Q128 486 144 463.5 Q160 441 187 424.5 Q214 408 250.5 396 Q287 384 328 373 Q360 364 394 352.5 Q428 341 456.5 320.5 Q485 300 503.5 267.5 Q522 235 522 185 Q522 148 506.5 113 Q491 78 461 51 Q431 24 387.5 7.5 Q344 -9 288 -10 L288 -43 Q301 -45 314 -50.5 Q327 -56 337 -65.5 Q347 -75 353.5 -89 Q360 -103 360 -121 Q360 -146 351 -163.5 Q342 -181 327.5 -192.5 Q313 -204 296 -209 Q279 -214 263 -214 Q243 -214 236.5 -208.5 Q230 -203 230 -193 Q230 -183 236.5 -178 Q243 -173 254 -173 Q286 -173 300 -159.5 Q314 -146 314 -124 Q314 -103 301.5 -93 Q289 -83 267 -80 Q257 -79 252 -75 Q247 -71 247 -60 L247 -7 Z " />
<glyph glyph-name="Scircumflex" unicode="&#x15c;" horiz-adv-x="574" d="M130 34 Q102 53 84.5 73 Q67 93 58 107 Q54 112 51 118.5 Q48 125 48 131 Q48 142 56.5 148.5 Q65 155 74 155 Q88 155 97 142 Q108 126 124 108.5 Q140 91 163 76 Q186 61 218 51 Q250 41 294 41 Q330 41 362 51.5 Q394 62 417 80.5 Q440 99 453.5 124.5 Q467 150 467 179 Q467 217 453.5 241.5 Q440 266 414 283 Q388 300 350.5 312 Q313 324 265 336 Q238 343 205 355 Q172 367 142.5 388 Q113 409 93.5 440 Q74 471 74 517 Q74 557 90.5 591 Q107 625 136 649 Q165 673 204 686.5 Q243 700 287 700 Q324 700 354 692.5 Q384 685 406.5 674.5 Q429 664 444.5 652.5 Q460 641 469 634 Q483 625 483 611 Q483 600 475 592.5 Q467 585 458 585 Q449 585 443 588 Q437 591 432 594 Q425 599 413.5 608.5 Q402 618 384.5 627 Q367 636 342 642.5 Q317 649 283 649 Q247 649 218.5 638.5 Q190 628 169.5 610 Q149 592 138.5 568.5 Q128 545 128 519 Q128 486 144 463.5 Q160 441 187 424.5 Q214 408 250.5 396 Q287 384 328 373 Q360 364 394 352.5 Q428 341 456.5 320.5 Q485 300 503.5 267.5 Q522 235 522 185 Q522 147 506.5 112 Q491 77 460.5 50 Q430 23 385.5 6.5 Q341 -10 284 -10 Q234 -10 196 3 Q158 16 130 34 Z M180 764 Q173 759 169.5 757 Q166 755 162 755 Q155 755 150 760 Q145 765 145 772 Q145 779 157 791 L266 897 Q276 907 288 907 Q302 907 311 897 L419 791 Q431 779 431 772 Q431 765 426 760 Q421 755 414 755 Q409 755 396 764 L288 853 L180 764 Z " />
<glyph glyph-name="uni0218" unicode="&#x218;" horiz-adv-x="574" d="M130 34 Q102 53 84.5 73 Q67 93 58 107 Q54 112 51 118.5 Q48 125 48 131 Q48 142 56.5 148.5 Q65 155 74 155 Q88 155 97 142 Q108 126 124 108.5 Q140 91 163 76 Q186 61 218 51 Q250 41 294 41 Q330 41 362 51.5 Q394 62 417 80.5 Q440 99 453.5 124.5 Q467 150 467 179 Q467 217 453.5 241.5 Q440 266 414 283 Q388 300 350.5 312 Q313 324 265 336 Q238 343 205 355 Q172 367 142.5 388 Q113 409 93.5 440 Q74 471 74 517 Q74 557 90.5 591 Q107 625 136 649 Q165 673 204 686.5 Q243 700 287 700 Q324 700 354 692.5 Q384 685 406.5 674.5 Q429 664 444.5 652.5 Q460 641 469 634 Q483 625 483 611 Q483 600 475 592.5 Q467 585 458 585 Q449 585 443 588 Q437 591 432 594 Q425 599 413.5 608.5 Q402 618 384.5 627 Q367 636 342 642.5 Q317 649 283 649 Q247 649 218.5 638.5 Q190 628 169.5 610 Q149 592 138.5 568.5 Q128 545 128 519 Q128 486 144 463.5 Q160 441 187 424.5 Q214 408 250.5 396 Q287 384 328 373 Q360 364 394 352.5 Q428 341 456.5 320.5 Q485 300 503.5 267.5 Q522 235 522 185 Q522 147 506.5 112 Q491 77 460.5 50 Q430 23 385.5 6.5 Q341 -10 284 -10 Q234 -10 196 3 Q158 16 130 34 Z M279 -192 Q296 -169 295 -138 Q246 -138 246 -95 Q246 -75 257.5 -63.5 Q269 -52 288 -52 Q308 -52 321 -65.5 Q334 -79 334 -111 Q334 -148 324.5 -174.5 Q315 -201 301 -218.5 Q287 -236 271.5 -244 Q256 -252 245 -252 Q230 -252 230 -237 Q230 -227 242 -222 Q262 -215 279 -192 Z " />
<glyph glyph-name="Tbar" unicode="&#x166;" horiz-adv-x="600" d="M326 26 Q326 0 300 0 Q274 0 274 26 L274 334 L186 334 Q161 334 161 356 Q161 378 186 378 L274 378 L274 643 L57 643 Q46 643 39.5 649.5 Q33 656 33 667 Q33 677 39.5 683.5 Q46 690 57 690 L542 690 Q553 690 560 683.5 Q567 677 567 667 Q567 656 560 649.5 Q553 643 542 643 L326 643 L326 378 L414 378 Q439 378 439 356 Q439 334 414 334 L326 334 L326 26 Z " />
<glyph glyph-name="Tcaron" unicode="&#x164;" horiz-adv-x="600" d="M326 26 Q326 0 300 0 Q274 0 274 26 L274 643 L57 643 Q46 643 39.5 649.5 Q33 656 33 667 Q33 677 39.5 683.5 Q46 690 57 690 L542 690 Q553 690 560 683.5 Q567 677 567 667 Q567 656 560 649.5 Q553 643 542 643 L326 643 L326 26 Z M170 871 Q158 883 158 891 Q158 897 163 902 Q168 907 175 907 Q181 907 193 898 L301 810 L409 898 Q421 907 427 907 Q434 907 439 902 Q444 897 444 891 Q444 883 432 871 L324 765 Q314 755 301 755 Q291 755 279 765 L170 871 Z " />
<glyph glyph-name="uni0162" unicode="&#x162;" horiz-adv-x="600" d="M326 26 Q326 0 300 0 Q274 0 274 26 L274 643 L57 643 Q46 643 39.5 649.5 Q33 656 33 667 Q33 677 39.5 683.5 Q46 690 57 690 L542 690 Q553 690 560 683.5 Q567 677 567 667 Q567 656 560 649.5 Q553 643 542 643 L326 643 L326 26 Z M290 -192 Q307 -169 306 -138 Q257 -138 257 -95 Q257 -75 268.5 -63.5 Q280 -52 299 -52 Q319 -52 332 -65.5 Q345 -79 345 -111 Q345 -148 335.5 -174.5 Q326 -201 312 -218.5 Q298 -236 282.5 -244 Q267 -252 256 -252 Q241 -252 241 -237 Q241 -227 253 -222 Q273 -215 290 -192 Z " />
<glyph glyph-name="uni021A" unicode="&#x21a;" horiz-adv-x="600" d="M326 26 Q326 0 300 0 Q274 0 274 26 L274 643 L57 643 Q46 643 39.5 649.5 Q33 656 33 667 Q33 677 39.5 683.5 Q46 690 57 690 L542 690 Q553 690 560 683.5 Q567 677 567 667 Q567 656 560 649.5 Q553 643 542 643 L326 643 L326 26 Z M290 -192 Q307 -169 306 -138 Q257 -138 257 -95 Q257 -75 268.5 -63.5 Q280 -52 299 -52 Q319 -52 332 -65.5 Q345 -79 345 -111 Q345 -148 335.5 -174.5 Q326 -201 312 -218.5 Q298 -236 282.5 -244 Q267 -252 256 -252 Q241 -252 241 -237 Q241 -227 253 -222 Q273 -215 290 -192 Z " />
<glyph glyph-name="Uacute" unicode="&#xda;" horiz-adv-x="690" d="M139 244 Q139 198 154 160.5 Q169 123 196 96.5 Q223 70 261 55.5 Q299 41 345 41 Q391 41 429 56 Q467 71 494 98 Q521 125 536 163 Q551 201 551 248 L551 664 Q551 675 558.5 682.5 Q566 690 578 690 Q589 690 596.5 682.5 Q604 675 604 664 L604 244 Q604 188 585 141 Q566 94 532 60.5 Q498 27 450.5 8.5 Q403 -10 345 -10 Q288 -10 240 8.5 Q192 27 158 60 Q124 93 105 139 Q86 185 86 241 L86 664 Q86 675 93.5 682.5 Q101 690 113 690 Q125 690 132 682.5 Q139 675 139 664 L139 244 Z M288 759 Q283 755 276 755 Q268 755 263.5 760 Q259 765 259 772 Q259 781 266 787 L364 881 Q372 889 382.5 898 Q393 907 405 907 Q416 907 425 899 Q434 891 434 878 Q434 864 421 855 L288 759 Z " />
<glyph glyph-name="Ucircumflex" unicode="&#xdb;" horiz-adv-x="690" d="M139 244 Q139 198 154 160.5 Q169 123 196 96.5 Q223 70 261 55.5 Q299 41 345 41 Q391 41 429 56 Q467 71 494 98 Q521 125 536 163 Q551 201 551 248 L551 664 Q551 675 558.5 682.5 Q566 690 578 690 Q589 690 596.5 682.5 Q604 675 604 664 L604 244 Q604 188 585 141 Q566 94 532 60.5 Q498 27 450.5 8.5 Q403 -10 345 -10 Q288 -10 240 8.5 Q192 27 158 60 Q124 93 105 139 Q86 185 86 241 L86 664 Q86 675 93.5 682.5 Q101 690 113 690 Q125 690 132 682.5 Q139 675 139 664 L139 244 Z M238 764 Q231 759 227.5 757 Q224 755 220 755 Q213 755 208 760 Q203 765 203 772 Q203 779 215 791 L324 897 Q334 907 346 907 Q360 907 369 897 L477 791 Q489 779 489 772 Q489 765 484 760 Q479 755 472 755 Q467 755 454 764 L346 853 L238 764 Z " />
<glyph glyph-name="Udieresis" unicode="&#xdc;" horiz-adv-x="690" d="M139 244 Q139 198 154 160.5 Q169 123 196 96.5 Q223 70 261 55.5 Q299 41 345 41 Q391 41 429 56 Q467 71 494 98 Q521 125 536 163 Q551 201 551 248 L551 664 Q551 675 558.5 682.5 Q566 690 578 690 Q589 690 596.5 682.5 Q604 675 604 664 L604 244 Q604 188 585 141 Q566 94 532 60.5 Q498 27 450.5 8.5 Q403 -10 345 -10 Q288 -10 240 8.5 Q192 27 158 60 Q124 93 105 139 Q86 185 86 241 L86 664 Q86 675 93.5 682.5 Q101 690 113 690 Q125 690 132 682.5 Q139 675 139 664 L139 244 Z M272 800 Q236 800 236 835 Q236 872 272 872 Q287 872 297.5 862.5 Q308 853 308 835 Q308 800 272 800 Z M418 800 Q382 800 382 836 Q382 872 418 872 Q433 872 443.5 862.5 Q454 853 454 836 Q454 800 418 800 Z " />
<glyph glyph-name="Ugrave" unicode="&#xd9;" horiz-adv-x="690" d="M139 244 Q139 198 154 160.5 Q169 123 196 96.5 Q223 70 261 55.5 Q299 41 345 41 Q391 41 429 56 Q467 71 494 98 Q521 125 536 163 Q551 201 551 248 L551 664 Q551 675 558.5 682.5 Q566 690 578 690 Q589 690 596.5 682.5 Q604 675 604 664 L604 244 Q604 188 585 141 Q566 94 532 60.5 Q498 27 450.5 8.5 Q403 -10 345 -10 Q288 -10 240 8.5 Q192 27 158 60 Q124 93 105 139 Q86 185 86 241 L86 664 Q86 675 93.5 682.5 Q101 690 113 690 Q125 690 132 682.5 Q139 675 139 664 L139 244 Z M272 855 Q259 864 259 878 Q259 891 268 899 Q277 907 288 907 Q300 907 310.5 898 Q321 889 329 881 L427 787 Q434 781 434 772 Q434 765 429 760 Q424 755 417 755 Q410 755 405 759 L272 855 Z " />
<glyph glyph-name="Ubreve" unicode="&#x16c;" horiz-adv-x="690" d="M139 244 Q139 198 154 160.5 Q169 123 196 96.5 Q223 70 261 55.5 Q299 41 345 41 Q391 41 429 56 Q467 71 494 98 Q521 125 536 163 Q551 201 551 248 L551 664 Q551 675 558.5 682.5 Q566 690 578 690 Q589 690 596.5 682.5 Q604 675 604 664 L604 244 Q604 188 585 141 Q566 94 532 60.5 Q498 27 450.5 8.5 Q403 -10 345 -10 Q288 -10 240 8.5 Q192 27 158 60 Q124 93 105 139 Q86 185 86 241 L86 664 Q86 675 93.5 682.5 Q101 690 113 690 Q125 690 132 682.5 Q139 675 139 664 L139 244 Z M394 829 Q415 848 425 882 Q428 897 444 897 Q454 897 459 891.5 Q464 886 464 878 Q464 858 455 839 Q446 820 429.5 804 Q413 788 389 778.5 Q365 769 336 769 Q307 769 283.5 778.5 Q260 788 243.5 804 Q227 820 218 839 Q209 858 209 878 Q209 886 213.5 891.5 Q218 897 229 897 Q243 897 248 882 Q258 848 279 829 Q300 810 336 810 Q373 810 394 829 Z " />
<glyph glyph-name="Uhungarumlaut" unicode="&#x170;" horiz-adv-x="690" d="M139 244 Q139 198 154 160.5 Q169 123 196 96.5 Q223 70 261 55.5 Q299 41 345 41 Q391 41 429 56 Q467 71 494 98 Q521 125 536 163 Q551 201 551 248 L551 664 Q551 675 558.5 682.5 Q566 690 578 690 Q589 690 596.5 682.5 Q604 675 604 664 L604 244 Q604 188 585 141 Q566 94 532 60.5 Q498 27 450.5 8.5 Q403 -10 345 -10 Q288 -10 240 8.5 Q192 27 158 60 Q124 93 105 139 Q86 185 86 241 L86 664 Q86 675 93.5 682.5 Q101 690 113 690 Q125 690 132 682.5 Q139 675 139 664 L139 244 Z M254 759 Q249 755 242 755 Q234 755 229.5 760 Q225 765 225 772 Q225 781 232 787 L330 881 Q338 889 348.5 898 Q359 907 371 907 Q382 907 391 899 Q400 891 400 878 Q400 864 387 855 L254 759 Z M414 759 Q407 755 402 755 Q394 755 389 760 Q384 765 384 772 Q384 780 391 787 L490 881 Q498 889 508.5 898 Q519 907 530 907 Q541 907 550.5 899 Q560 891 560 878 Q560 865 547 855 L414 759 Z " />
<glyph glyph-name="Umacron" unicode="&#x16a;" horiz-adv-x="690" d="M139 244 Q139 198 154 160.5 Q169 123 196 96.5 Q223 70 261 55.5 Q299 41 345 41 Q391 41 429 56 Q467 71 494 98 Q521 125 536 163 Q551 201 551 248 L551 664 Q551 675 558.5 682.5 Q566 690 578 690 Q589 690 596.5 682.5 Q604 675 604 664 L604 244 Q604 188 585 141 Q566 94 532 60.5 Q498 27 450.5 8.5 Q403 -10 345 -10 Q288 -10 240 8.5 Q192 27 158 60 Q124 93 105 139 Q86 185 86 241 L86 664 Q86 675 93.5 682.5 Q101 690 113 690 Q125 690 132 682.5 Q139 675 139 664 L139 244 Z M244 828 Q233 828 226 835 Q219 842 219 852 Q219 863 226 869.5 Q233 876 244 876 L446 876 Q457 876 464 869.5 Q471 863 471 852 Q471 842 464 835 Q457 828 446 828 L244 828 Z " />
<glyph glyph-name="Uogonek" unicode="&#x172;" horiz-adv-x="690" d="M139 244 Q139 198 154 160.5 Q169 123 196 96.5 Q223 70 261 55.5 Q299 41 345 41 Q391 41 429 56 Q467 71 494 98 Q521 125 536 163 Q551 201 551 248 L551 664 Q551 675 558.5 682.5 Q566 690 578 690 Q589 690 596.5 682.5 Q604 675 604 664 L604 244 Q604 192 588 148.5 Q572 105 543 72 Q514 39 473 18.5 Q432 -2 382 -8 Q347 -36 331.5 -63.5 Q316 -91 316 -116 Q316 -142 331 -156 Q346 -170 369 -171 Q383 -171 391 -175.5 Q399 -180 399 -190 Q399 -203 390 -207.5 Q381 -212 365 -212 Q326 -212 298.5 -191 Q271 -170 271 -126 Q271 -91 290.5 -62 Q310 -33 338 -10 Q282 -9 235.5 10 Q189 29 156 62 Q123 95 104.5 140.5 Q86 186 86 241 L86 664 Q86 675 93.5 682.5 Q101 690 113 690 Q125 690 132 682.5 Q139 675 139 664 L139 244 Z " />
<glyph glyph-name="Uring" unicode="&#x16e;" horiz-adv-x="690" d="M139 244 Q139 198 154 160.5 Q169 123 196 96.5 Q223 70 261 55.5 Q299 41 345 41 Q391 41 429 56 Q467 71 494 98 Q521 125 536 163 Q551 201 551 248 L551 664 Q551 675 558.5 682.5 Q566 690 578 690 Q589 690 596.5 682.5 Q604 675 604 664 L604 244 Q604 188 585 141 Q566 94 532 60.5 Q498 27 450.5 8.5 Q403 -10 345 -10 Q288 -10 240 8.5 Q192 27 158 60 Q124 93 105 139 Q86 185 86 241 L86 664 Q86 675 93.5 682.5 Q101 690 113 690 Q125 690 132 682.5 Q139 675 139 664 L139 244 Z M282 779 Q269 791 260.5 808.5 Q252 826 252 849 Q252 872 260.5 889.5 Q269 907 282.5 919 Q296 931 312.5 937 Q329 943 345 943 Q385 943 411.5 916.5 Q438 890 438 849 Q438 809 411.5 782 Q385 755 345 755 Q328 755 311.5 761 Q295 767 282 779 Z M306 812 Q319 795 345 795 Q359 795 369 800 Q379 805 385 813 Q391 821 394 830.5 Q397 840 397 849 Q397 868 385.5 886 Q374 904 345 904 Q328 904 318 898.5 Q308 893 302.5 884.5 Q297 876 295 866.5 Q293 857 293 850 Q293 829 306 812 Z " />
<glyph glyph-name="Utilde" unicode="&#x168;" horiz-adv-x="690" d="M139 244 Q139 198 154 160.5 Q169 123 196 96.5 Q223 70 261 55.5 Q299 41 345 41 Q391 41 429 56 Q467 71 494 98 Q521 125 536 163 Q551 201 551 248 L551 664 Q551 675 558.5 682.5 Q566 690 578 690 Q589 690 596.5 682.5 Q604 675 604 664 L604 244 Q604 188 585 141 Q566 94 532 60.5 Q498 27 450.5 8.5 Q403 -10 345 -10 Q288 -10 240 8.5 Q192 27 158 60 Q124 93 105 139 Q86 185 86 241 L86 664 Q86 675 93.5 682.5 Q101 690 113 690 Q125 690 132 682.5 Q139 675 139 664 L139 244 Z M443 843 Q454 851 465 866 Q472 878 483 878 Q491 878 497.5 872 Q504 866 504 856 Q504 846 497 836 Q483 815 463.5 802 Q444 789 418 789 Q395 789 379 796 Q363 803 348.5 811 Q334 819 319.5 826 Q305 833 286 833 Q263 833 249.5 824 Q236 815 226 803 Q222 799 218 796.5 Q214 794 208 794 Q199 794 192.5 799.5 Q186 805 186 813 Q186 822 194 832 Q211 852 231 865 Q251 878 285 878 Q307 878 323.5 871.5 Q340 865 354.5 856.5 Q369 848 383.5 841.5 Q398 835 415 835 Q432 835 443 843 Z " />
<glyph glyph-name="Wacute" unicode="&#x1e82;" horiz-adv-x="897" d="M305 19 Q299 0 282 0 Q264 0 258 19 L46 650 Q43 659 43 667 Q43 676 50 683 Q57 690 70 690 Q80 690 86 684 Q92 678 95 669 L283 94 L426 546 Q433 564 449 564 Q466 564 473 546 L616 94 L804 670 Q809 690 827 690 Q837 690 845.5 684 Q854 678 854 667 Q854 659 851 650 L639 19 Q633 0 616 0 Q598 0 592 19 L447 469 L305 19 Z M391 759 Q386 755 379 755 Q371 755 366.5 760 Q362 765 362 772 Q362 781 369 787 L467 881 Q475 889 485.5 898 Q496 907 508 907 Q519 907 528 899 Q537 891 537 878 Q537 864 524 855 L391 759 Z " />
<glyph glyph-name="Wcircumflex" unicode="&#x174;" horiz-adv-x="897" d="M305 19 Q299 0 282 0 Q264 0 258 19 L46 650 Q43 659 43 667 Q43 676 50 683 Q57 690 70 690 Q80 690 86 684 Q92 678 95 669 L283 94 L426 546 Q433 564 449 564 Q466 564 473 546 L616 94 L804 670 Q809 690 827 690 Q837 690 845.5 684 Q854 678 854 667 Q854 659 851 650 L639 19 Q633 0 616 0 Q598 0 592 19 L447 469 L305 19 Z M341 764 Q334 759 330.5 757 Q327 755 323 755 Q316 755 311 760 Q306 765 306 772 Q306 779 318 791 L427 897 Q437 907 449 907 Q463 907 472 897 L580 791 Q592 779 592 772 Q592 765 587 760 Q582 755 575 755 Q570 755 557 764 L449 853 L341 764 Z " />
<glyph glyph-name="Wdieresis" unicode="&#x1e84;" horiz-adv-x="897" d="M305 19 Q299 0 282 0 Q264 0 258 19 L46 650 Q43 659 43 667 Q43 676 50 683 Q57 690 70 690 Q80 690 86 684 Q92 678 95 669 L283 94 L426 546 Q433 564 449 564 Q466 564 473 546 L616 94 L804 670 Q809 690 827 690 Q837 690 845.5 684 Q854 678 854 667 Q854 659 851 650 L639 19 Q633 0 616 0 Q598 0 592 19 L447 469 L305 19 Z M375 800 Q339 800 339 835 Q339 872 375 872 Q390 872 400.5 862.5 Q411 853 411 835 Q411 800 375 800 Z M521 800 Q485 800 485 836 Q485 872 521 872 Q536 872 546.5 862.5 Q557 853 557 836 Q557 800 521 800 Z " />
<glyph glyph-name="Wgrave" unicode="&#x1e80;" horiz-adv-x="897" d="M305 19 Q299 0 282 0 Q264 0 258 19 L46 650 Q43 659 43 667 Q43 676 50 683 Q57 690 70 690 Q80 690 86 684 Q92 678 95 669 L283 94 L426 546 Q433 564 449 564 Q466 564 473 546 L616 94 L804 670 Q809 690 827 690 Q837 690 845.5 684 Q854 678 854 667 Q854 659 851 650 L639 19 Q633 0 616 0 Q598 0 592 19 L447 469 L305 19 Z M375 855 Q362 864 362 878 Q362 891 371 899 Q380 907 391 907 Q403 907 413.5 898 Q424 889 432 881 L530 787 Q537 781 537 772 Q537 765 532 760 Q527 755 520 755 Q513 755 508 759 L375 855 Z " />
<glyph glyph-name="Yacute" unicode="&#xdd;" horiz-adv-x="622" d="M338 26 Q338 14 330.5 7 Q323 0 311 0 Q285 0 285 26 L285 267 L47 649 Q43 656 43 665 Q43 674 49.5 682 Q56 690 68 690 Q75 690 81.5 687 Q88 684 92 676 L311 318 L530 674 Q535 682 539.5 686 Q544 690 553 690 Q563 690 571 683.5 Q579 677 579 667 Q579 662 577 657.5 Q575 653 573 648 L338 267 L338 26 Z M254 759 Q249 755 242 755 Q234 755 229.5 760 Q225 765 225 772 Q225 781 232 787 L330 881 Q338 889 348.5 898 Q359 907 371 907 Q382 907 391 899 Q400 891 400 878 Q400 864 387 855 L254 759 Z " />
<glyph glyph-name="Ydieresis" unicode="&#x178;" horiz-adv-x="622" d="M338 26 Q338 14 330.5 7 Q323 0 311 0 Q285 0 285 26 L285 267 L47 649 Q43 656 43 665 Q43 674 49.5 682 Q56 690 68 690 Q75 690 81.5 687 Q88 684 92 676 L311 318 L530 674 Q535 682 539.5 686 Q544 690 553 690 Q563 690 571 683.5 Q579 677 579 667 Q579 662 577 657.5 Q575 653 573 648 L338 267 L338 26 Z M238 800 Q202 800 202 835 Q202 872 238 872 Q253 872 263.5 862.5 Q274 853 274 835 Q274 800 238 800 Z M384 800 Q348 800 348 836 Q348 872 384 872 Q399 872 409.5 862.5 Q420 853 420 836 Q420 800 384 800 Z " />
<glyph glyph-name="Ycircumflex" unicode="&#x176;" horiz-adv-x="622" d="M338 26 Q338 14 330.5 7 Q323 0 311 0 Q285 0 285 26 L285 267 L47 649 Q43 656 43 665 Q43 674 49.5 682 Q56 690 68 690 Q75 690 81.5 687 Q88 684 92 676 L311 318 L530 674 Q535 682 539.5 686 Q544 690 553 690 Q563 690 571 683.5 Q579 677 579 667 Q579 662 577 657.5 Q575 653 573 648 L338 267 L338 26 Z M204 764 Q197 759 193.5 757 Q190 755 186 755 Q179 755 174 760 Q169 765 169 772 Q169 779 181 791 L290 897 Q300 907 312 907 Q326 907 335 897 L443 791 Q455 779 455 772 Q455 765 450 760 Q445 755 438 755 Q433 755 420 764 L312 853 L204 764 Z " />
<glyph glyph-name="Ygrave" unicode="&#x1ef2;" horiz-adv-x="622" d="M338 26 Q338 14 330.5 7 Q323 0 311 0 Q285 0 285 26 L285 267 L47 649 Q43 656 43 665 Q43 674 49.5 682 Q56 690 68 690 Q75 690 81.5 687 Q88 684 92 676 L311 318 L530 674 Q535 682 539.5 686 Q544 690 553 690 Q563 690 571 683.5 Q579 677 579 667 Q579 662 577 657.5 Q575 653 573 648 L338 267 L338 26 Z M238 855 Q225 864 225 878 Q225 891 234 899 Q243 907 254 907 Q266 907 276.5 898 Q287 889 295 881 L393 787 Q400 781 400 772 Q400 765 395 760 Q390 755 383 755 Q376 755 371 759 L238 855 Z " />
<glyph glyph-name="Zcaron" unicode="&#x17d;" horiz-adv-x="582" d="M77 0 Q66 0 59.5 6 Q53 12 53 22 Q53 27 54.5 32.5 Q56 38 61 43 L460 642 L107 642 Q81 642 81 667 Q81 677 88 683.5 Q95 690 107 690 L504 690 Q529 690 529 669 Q529 657 518 639 L124 48 L496 48 Q508 48 514.5 41 Q521 34 521 23 Q521 13 514.5 6.5 Q508 0 496 0 L77 0 Z M161 871 Q149 883 149 891 Q149 897 154 902 Q159 907 166 907 Q172 907 184 898 L292 810 L400 898 Q412 907 418 907 Q425 907 430 902 Q435 897 435 891 Q435 883 423 871 L315 765 Q305 755 292 755 Q282 755 270 765 L161 871 Z " />
<glyph glyph-name="Zacute" unicode="&#x179;" horiz-adv-x="582" d="M77 0 Q66 0 59.5 6 Q53 12 53 22 Q53 27 54.5 32.5 Q56 38 61 43 L460 642 L107 642 Q81 642 81 667 Q81 677 88 683.5 Q95 690 107 690 L504 690 Q529 690 529 669 Q529 657 518 639 L124 48 L496 48 Q508 48 514.5 41 Q521 34 521 23 Q521 13 514.5 6.5 Q508 0 496 0 L77 0 Z M234 759 Q229 755 222 755 Q214 755 209.5 760 Q205 765 205 772 Q205 781 212 787 L310 881 Q318 889 328.5 898 Q339 907 351 907 Q362 907 371 899 Q380 891 380 878 Q380 864 367 855 L234 759 Z " />
<glyph glyph-name="Zdotaccent" unicode="&#x17b;" horiz-adv-x="582" d="M77 0 Q66 0 59.5 6 Q53 12 53 22 Q53 27 54.5 32.5 Q56 38 61 43 L460 642 L107 642 Q81 642 81 667 Q81 677 88 683.5 Q95 690 107 690 L504 690 Q529 690 529 669 Q529 657 518 639 L124 48 L496 48 Q508 48 514.5 41 Q521 34 521 23 Q521 13 514.5 6.5 Q508 0 496 0 L77 0 Z M264 822 Q254 832 254 850 Q254 889 291 889 Q308 889 318.5 879 Q329 869 329 850 Q329 831 318.5 822 Q308 813 291 813 Q274 813 264 822 Z " />
<glyph glyph-name="aacute" unicode="&#xe1;" horiz-adv-x="609" d="M475 121 Q447 63 397.5 26.5 Q348 -10 280 -10 Q230 -10 188 9.5 Q146 29 114.5 63 Q83 97 65.5 144 Q48 191 48 246 Q48 301 66 348.5 Q84 396 115.5 430 Q147 464 189.5 483.5 Q232 503 282 503 Q353 503 400 468 Q447 433 475 375 L475 471 Q475 493 500 493 Q511 493 518.5 487 Q526 481 526 471 L526 100 Q526 90 527 80.5 Q528 71 531.5 63.5 Q535 56 541.5 51 Q548 46 559 46 Q580 46 580 24 Q580 0 551 0 Q507 0 491.5 25 Q476 50 475 88 L475 121 Z M152 96 Q177 68 211.5 52.5 Q246 37 288 37 Q328 37 362 52 Q396 67 421 94.5 Q446 122 460.5 160 Q475 198 475 244 Q475 289 461 328 Q447 367 422 395.5 Q397 424 362.5 440.5 Q328 457 288 457 Q245 457 210.5 440.5 Q176 424 151.5 395.5 Q127 367 114 328.5 Q101 290 101 245 Q101 200 114.5 162 Q128 124 152 96 Z M227 559 Q222 555 215 555 Q207 555 202.5 560 Q198 565 198 572 Q198 581 205 587 L303 681 Q311 689 321.5 698 Q332 707 344 707 Q355 707 364 699 Q373 691 373 678 Q373 664 360 655 L227 559 Z " />
<glyph glyph-name="acircumflex" unicode="&#xe2;" horiz-adv-x="609" d="M475 121 Q447 63 397.5 26.5 Q348 -10 280 -10 Q230 -10 188 9.5 Q146 29 114.5 63 Q83 97 65.5 144 Q48 191 48 246 Q48 301 66 348.5 Q84 396 115.5 430 Q147 464 189.5 483.5 Q232 503 282 503 Q353 503 400 468 Q447 433 475 375 L475 471 Q475 493 500 493 Q511 493 518.5 487 Q526 481 526 471 L526 100 Q526 90 527 80.5 Q528 71 531.5 63.5 Q535 56 541.5 51 Q548 46 559 46 Q580 46 580 24 Q580 0 551 0 Q507 0 491.5 25 Q476 50 475 88 L475 121 Z M152 96 Q177 68 211.5 52.5 Q246 37 288 37 Q328 37 362 52 Q396 67 421 94.5 Q446 122 460.5 160 Q475 198 475 244 Q475 289 461 328 Q447 367 422 395.5 Q397 424 362.5 440.5 Q328 457 288 457 Q245 457 210.5 440.5 Q176 424 151.5 395.5 Q127 367 114 328.5 Q101 290 101 245 Q101 200 114.5 162 Q128 124 152 96 Z M177 564 Q170 559 166.5 557 Q163 555 159 555 Q152 555 147 560 Q142 565 142 572 Q142 579 154 591 L263 697 Q273 707 285 707 Q299 707 308 697 L416 591 Q428 579 428 572 Q428 565 423 560 Q418 555 411 555 Q406 555 393 564 L285 653 L177 564 Z " />
<glyph glyph-name="adieresis" unicode="&#xe4;" horiz-adv-x="609" d="M475 121 Q447 63 397.5 26.5 Q348 -10 280 -10 Q230 -10 188 9.5 Q146 29 114.5 63 Q83 97 65.5 144 Q48 191 48 246 Q48 301 66 348.5 Q84 396 115.5 430 Q147 464 189.5 483.5 Q232 503 282 503 Q353 503 400 468 Q447 433 475 375 L475 471 Q475 493 500 493 Q511 493 518.5 487 Q526 481 526 471 L526 100 Q526 90 527 80.5 Q528 71 531.5 63.5 Q535 56 541.5 51 Q548 46 559 46 Q580 46 580 24 Q580 0 551 0 Q507 0 491.5 25 Q476 50 475 88 L475 121 Z M152 96 Q177 68 211.5 52.5 Q246 37 288 37 Q328 37 362 52 Q396 67 421 94.5 Q446 122 460.5 160 Q475 198 475 244 Q475 289 461 328 Q447 367 422 395.5 Q397 424 362.5 440.5 Q328 457 288 457 Q245 457 210.5 440.5 Q176 424 151.5 395.5 Q127 367 114 328.5 Q101 290 101 245 Q101 200 114.5 162 Q128 124 152 96 Z M221 600 Q185 600 185 635 Q185 672 221 672 Q236 672 246.5 662.5 Q257 653 257 635 Q257 600 221 600 Z M367 600 Q331 600 331 636 Q331 672 367 672 Q382 672 392.5 662.5 Q403 653 403 636 Q403 600 367 600 Z " />
<glyph glyph-name="agrave" unicode="&#xe0;" horiz-adv-x="609" d="M475 121 Q447 63 397.5 26.5 Q348 -10 280 -10 Q230 -10 188 9.5 Q146 29 114.5 63 Q83 97 65.5 144 Q48 191 48 246 Q48 301 66 348.5 Q84 396 115.5 430 Q147 464 189.5 483.5 Q232 503 282 503 Q353 503 400 468 Q447 433 475 375 L475 471 Q475 493 500 493 Q511 493 518.5 487 Q526 481 526 471 L526 100 Q526 90 527 80.5 Q528 71 531.5 63.5 Q535 56 541.5 51 Q548 46 559 46 Q580 46 580 24 Q580 0 551 0 Q507 0 491.5 25 Q476 50 475 88 L475 121 Z M152 96 Q177 68 211.5 52.5 Q246 37 288 37 Q328 37 362 52 Q396 67 421 94.5 Q446 122 460.5 160 Q475 198 475 244 Q475 289 461 328 Q447 367 422 395.5 Q397 424 362.5 440.5 Q328 457 288 457 Q245 457 210.5 440.5 Q176 424 151.5 395.5 Q127 367 114 328.5 Q101 290 101 245 Q101 200 114.5 162 Q128 124 152 96 Z M231 655 Q218 664 218 678 Q218 691 227 699 Q236 707 247 707 Q259 707 269.5 698 Q280 689 288 681 L386 587 Q393 581 393 572 Q393 565 388 560 Q383 555 376 555 Q369 555 364 559 L231 655 Z " />
<glyph glyph-name="aring" unicode="&#xe5;" horiz-adv-x="609" d="M475 121 Q447 63 397.5 26.5 Q348 -10 280 -10 Q230 -10 188 9.5 Q146 29 114.5 63 Q83 97 65.5 144 Q48 191 48 246 Q48 301 66 348.5 Q84 396 115.5 430 Q147 464 189.5 483.5 Q232 503 282 503 Q353 503 400 468 Q447 433 475 375 L475 471 Q475 493 500 493 Q511 493 518.5 487 Q526 481 526 471 L526 100 Q526 90 527 80.5 Q528 71 531.5 63.5 Q535 56 541.5 51 Q548 46 559 46 Q580 46 580 24 Q580 0 551 0 Q507 0 491.5 25 Q476 50 475 88 L475 121 Z M152 96 Q177 68 211.5 52.5 Q246 37 288 37 Q328 37 362 52 Q396 67 421 94.5 Q446 122 460.5 160 Q475 198 475 244 Q475 289 461 328 Q447 367 422 395.5 Q397 424 362.5 440.5 Q328 457 288 457 Q245 457 210.5 440.5 Q176 424 151.5 395.5 Q127 367 114 328.5 Q101 290 101 245 Q101 200 114.5 162 Q128 124 152 96 Z M230 579 Q217 591 208.5 608.5 Q200 626 200 649 Q200 672 208.5 689.5 Q217 707 230.5 719 Q244 731 260.5 737 Q277 743 293 743 Q333 743 359.5 716.5 Q386 690 386 649 Q386 609 359.5 582 Q333 555 293 555 Q276 555 259.5 561 Q243 567 230 579 Z M254 612 Q267 595 293 595 Q307 595 317 600 Q327 605 333 613 Q339 621 342 630.5 Q345 640 345 649 Q345 668 333.5 686 Q322 704 293 704 Q276 704 266 698.5 Q256 693 250.5 684.5 Q245 676 243 666.5 Q241 657 241 650 Q241 629 254 612 Z " />
<glyph glyph-name="atilde" unicode="&#xe3;" horiz-adv-x="609" d="M475 121 Q447 63 397.5 26.5 Q348 -10 280 -10 Q230 -10 188 9.5 Q146 29 114.5 63 Q83 97 65.5 144 Q48 191 48 246 Q48 301 66 348.5 Q84 396 115.5 430 Q147 464 189.5 483.5 Q232 503 282 503 Q353 503 400 468 Q447 433 475 375 L475 471 Q475 493 500 493 Q511 493 518.5 487 Q526 481 526 471 L526 100 Q526 90 527 80.5 Q528 71 531.5 63.5 Q535 56 541.5 51 Q548 46 559 46 Q580 46 580 24 Q580 0 551 0 Q507 0 491.5 25 Q476 50 475 88 L475 121 Z M152 96 Q177 68 211.5 52.5 Q246 37 288 37 Q328 37 362 52 Q396 67 421 94.5 Q446 122 460.5 160 Q475 198 475 244 Q475 289 461 328 Q447 367 422 395.5 Q397 424 362.5 440.5 Q328 457 288 457 Q245 457 210.5 440.5 Q176 424 151.5 395.5 Q127 367 114 328.5 Q101 290 101 245 Q101 200 114.5 162 Q128 124 152 96 Z M402 643 Q413 651 424 666 Q431 678 442 678 Q450 678 456.5 672 Q463 666 463 656 Q463 646 456 636 Q442 615 422.5 602 Q403 589 377 589 Q354 589 338 596 Q322 603 307.5 611 Q293 619 278.5 626 Q264 633 245 633 Q222 633 208.5 624 Q195 615 185 603 Q181 599 177 596.5 Q173 594 167 594 Q158 594 151.5 599.5 Q145 605 145 613 Q145 622 153 632 Q170 652 190 665 Q210 678 244 678 Q266 678 282.5 671.5 Q299 665 313.5 656.5 Q328 648 342.5 641.5 Q357 635 374 635 Q391 635 402 643 Z " />
<glyph glyph-name="abreve" unicode="&#x103;" horiz-adv-x="609" d="M475 121 Q447 63 397.5 26.5 Q348 -10 280 -10 Q230 -10 188 9.5 Q146 29 114.5 63 Q83 97 65.5 144 Q48 191 48 246 Q48 301 66 348.5 Q84 396 115.5 430 Q147 464 189.5 483.5 Q232 503 282 503 Q353 503 400 468 Q447 433 475 375 L475 471 Q475 493 500 493 Q511 493 518.5 487 Q526 481 526 471 L526 100 Q526 90 527 80.5 Q528 71 531.5 63.5 Q535 56 541.5 51 Q548 46 559 46 Q580 46 580 24 Q580 0 551 0 Q507 0 491.5 25 Q476 50 475 88 L475 121 Z M152 96 Q177 68 211.5 52.5 Q246 37 288 37 Q328 37 362 52 Q396 67 421 94.5 Q446 122 460.5 160 Q475 198 475 244 Q475 289 461 328 Q447 367 422 395.5 Q397 424 362.5 440.5 Q328 457 288 457 Q245 457 210.5 440.5 Q176 424 151.5 395.5 Q127 367 114 328.5 Q101 290 101 245 Q101 200 114.5 162 Q128 124 152 96 Z M353 629 Q374 648 384 682 Q387 697 403 697 Q413 697 418 691.5 Q423 686 423 678 Q423 658 414 639 Q405 620 388.5 604 Q372 588 348 578.5 Q324 569 295 569 Q266 569 242.5 578.5 Q219 588 202.5 604 Q186 620 177 639 Q168 658 168 678 Q168 686 172.5 691.5 Q177 697 188 697 Q202 697 207 682 Q217 648 238 629 Q259 610 295 610 Q332 610 353 629 Z " />
<glyph glyph-name="amacron" unicode="&#x101;" horiz-adv-x="609" d="M475 121 Q447 63 397.5 26.5 Q348 -10 280 -10 Q230 -10 188 9.5 Q146 29 114.5 63 Q83 97 65.5 144 Q48 191 48 246 Q48 301 66 348.5 Q84 396 115.5 430 Q147 464 189.5 483.5 Q232 503 282 503 Q353 503 400 468 Q447 433 475 375 L475 471 Q475 493 500 493 Q511 493 518.5 487 Q526 481 526 471 L526 100 Q526 90 527 80.5 Q528 71 531.5 63.5 Q535 56 541.5 51 Q548 46 559 46 Q580 46 580 24 Q580 0 551 0 Q507 0 491.5 25 Q476 50 475 88 L475 121 Z M152 96 Q177 68 211.5 52.5 Q246 37 288 37 Q328 37 362 52 Q396 67 421 94.5 Q446 122 460.5 160 Q475 198 475 244 Q475 289 461 328 Q447 367 422 395.5 Q397 424 362.5 440.5 Q328 457 288 457 Q245 457 210.5 440.5 Q176 424 151.5 395.5 Q127 367 114 328.5 Q101 290 101 245 Q101 200 114.5 162 Q128 124 152 96 Z M203 628 Q192 628 185 635 Q178 642 178 652 Q178 663 185 669.5 Q192 676 203 676 L405 676 Q416 676 423 669.5 Q430 663 430 652 Q430 642 423 635 Q416 628 405 628 L203 628 Z " />
<glyph glyph-name="aogonek" unicode="&#x105;" horiz-adv-x="609" d="M475 121 Q447 63 397.5 26.5 Q348 -10 280 -10 Q230 -10 188 9.5 Q146 29 114.5 63 Q83 97 65.5 144 Q48 191 48 246 Q48 301 66 348.5 Q84 396 115.5 430 Q147 464 189.5 483.5 Q232 503 282 503 Q353 503 400 468 Q447 433 475 375 L475 471 Q475 493 500 493 Q511 493 518.5 487 Q526 481 526 471 L526 100 Q526 90 527 80.5 Q528 71 531.5 63.5 Q535 56 541.5 51 Q548 46 559 46 Q580 46 580 24 Q580 2 554 0 Q512 -30 494.5 -59.5 Q477 -89 477 -116 Q477 -142 492 -156 Q507 -170 530 -171 Q559 -171 559 -190 Q559 -203 550.5 -207.5 Q542 -212 525 -212 Q486 -212 458.5 -191 Q431 -170 431 -126 Q431 -84 457.5 -51.5 Q484 -19 518 5 Q494 14 485 36.5 Q476 59 475 88 L475 121 Z M152 96 Q177 68 211.5 52.5 Q246 37 288 37 Q328 37 362 52 Q396 67 421 94.5 Q446 122 460.5 160 Q475 198 475 244 Q475 289 461 328 Q447 367 422 395.5 Q397 424 362.5 440.5 Q328 457 288 457 Q245 457 210.5 440.5 Q176 424 151.5 395.5 Q127 367 114 328.5 Q101 290 101 245 Q101 200 114.5 162 Q128 124 152 96 Z " />
<glyph glyph-name="ccedilla" unicode="&#xe7;" horiz-adv-x="528" d="M244 -7 Q200 0 164 22 Q128 44 102 77.5 Q76 111 62 154 Q48 197 48 246 Q48 301 66 348 Q84 395 115.5 429.5 Q147 464 190.5 483.5 Q234 503 285 503 Q321 503 349.5 494.5 Q378 486 400.5 473 Q423 460 439 444.5 Q455 429 466 415 Q473 407 479 397.5 Q485 388 485 379 Q485 368 477.5 362 Q470 356 462 356 Q454 356 449.5 359 Q445 362 441 367 Q435 377 422 392.5 Q409 408 390 422.5 Q371 437 345.5 447 Q320 457 287 457 Q246 457 212 440.5 Q178 424 153.5 395.5 Q129 367 115 328.5 Q101 290 101 246 Q101 201 114.5 163 Q128 125 152 97 Q176 69 210 53 Q244 37 285 37 Q332 37 370 59.5 Q408 82 437 118 Q446 130 457 130 Q466 130 473 124 Q480 118 480 107 Q480 95 474 89 Q445 47 396.5 18.5 Q348 -10 285 -10 L285 -43 Q298 -45 311 -50.5 Q324 -56 334 -65.5 Q344 -75 350.5 -89 Q357 -103 357 -121 Q357 -146 348 -163.5 Q339 -181 324.5 -192.5 Q310 -204 293 -209 Q276 -214 260 -214 Q240 -214 233.5 -208.5 Q227 -203 227 -193 Q227 -183 233.5 -178 Q240 -173 251 -173 Q283 -173 297 -159.5 Q311 -146 311 -124 Q311 -103 298 -93 Q285 -83 264 -80 Q254 -79 249 -75 Q244 -71 244 -60 L244 -7 Z " />
<glyph glyph-name="cacute" unicode="&#x107;" horiz-adv-x="528" d="M480 107 Q480 95 474 89 Q445 47 396.5 18.5 Q348 -10 285 -10 Q233 -10 189.5 9.5 Q146 29 114.5 63.5 Q83 98 65.5 144.5 Q48 191 48 246 Q48 301 66 348 Q84 395 115.5 429.5 Q147 464 190.5 483.5 Q234 503 285 503 Q321 503 349.5 494.5 Q378 486 400.5 473 Q423 460 439 444.5 Q455 429 466 415 Q473 407 479 397.5 Q485 388 485 379 Q485 368 477.5 362 Q470 356 462 356 Q454 356 449.5 359 Q445 362 441 367 Q435 377 422 392.5 Q409 408 390 422.5 Q371 437 345.5 447 Q320 457 287 457 Q246 457 212 440.5 Q178 424 153.5 395.5 Q129 367 115 328.5 Q101 290 101 246 Q101 201 114.5 163 Q128 125 152 97 Q176 69 210 53 Q244 37 285 37 Q332 37 370 59.5 Q408 82 437 118 Q446 130 457 130 Q466 130 473 124 Q480 118 480 107 Z M226 559 Q221 555 214 555 Q206 555 201.5 560 Q197 565 197 572 Q197 581 204 587 L302 681 Q310 689 320.5 698 Q331 707 343 707 Q354 707 363 699 Q372 691 372 678 Q372 664 359 655 L226 559 Z " />
<glyph glyph-name="ccaron" unicode="&#x10d;" horiz-adv-x="528" d="M480 107 Q480 95 474 89 Q445 47 396.5 18.5 Q348 -10 285 -10 Q233 -10 189.5 9.5 Q146 29 114.5 63.5 Q83 98 65.5 144.5 Q48 191 48 246 Q48 301 66 348 Q84 395 115.5 429.5 Q147 464 190.5 483.5 Q234 503 285 503 Q321 503 349.5 494.5 Q378 486 400.5 473 Q423 460 439 444.5 Q455 429 466 415 Q473 407 479 397.5 Q485 388 485 379 Q485 368 477.5 362 Q470 356 462 356 Q454 356 449.5 359 Q445 362 441 367 Q435 377 422 392.5 Q409 408 390 422.5 Q371 437 345.5 447 Q320 457 287 457 Q246 457 212 440.5 Q178 424 153.5 395.5 Q129 367 115 328.5 Q101 290 101 246 Q101 201 114.5 163 Q128 125 152 97 Q176 69 210 53 Q244 37 285 37 Q332 37 370 59.5 Q408 82 437 118 Q446 130 457 130 Q466 130 473 124 Q480 118 480 107 Z M153 671 Q141 683 141 691 Q141 697 146 702 Q151 707 158 707 Q164 707 176 698 L284 610 L392 698 Q404 707 410 707 Q417 707 422 702 Q427 697 427 691 Q427 683 415 671 L307 565 Q297 555 284 555 Q274 555 262 565 L153 671 Z " />
<glyph glyph-name="ccircumflex" unicode="&#x109;" horiz-adv-x="528" d="M480 107 Q480 95 474 89 Q445 47 396.5 18.5 Q348 -10 285 -10 Q233 -10 189.5 9.5 Q146 29 114.5 63.5 Q83 98 65.5 144.5 Q48 191 48 246 Q48 301 66 348 Q84 395 115.5 429.5 Q147 464 190.5 483.5 Q234 503 285 503 Q321 503 349.5 494.5 Q378 486 400.5 473 Q423 460 439 444.5 Q455 429 466 415 Q473 407 479 397.5 Q485 388 485 379 Q485 368 477.5 362 Q470 356 462 356 Q454 356 449.5 359 Q445 362 441 367 Q435 377 422 392.5 Q409 408 390 422.5 Q371 437 345.5 447 Q320 457 287 457 Q246 457 212 440.5 Q178 424 153.5 395.5 Q129 367 115 328.5 Q101 290 101 246 Q101 201 114.5 163 Q128 125 152 97 Q176 69 210 53 Q244 37 285 37 Q332 37 370 59.5 Q408 82 437 118 Q446 130 457 130 Q466 130 473 124 Q480 118 480 107 Z M176 564 Q169 559 165.5 557 Q162 555 158 555 Q151 555 146 560 Q141 565 141 572 Q141 579 153 591 L262 697 Q272 707 284 707 Q298 707 307 697 L415 591 Q427 579 427 572 Q427 565 422 560 Q417 555 410 555 Q405 555 392 564 L284 653 L176 564 Z " />
<glyph glyph-name="cdotaccent" unicode="&#x10b;" horiz-adv-x="528" d="M480 107 Q480 95 474 89 Q445 47 396.5 18.5 Q348 -10 285 -10 Q233 -10 189.5 9.5 Q146 29 114.5 63.5 Q83 98 65.5 144.5 Q48 191 48 246 Q48 301 66 348 Q84 395 115.5 429.5 Q147 464 190.5 483.5 Q234 503 285 503 Q321 503 349.5 494.5 Q378 486 400.5 473 Q423 460 439 444.5 Q455 429 466 415 Q473 407 479 397.5 Q485 388 485 379 Q485 368 477.5 362 Q470 356 462 356 Q454 356 449.5 359 Q445 362 441 367 Q435 377 422 392.5 Q409 408 390 422.5 Q371 437 345.5 447 Q320 457 287 457 Q246 457 212 440.5 Q178 424 153.5 395.5 Q129 367 115 328.5 Q101 290 101 246 Q101 201 114.5 163 Q128 125 152 97 Q176 69 210 53 Q244 37 285 37 Q332 37 370 59.5 Q408 82 437 118 Q446 130 457 130 Q466 130 473 124 Q480 118 480 107 Z M260 622 Q250 632 250 650 Q250 689 287 689 Q304 689 314.5 679 Q325 669 325 650 Q325 631 314.5 622 Q304 613 287 613 Q270 613 260 622 Z " />
<glyph glyph-name="dcaron" unicode="&#x10f;" horiz-adv-x="641" d="M526 25 Q526 0 500 0 Q488 0 481.5 7 Q475 14 475 24 L475 121 Q446 63 397.5 26.5 Q349 -10 281 -10 Q231 -10 188.5 9 Q146 28 115 62.5 Q84 97 66 143.5 Q48 190 48 246 Q48 302 66 349 Q84 396 115.5 430.5 Q147 465 189.5 484 Q232 503 282 503 Q354 503 400 468 Q446 433 475 375 L475 666 Q475 677 482.5 683.5 Q490 690 501 690 Q512 690 519 683.5 Q526 677 526 666 L526 25 Z M152 96 Q177 68 211.5 52.5 Q246 37 288 37 Q328 37 362 52 Q396 67 421 95 Q446 123 460.5 161 Q475 199 475 246 Q475 291 461 329.5 Q447 368 422 396.5 Q397 425 362.5 441 Q328 457 288 457 Q245 457 210.5 440.5 Q176 424 151.5 395.5 Q127 367 114 328.5 Q101 290 101 245 Q101 200 114.5 162 Q128 124 152 96 Z M618 608 Q635 631 633 662 Q585 662 585 705 Q585 725 596.5 736.5 Q608 748 626 748 Q646 748 659 734.5 Q672 721 672 689 Q672 652 662.5 625.5 Q653 599 639.5 581.5 Q626 564 610.5 556 Q595 548 584 548 Q568 548 568 563 Q568 573 580 578 Q601 585 618 608 Z " />
<glyph glyph-name="dcroat" unicode="&#x111;" horiz-adv-x="604" d="M526 25 Q526 0 500 0 Q488 0 481.5 7 Q475 14 475 24 L475 121 Q446 63 397.5 26.5 Q349 -10 281 -10 Q231 -10 188.5 9 Q146 28 115 62.5 Q84 97 66 143.5 Q48 190 48 246 Q48 302 66 349 Q84 396 115.5 430.5 Q147 465 189.5 484 Q232 503 282 503 Q354 503 400 468 Q446 433 475 375 L475 576 L369 576 Q358 576 351 583 Q344 590 344 600 Q344 611 351 617.5 Q358 624 369 624 L475 624 L475 666 Q475 677 482.5 683.5 Q490 690 501 690 Q512 690 519 683.5 Q526 677 526 666 L526 624 L562 624 Q573 624 580 617.5 Q587 611 587 600 Q587 590 580 583 Q573 576 562 576 L526 576 L526 25 Z M152 96 Q177 68 211.5 52.5 Q246 37 288 37 Q328 37 362 52 Q396 67 421 95 Q446 123 460.5 161 Q475 199 475 246 Q475 291 461 329.5 Q447 368 422 396.5 Q397 425 362.5 441 Q328 457 288 457 Q245 457 210.5 440.5 Q176 424 151.5 395.5 Q127 367 114 328.5 Q101 290 101 245 Q101 200 114.5 162 Q128 124 152 96 Z " />
<glyph glyph-name="eacute" unicode="&#xe9;" horiz-adv-x="559" d="M99 248 Q100 203 113 164.5 Q126 126 150 97.5 Q174 69 209 53 Q244 37 289 37 Q342 37 380 55.5 Q418 74 446 100 Q456 107 462 107 Q472 107 479 99.5 Q486 92 486 83 Q486 71 475 62 Q446 33 396.5 11.5 Q347 -10 286 -10 Q232 -10 188 9.5 Q144 29 113 63 Q82 97 65 144 Q48 191 48 245 Q48 301 66 348 Q84 395 116 429.5 Q148 464 191 483.5 Q234 503 284 503 Q332 503 373 486.5 Q414 470 443 441.5 Q472 413 488.5 375.5 Q505 338 505 297 Q505 275 498 261.5 Q491 248 466 248 L99 248 Z M454 286 Q457 317 445.5 348 Q434 379 411 403 Q388 427 355.5 442 Q323 457 284 457 Q251 457 220 445.5 Q189 434 164 411.5 Q139 389 122.5 357 Q106 325 101 286 L454 286 Z M242 559 Q237 555 230 555 Q222 555 217.5 560 Q213 565 213 572 Q213 581 220 587 L318 681 Q326 689 336.5 698 Q347 707 359 707 Q370 707 379 699 Q388 691 388 678 Q388 664 375 655 L242 559 Z " />
<glyph glyph-name="ecircumflex" unicode="&#xea;" horiz-adv-x="559" d="M99 248 Q100 203 113 164.5 Q126 126 150 97.5 Q174 69 209 53 Q244 37 289 37 Q342 37 380 55.5 Q418 74 446 100 Q456 107 462 107 Q472 107 479 99.5 Q486 92 486 83 Q486 71 475 62 Q446 33 396.5 11.5 Q347 -10 286 -10 Q232 -10 188 9.5 Q144 29 113 63 Q82 97 65 144 Q48 191 48 245 Q48 301 66 348 Q84 395 116 429.5 Q148 464 191 483.5 Q234 503 284 503 Q332 503 373 486.5 Q414 470 443 441.5 Q472 413 488.5 375.5 Q505 338 505 297 Q505 275 498 261.5 Q491 248 466 248 L99 248 Z M454 286 Q457 317 445.5 348 Q434 379 411 403 Q388 427 355.5 442 Q323 457 284 457 Q251 457 220 445.5 Q189 434 164 411.5 Q139 389 122.5 357 Q106 325 101 286 L454 286 Z M181 564 Q174 559 170.5 557 Q167 555 163 555 Q156 555 151 560 Q146 565 146 572 Q146 579 158 591 L267 697 Q277 707 289 707 Q303 707 312 697 L420 591 Q432 579 432 572 Q432 565 427 560 Q422 555 415 555 Q410 555 397 564 L289 653 L181 564 Z " />
<glyph glyph-name="edieresis" unicode="&#xeb;" horiz-adv-x="559" d="M99 248 Q100 203 113 164.5 Q126 126 150 97.5 Q174 69 209 53 Q244 37 289 37 Q342 37 380 55.5 Q418 74 446 100 Q456 107 462 107 Q472 107 479 99.5 Q486 92 486 83 Q486 71 475 62 Q446 33 396.5 11.5 Q347 -10 286 -10 Q232 -10 188 9.5 Q144 29 113 63 Q82 97 65 144 Q48 191 48 245 Q48 301 66 348 Q84 395 116 429.5 Q148 464 191 483.5 Q234 503 284 503 Q332 503 373 486.5 Q414 470 443 441.5 Q472 413 488.5 375.5 Q505 338 505 297 Q505 275 498 261.5 Q491 248 466 248 L99 248 Z M454 286 Q457 317 445.5 348 Q434 379 411 403 Q388 427 355.5 442 Q323 457 284 457 Q251 457 220 445.5 Q189 434 164 411.5 Q139 389 122.5 357 Q106 325 101 286 L454 286 Z M216 600 Q180 600 180 635 Q180 672 216 672 Q231 672 241.5 662.5 Q252 653 252 635 Q252 600 216 600 Z M362 600 Q326 600 326 636 Q326 672 362 672 Q377 672 387.5 662.5 Q398 653 398 636 Q398 600 362 600 Z " />
<glyph glyph-name="egrave" unicode="&#xe8;" horiz-adv-x="559" d="M99 248 Q100 203 113 164.5 Q126 126 150 97.5 Q174 69 209 53 Q244 37 289 37 Q342 37 380 55.5 Q418 74 446 100 Q456 107 462 107 Q472 107 479 99.5 Q486 92 486 83 Q486 71 475 62 Q446 33 396.5 11.5 Q347 -10 286 -10 Q232 -10 188 9.5 Q144 29 113 63 Q82 97 65 144 Q48 191 48 245 Q48 301 66 348 Q84 395 116 429.5 Q148 464 191 483.5 Q234 503 284 503 Q332 503 373 486.5 Q414 470 443 441.5 Q472 413 488.5 375.5 Q505 338 505 297 Q505 275 498 261.5 Q491 248 466 248 L99 248 Z M454 286 Q457 317 445.5 348 Q434 379 411 403 Q388 427 355.5 442 Q323 457 284 457 Q251 457 220 445.5 Q189 434 164 411.5 Q139 389 122.5 357 Q106 325 101 286 L454 286 Z M206 655 Q193 664 193 678 Q193 691 202 699 Q211 707 222 707 Q234 707 244.5 698 Q255 689 263 681 L361 587 Q368 581 368 572 Q368 565 363 560 Q358 555 351 555 Q344 555 339 559 L206 655 Z " />
<glyph glyph-name="ebreve" unicode="&#x115;" horiz-adv-x="559" d="M99 248 Q100 203 113 164.5 Q126 126 150 97.5 Q174 69 209 53 Q244 37 289 37 Q342 37 380 55.5 Q418 74 446 100 Q456 107 462 107 Q472 107 479 99.5 Q486 92 486 83 Q486 71 475 62 Q446 33 396.5 11.5 Q347 -10 286 -10 Q232 -10 188 9.5 Q144 29 113 63 Q82 97 65 144 Q48 191 48 245 Q48 301 66 348 Q84 395 116 429.5 Q148 464 191 483.5 Q234 503 284 503 Q332 503 373 486.5 Q414 470 443 441.5 Q472 413 488.5 375.5 Q505 338 505 297 Q505 275 498 261.5 Q491 248 466 248 L99 248 Z M454 286 Q457 317 445.5 348 Q434 379 411 403 Q388 427 355.5 442 Q323 457 284 457 Q251 457 220 445.5 Q189 434 164 411.5 Q139 389 122.5 357 Q106 325 101 286 L454 286 Z M338 629 Q359 648 369 682 Q372 697 388 697 Q398 697 403 691.5 Q408 686 408 678 Q408 658 399 639 Q390 620 373.5 604 Q357 588 333 578.5 Q309 569 280 569 Q251 569 227.5 578.5 Q204 588 187.5 604 Q171 620 162 639 Q153 658 153 678 Q153 686 157.5 691.5 Q162 697 173 697 Q187 697 192 682 Q202 648 223 629 Q244 610 280 610 Q317 610 338 629 Z " />
<glyph glyph-name="ecaron" unicode="&#x11b;" horiz-adv-x="559" d="M99 248 Q100 203 113 164.5 Q126 126 150 97.5 Q174 69 209 53 Q244 37 289 37 Q342 37 380 55.5 Q418 74 446 100 Q456 107 462 107 Q472 107 479 99.5 Q486 92 486 83 Q486 71 475 62 Q446 33 396.5 11.5 Q347 -10 286 -10 Q232 -10 188 9.5 Q144 29 113 63 Q82 97 65 144 Q48 191 48 245 Q48 301 66 348 Q84 395 116 429.5 Q148 464 191 483.5 Q234 503 284 503 Q332 503 373 486.5 Q414 470 443 441.5 Q472 413 488.5 375.5 Q505 338 505 297 Q505 275 498 261.5 Q491 248 466 248 L99 248 Z M454 286 Q457 317 445.5 348 Q434 379 411 403 Q388 427 355.5 442 Q323 457 284 457 Q251 457 220 445.5 Q189 434 164 411.5 Q139 389 122.5 357 Q106 325 101 286 L454 286 Z M149 671 Q137 683 137 691 Q137 697 142 702 Q147 707 154 707 Q160 707 172 698 L280 610 L388 698 Q400 707 406 707 Q413 707 418 702 Q423 697 423 691 Q423 683 411 671 L303 565 Q293 555 280 555 Q270 555 258 565 L149 671 Z " />
<glyph glyph-name="edotaccent" unicode="&#x117;" horiz-adv-x="559" d="M99 248 Q100 203 113 164.5 Q126 126 150 97.5 Q174 69 209 53 Q244 37 289 37 Q342 37 380 55.5 Q418 74 446 100 Q456 107 462 107 Q472 107 479 99.5 Q486 92 486 83 Q486 71 475 62 Q446 33 396.5 11.5 Q347 -10 286 -10 Q232 -10 188 9.5 Q144 29 113 63 Q82 97 65 144 Q48 191 48 245 Q48 301 66 348 Q84 395 116 429.5 Q148 464 191 483.5 Q234 503 284 503 Q332 503 373 486.5 Q414 470 443 441.5 Q472 413 488.5 375.5 Q505 338 505 297 Q505 275 498 261.5 Q491 248 466 248 L99 248 Z M454 286 Q457 317 445.5 348 Q434 379 411 403 Q388 427 355.5 442 Q323 457 284 457 Q251 457 220 445.5 Q189 434 164 411.5 Q139 389 122.5 357 Q106 325 101 286 L454 286 Z M254 622 Q244 632 244 650 Q244 689 281 689 Q298 689 308.5 679 Q319 669 319 650 Q319 631 308.5 622 Q298 613 281 613 Q264 613 254 622 Z " />
<glyph glyph-name="emacron" unicode="&#x113;" horiz-adv-x="559" d="M99 248 Q100 203 113 164.5 Q126 126 150 97.5 Q174 69 209 53 Q244 37 289 37 Q342 37 380 55.5 Q418 74 446 100 Q456 107 462 107 Q472 107 479 99.5 Q486 92 486 83 Q486 71 475 62 Q446 33 396.5 11.5 Q347 -10 286 -10 Q232 -10 188 9.5 Q144 29 113 63 Q82 97 65 144 Q48 191 48 245 Q48 301 66 348 Q84 395 116 429.5 Q148 464 191 483.5 Q234 503 284 503 Q332 503 373 486.5 Q414 470 443 441.5 Q472 413 488.5 375.5 Q505 338 505 297 Q505 275 498 261.5 Q491 248 466 248 L99 248 Z M454 286 Q457 317 445.5 348 Q434 379 411 403 Q388 427 355.5 442 Q323 457 284 457 Q251 457 220 445.5 Q189 434 164 411.5 Q139 389 122.5 357 Q106 325 101 286 L454 286 Z M178 628 Q167 628 160 635 Q153 642 153 652 Q153 663 160 669.5 Q167 676 178 676 L380 676 Q391 676 398 669.5 Q405 663 405 652 Q405 642 398 635 Q391 628 380 628 L178 628 Z " />
<glyph glyph-name="eogonek" unicode="&#x119;" horiz-adv-x="559" d="M99 248 Q100 203 113 164.5 Q126 126 150 97.5 Q174 69 209 53 Q244 37 289 37 Q342 37 380 55.5 Q418 74 446 100 Q456 107 462 107 Q472 107 479 99.5 Q486 92 486 83 Q486 71 475 62 Q450 37 410 17 Q355 -17 331.5 -51.5 Q308 -86 308 -116 Q308 -142 323 -156 Q338 -170 361 -171 Q375 -171 383 -175.5 Q391 -180 391 -190 Q391 -203 382.5 -207.5 Q374 -212 357 -212 Q318 -212 290.5 -191 Q263 -170 263 -126 Q263 -89 284.5 -58.5 Q306 -28 335 -5 Q323 -7 311 -8.5 Q299 -10 286 -10 Q232 -10 188 9.5 Q144 29 113 63 Q82 97 65 144 Q48 191 48 245 Q48 301 66 348 Q84 395 116 429.5 Q148 464 191 483.5 Q234 503 284 503 Q332 503 373 486.5 Q414 470 443 441.5 Q472 413 488.5 375.5 Q505 338 505 297 Q505 275 498 261.5 Q491 248 466 248 L99 248 Z M454 286 Q457 317 445.5 348 Q434 379 411 403 Q388 427 355.5 442 Q323 457 284 457 Q251 457 220 445.5 Q189 434 164 411.5 Q139 389 122.5 357 Q106 325 101 286 L454 286 Z " />
<glyph glyph-name="gbreve" unicode="&#x11f;" horiz-adv-x="603" d="M526 37 Q526 -200 303 -200 Q248 -200 209.5 -185.5 Q171 -171 140 -154 Q121 -144 121 -129 Q121 -119 127.5 -111.5 Q134 -104 144 -104 Q153 -104 166.5 -111.5 Q180 -119 199.5 -128 Q219 -137 245.5 -144.5 Q272 -152 307 -152 Q398 -152 436.5 -102 Q475 -52 475 42 L475 121 Q446 63 397.5 26.5 Q349 -10 280 -10 Q231 -10 188.5 9 Q146 28 115 62 Q84 96 66 142.5 Q48 189 48 245 Q48 301 66 348 Q84 395 115.5 429.5 Q147 464 190 483.5 Q233 503 282 503 Q354 503 400 467.5 Q446 432 475 375 L475 471 Q475 493 500 493 Q512 493 519 486.5 Q526 480 526 471 L526 37 Z M154 96 Q179 68 213 52.5 Q247 37 287 37 Q327 37 361.5 52.5 Q396 68 421 96 Q446 124 460.5 162 Q475 200 475 245 Q475 290 461 328.5 Q447 367 421.5 395.5 Q396 424 361.5 440.5 Q327 457 287 457 Q247 457 212.5 440.5 Q178 424 153 395.5 Q128 367 114 328.5 Q100 290 100 245 Q100 200 114.5 162 Q129 124 154 96 Z M359 629 Q380 648 390 682 Q393 697 409 697 Q419 697 424 691.5 Q429 686 429 678 Q429 658 420 639 Q411 620 394.5 604 Q378 588 354 578.5 Q330 569 301 569 Q272 569 248.5 578.5 Q225 588 208.5 604 Q192 620 183 639 Q174 658 174 678 Q174 686 178.5 691.5 Q183 697 194 697 Q208 697 213 682 Q223 648 244 629 Q265 610 301 610 Q338 610 359 629 Z " />
<glyph glyph-name="gcircumflex" unicode="&#x11d;" horiz-adv-x="603" d="M526 37 Q526 -200 303 -200 Q248 -200 209.5 -185.5 Q171 -171 140 -154 Q121 -144 121 -129 Q121 -119 127.5 -111.5 Q134 -104 144 -104 Q153 -104 166.5 -111.5 Q180 -119 199.5 -128 Q219 -137 245.5 -144.5 Q272 -152 307 -152 Q398 -152 436.5 -102 Q475 -52 475 42 L475 121 Q446 63 397.5 26.5 Q349 -10 280 -10 Q231 -10 188.5 9 Q146 28 115 62 Q84 96 66 142.5 Q48 189 48 245 Q48 301 66 348 Q84 395 115.5 429.5 Q147 464 190 483.5 Q233 503 282 503 Q354 503 400 467.5 Q446 432 475 375 L475 471 Q475 493 500 493 Q512 493 519 486.5 Q526 480 526 471 L526 37 Z M154 96 Q179 68 213 52.5 Q247 37 287 37 Q327 37 361.5 52.5 Q396 68 421 96 Q446 124 460.5 162 Q475 200 475 245 Q475 290 461 328.5 Q447 367 421.5 395.5 Q396 424 361.5 440.5 Q327 457 287 457 Q247 457 212.5 440.5 Q178 424 153 395.5 Q128 367 114 328.5 Q100 290 100 245 Q100 200 114.5 162 Q129 124 154 96 Z M195 564 Q188 559 184.5 557 Q181 555 177 555 Q170 555 165 560 Q160 565 160 572 Q160 579 172 591 L281 697 Q291 707 303 707 Q317 707 326 697 L434 591 Q446 579 446 572 Q446 565 441 560 Q436 555 429 555 Q424 555 411 564 L303 653 L195 564 Z " />
<glyph glyph-name="gcommaaccent" unicode="&#x123;" horiz-adv-x="603" d="M526 37 Q526 -200 303 -200 Q248 -200 209.5 -185.5 Q171 -171 140 -154 Q121 -144 121 -129 Q121 -119 127.5 -111.5 Q134 -104 144 -104 Q153 -104 166.5 -111.5 Q180 -119 199.5 -128 Q219 -137 245.5 -144.5 Q272 -152 307 -152 Q398 -152 436.5 -102 Q475 -52 475 42 L475 121 Q446 63 397.5 26.5 Q349 -10 280 -10 Q231 -10 188.5 9 Q146 28 115 62 Q84 96 66 142.5 Q48 189 48 245 Q48 301 66 348 Q84 395 115.5 429.5 Q147 464 190 483.5 Q233 503 282 503 Q354 503 400 467.5 Q446 432 475 375 L475 471 Q475 493 500 493 Q512 493 519 486.5 Q526 480 526 471 L526 37 Z M154 96 Q179 68 213 52.5 Q247 37 287 37 Q327 37 361.5 52.5 Q396 68 421 96 Q446 124 460.5 162 Q475 200 475 245 Q475 290 461 328.5 Q447 367 421.5 395.5 Q396 424 361.5 440.5 Q327 457 287 457 Q247 457 212.5 440.5 Q178 424 153 395.5 Q128 367 114 328.5 Q100 290 100 245 Q100 200 114.5 162 Q129 124 154 96 Z M304 698 Q287 675 289 644 Q337 644 337 601 Q337 581 325.5 569.5 Q314 558 296 558 Q276 558 263 571.5 Q250 585 250 617 Q250 653 259.5 680 Q269 707 282.5 724 Q296 741 311.5 749.5 Q327 758 338 758 Q353 758 353 743 Q353 731 342 728 Q321 721 304 698 Z " />
<glyph glyph-name="gdotaccent" unicode="&#x121;" horiz-adv-x="603" d="M526 37 Q526 -200 303 -200 Q248 -200 209.5 -185.5 Q171 -171 140 -154 Q121 -144 121 -129 Q121 -119 127.5 -111.5 Q134 -104 144 -104 Q153 -104 166.5 -111.5 Q180 -119 199.5 -128 Q219 -137 245.5 -144.5 Q272 -152 307 -152 Q398 -152 436.5 -102 Q475 -52 475 42 L475 121 Q446 63 397.5 26.5 Q349 -10 280 -10 Q231 -10 188.5 9 Q146 28 115 62 Q84 96 66 142.5 Q48 189 48 245 Q48 301 66 348 Q84 395 115.5 429.5 Q147 464 190 483.5 Q233 503 282 503 Q354 503 400 467.5 Q446 432 475 375 L475 471 Q475 493 500 493 Q512 493 519 486.5 Q526 480 526 471 L526 37 Z M154 96 Q179 68 213 52.5 Q247 37 287 37 Q327 37 361.5 52.5 Q396 68 421 96 Q446 124 460.5 162 Q475 200 475 245 Q475 290 461 328.5 Q447 367 421.5 395.5 Q396 424 361.5 440.5 Q327 457 287 457 Q247 457 212.5 440.5 Q178 424 153 395.5 Q128 367 114 328.5 Q100 290 100 245 Q100 200 114.5 162 Q129 124 154 96 Z M275 622 Q265 632 265 650 Q265 689 302 689 Q319 689 329.5 679 Q340 669 340 650 Q340 631 329.5 622 Q319 613 302 613 Q285 613 275 622 Z " />
<glyph glyph-name="hbar" unicode="&#x127;" horiz-adv-x="554" d="M129 24 Q129 13 122 6.5 Q115 0 104 0 Q93 0 85.5 6.5 Q78 13 78 24 L78 576 L45 576 Q34 576 27 583 Q20 590 20 600 Q20 611 27 617.5 Q34 624 45 624 L78 624 L78 666 Q78 677 85.5 683.5 Q93 690 104 690 Q115 690 122 683.5 Q129 677 129 666 L129 624 L238 624 Q249 624 256 617.5 Q263 611 263 600 Q263 590 256 583 Q249 576 238 576 L129 576 L129 405 Q150 447 189 475 Q228 503 288 503 Q337 503 373 487.5 Q409 472 433 445 Q457 418 469 381.5 Q481 345 481 303 L481 24 Q481 13 473.5 6.5 Q466 0 455 0 Q444 0 437 6.5 Q430 13 430 24 L430 296 Q430 329 420 358.5 Q410 388 391 409.5 Q372 431 343.5 444 Q315 457 279 457 Q243 457 215 444 Q187 431 168 409 Q149 387 139 357.5 Q129 328 129 295 L129 24 Z " />
<glyph glyph-name="hcircumflex" unicode="&#x125;" horiz-adv-x="554" d="M129 24 Q129 13 122 6.5 Q115 0 104 0 Q93 0 85.5 6.5 Q78 13 78 24 L78 666 Q78 677 85.5 683.5 Q93 690 104 690 Q115 690 122 683.5 Q129 677 129 666 L129 405 Q150 447 189 475 Q228 503 288 503 Q337 503 373 487.5 Q409 472 433 445 Q457 418 469 381.5 Q481 345 481 303 L481 24 Q481 13 473.5 6.5 Q466 0 455 0 Q444 0 437 6.5 Q430 13 430 24 L430 296 Q430 329 420 358.5 Q410 388 391 409.5 Q372 431 343.5 444 Q315 457 279 457 Q243 457 215 444 Q187 431 168 409 Q149 387 139 357.5 Q129 328 129 295 L129 24 Z M130 744 Q123 739 119.5 737 Q116 735 112 735 Q105 735 100 740 Q95 745 95 752 Q95 759 107 771 L216 877 Q226 887 238 887 Q252 887 261 877 L369 771 Q381 759 381 752 Q381 745 376 740 Q371 735 364 735 Q359 735 346 744 L238 833 L130 744 Z " />
<glyph glyph-name="iacute" unicode="&#xed;" horiz-adv-x="212" d="M129 94 Q129 72 135.5 59.5 Q142 47 162 47 Q173 47 178 40 Q183 33 183 24 Q183 13 175.5 6.5 Q168 0 153 0 Q109 0 93.5 25.5 Q78 51 78 93 L78 469 Q78 480 85 486.5 Q92 493 104 493 Q116 493 122.5 486.5 Q129 480 129 469 L129 94 Z M69 559 Q64 555 57 555 Q49 555 44.5 560 Q40 565 40 572 Q40 581 47 587 L145 681 Q153 689 163.5 698 Q174 707 186 707 Q197 707 206 699 Q215 691 215 678 Q215 664 202 655 L69 559 Z " />
<glyph glyph-name="icircumflex" unicode="&#xee;" horiz-adv-x="212" d="M129 94 Q129 72 135.5 59.5 Q142 47 162 47 Q173 47 178 40 Q183 33 183 24 Q183 13 175.5 6.5 Q168 0 153 0 Q109 0 93.5 25.5 Q78 51 78 93 L78 469 Q78 480 85 486.5 Q92 493 104 493 Q116 493 122.5 486.5 Q129 480 129 469 L129 94 Z M-1 564 Q-8 559 -11.5 557 Q-15 555 -19 555 Q-26 555 -31 560 Q-36 565 -36 572 Q-36 579 -24 591 L85 697 Q95 707 107 707 Q121 707 130 697 L238 591 Q250 579 250 572 Q250 565 245 560 Q240 555 233 555 Q228 555 215 564 L107 653 L-1 564 Z " />
<glyph glyph-name="idieresis" unicode="&#xef;" horiz-adv-x="212" d="M129 94 Q129 72 135.5 59.5 Q142 47 162 47 Q173 47 178 40 Q183 33 183 24 Q183 13 175.5 6.5 Q168 0 153 0 Q109 0 93.5 25.5 Q78 51 78 93 L78 469 Q78 480 85 486.5 Q92 493 104 493 Q116 493 122.5 486.5 Q129 480 129 469 L129 94 Z M33 600 Q-3 600 -3 635 Q-3 672 33 672 Q48 672 58.5 662.5 Q69 653 69 635 Q69 600 33 600 Z M179 600 Q143 600 143 636 Q143 672 179 672 Q194 672 204.5 662.5 Q215 653 215 636 Q215 600 179 600 Z " />
<glyph glyph-name="igrave" unicode="&#xec;" horiz-adv-x="212" d="M129 94 Q129 72 135.5 59.5 Q142 47 162 47 Q173 47 178 40 Q183 33 183 24 Q183 13 175.5 6.5 Q168 0 153 0 Q109 0 93.5 25.5 Q78 51 78 93 L78 469 Q78 480 85 486.5 Q92 493 104 493 Q116 493 122.5 486.5 Q129 480 129 469 L129 94 Z M13 655 Q0 664 0 678 Q0 691 9 699 Q18 707 29 707 Q41 707 51.5 698 Q62 689 70 681 L168 587 Q175 581 175 572 Q175 565 170 560 Q165 555 158 555 Q151 555 146 559 L13 655 Z " />
<glyph glyph-name="ibreve" unicode="&#x12d;" horiz-adv-x="212" d="M129 94 Q129 72 135.5 59.5 Q142 47 162 47 Q173 47 178 40 Q183 33 183 24 Q183 13 175.5 6.5 Q168 0 153 0 Q109 0 93.5 25.5 Q78 51 78 93 L78 469 Q78 480 85 486.5 Q92 493 104 493 Q116 493 122.5 486.5 Q129 480 129 469 L129 94 Z M155 629 Q176 648 186 682 Q189 697 205 697 Q215 697 220 691.5 Q225 686 225 678 Q225 658 216 639 Q207 620 190.5 604 Q174 588 150 578.5 Q126 569 97 569 Q68 569 44.5 578.5 Q21 588 4.5 604 Q-12 620 -21 639 Q-30 658 -30 678 Q-30 686 -25.5 691.5 Q-21 697 -10 697 Q4 697 9 682 Q19 648 40 629 Q61 610 97 610 Q134 610 155 629 Z " />
<glyph glyph-name="i.dot" unicode="&#xe166;" horiz-adv-x="212" d="M103 601 Q68 601 68 637 Q68 674 103 674 Q140 674 140 637 Q140 601 103 601 Z M129 94 Q129 72 135.5 59.5 Q142 47 162 47 Q173 47 178 40 Q183 33 183 24 Q183 13 175.5 6.5 Q168 0 153 0 Q109 0 93.5 25.5 Q78 51 78 93 L78 469 Q78 480 85 486.5 Q92 493 104 493 Q116 493 122.5 486.5 Q129 480 129 469 L129 94 Z " />
<glyph glyph-name="imacron" unicode="&#x12b;" horiz-adv-x="212" d="M129 94 Q129 72 135.5 59.5 Q142 47 162 47 Q173 47 178 40 Q183 33 183 24 Q183 13 175.5 6.5 Q168 0 153 0 Q109 0 93.5 25.5 Q78 51 78 93 L78 469 Q78 480 85 486.5 Q92 493 104 493 Q116 493 122.5 486.5 Q129 480 129 469 L129 94 Z M5 628 Q-6 628 -13 635 Q-20 642 -20 652 Q-20 663 -13 669.5 Q-6 676 5 676 L207 676 Q218 676 225 669.5 Q232 663 232 652 Q232 642 225 635 Q218 628 207 628 L5 628 Z " />
<glyph glyph-name="iogonek" unicode="&#x12f;" horiz-adv-x="212" d="M129 94 Q129 72 135.5 59.5 Q142 47 162 47 Q173 47 178 40 Q183 33 183 24 Q183 13 176 6.5 Q169 0 155 0 Q115 -30 97 -60 Q79 -90 79 -116 Q79 -142 94 -156 Q109 -170 132 -171 Q161 -171 161 -190 Q161 -203 152.5 -207.5 Q144 -212 127 -212 Q88 -212 60.5 -191 Q33 -170 33 -126 Q33 -84 59.5 -51.5 Q86 -19 120 5 Q96 14 87 37 Q78 60 78 93 L78 469 Q78 480 85 486.5 Q92 493 104 493 Q116 493 122.5 486.5 Q129 480 129 469 L129 94 Z M103 605 Q66 605 66 642 Q66 680 103 680 Q121 680 131.5 670 Q142 660 142 642 Q142 623 131.5 614 Q121 605 103 605 Z " />
<glyph glyph-name="itilde" unicode="&#x129;" horiz-adv-x="212" d="M129 94 Q129 72 135.5 59.5 Q142 47 162 47 Q173 47 178 40 Q183 33 183 24 Q183 13 175.5 6.5 Q168 0 153 0 Q109 0 93.5 25.5 Q78 51 78 93 L78 469 Q78 480 85 486.5 Q92 493 104 493 Q116 493 122.5 486.5 Q129 480 129 469 L129 94 Z M204 643 Q215 651 226 666 Q233 678 244 678 Q252 678 258.5 672 Q265 666 265 656 Q265 646 258 636 Q244 615 224.5 602 Q205 589 179 589 Q156 589 140 596 Q124 603 109.5 611 Q95 619 80.5 626 Q66 633 47 633 Q24 633 10.5 624 Q-3 615 -13 603 Q-17 599 -21 596.5 Q-25 594 -31 594 Q-40 594 -46.5 599.5 Q-53 605 -53 613 Q-53 622 -45 632 Q-28 652 -8 665 Q12 678 46 678 Q68 678 84.5 671.5 Q101 665 115.5 656.5 Q130 648 144.5 641.5 Q159 635 176 635 Q193 635 204 643 Z " />
<glyph glyph-name="jcircumflex" unicode="&#x135;" horiz-adv-x="207" d="M129 -27 Q129 -103 92.5 -146.5 Q56 -190 -19 -190 Q-49 -190 -49 -165 Q-49 -143 -24 -143 Q10 -143 30.5 -131.5 Q51 -120 61.5 -101.5 Q72 -83 75 -60 Q78 -37 78 -13 L78 469 Q78 480 85 486.5 Q92 493 104 493 Q116 493 122.5 486.5 Q129 480 129 469 L129 -27 Z M-3 564 Q-10 559 -13.5 557 Q-17 555 -21 555 Q-28 555 -33 560 Q-38 565 -38 572 Q-38 579 -26 591 L83 697 Q93 707 105 707 Q119 707 128 697 L236 591 Q248 579 248 572 Q248 565 243 560 Q238 555 231 555 Q226 555 213 564 L105 653 L-3 564 Z " />
<glyph glyph-name="ij" unicode="&#x133;" horiz-adv-x="419" d="M103 601 Q68 601 68 637 Q68 674 103 674 Q140 674 140 637 Q140 601 103 601 Z M129 94 Q129 72 135.5 59.5 Q142 47 162 47 Q173 47 178 40 Q183 33 183 24 Q183 13 175.5 6.5 Q168 0 153 0 Q109 0 93.5 25.5 Q78 51 78 93 L78 469 Q78 480 85 486.5 Q92 493 104 493 Q116 493 122.5 486.5 Q129 480 129 469 L129 94 Z M341 -27 Q341 -103 304.5 -146.5 Q268 -190 193 -190 Q163 -190 163 -165 Q163 -143 188 -143 Q222 -143 242.5 -131.5 Q263 -120 273.5 -101.5 Q284 -83 287 -60 Q290 -37 290 -13 L290 469 Q290 480 297 486.5 Q304 493 316 493 Q328 493 334.5 486.5 Q341 480 341 469 L341 -27 Z M315 601 Q298 601 288.5 610.5 Q279 620 279 637 Q279 674 315 674 Q352 674 352 637 Q352 601 315 601 Z " />
<glyph glyph-name="kcommaaccent" unicode="&#x137;" horiz-adv-x="504" d="M129 24 Q129 14 123 7 Q117 0 104 0 Q91 0 84.5 7 Q78 14 78 24 L78 666 Q78 676 84 683 Q90 690 104 690 Q118 690 123.5 683 Q129 676 129 666 L129 252 L394 482 Q399 487 405 490 Q411 493 418 493 Q429 493 434.5 485.5 Q440 478 440 470 Q440 457 426 446 L237 283 L451 45 Q461 35 461 25 Q461 14 453.5 7 Q446 0 435 0 Q424 0 413 12 L199 250 L129 190 L129 24 Z M236 -192 Q253 -169 252 -138 Q203 -138 203 -95 Q203 -75 214.5 -63.5 Q226 -52 245 -52 Q265 -52 278 -65.5 Q291 -79 291 -111 Q291 -148 281.5 -174.5 Q272 -201 258 -218.5 Q244 -236 228.5 -244 Q213 -252 202 -252 Q187 -252 187 -237 Q187 -227 199 -222 Q219 -215 236 -192 Z " />
<glyph glyph-name="lacute" unicode="&#x13a;" horiz-adv-x="212" d="M129 94 Q129 72 135.5 59.5 Q142 47 162 47 Q173 47 178 40 Q183 33 183 24 Q183 13 175.5 6.5 Q168 0 153 0 Q109 0 93.5 25.5 Q78 51 78 93 L78 666 Q78 676 85 683 Q92 690 104 690 Q116 690 122.5 683 Q129 676 129 666 L129 94 Z M78 739 Q73 735 66 735 Q58 735 53.5 740 Q49 745 49 752 Q49 761 56 767 L154 861 Q162 869 172.5 878 Q183 887 195 887 Q206 887 215 879 Q224 871 224 858 Q224 844 211 835 L78 739 Z " />
<glyph glyph-name="lcaron" unicode="&#x13e;" horiz-adv-x="229" d="M129 94 Q129 72 135.5 59.5 Q142 47 162 47 Q173 47 178 40 Q183 33 183 24 Q183 13 175.5 6.5 Q168 0 153 0 Q109 0 93.5 25.5 Q78 51 78 93 L78 666 Q78 676 85 683 Q92 690 104 690 Q116 690 122.5 683 Q129 676 129 666 L129 94 Z M216 608 Q233 631 231 662 Q183 662 183 705 Q183 725 194.5 736.5 Q206 748 224 748 Q244 748 257 734.5 Q270 721 270 689 Q270 652 260.5 625.5 Q251 599 237.5 581.5 Q224 564 208.5 556 Q193 548 182 548 Q166 548 166 563 Q166 573 178 578 Q199 585 216 608 Z " />
<glyph glyph-name="lcommaaccent" unicode="&#x13c;" horiz-adv-x="212" d="M129 94 Q129 72 135.5 59.5 Q142 47 162 47 Q173 47 178 40 Q183 33 183 24 Q183 13 175.5 6.5 Q168 0 153 0 Q109 0 93.5 25.5 Q78 51 78 93 L78 666 Q78 676 85 683 Q92 690 104 690 Q116 690 122.5 683 Q129 676 129 666 L129 94 Z M117 -192 Q134 -169 133 -138 Q84 -138 84 -95 Q84 -75 95.5 -63.5 Q107 -52 126 -52 Q146 -52 159 -65.5 Q172 -79 172 -111 Q172 -148 162.5 -174.5 Q153 -201 139 -218.5 Q125 -236 109.5 -244 Q94 -252 83 -252 Q68 -252 68 -237 Q68 -227 80 -222 Q100 -215 117 -192 Z " />
<glyph glyph-name="ldot" unicode="&#x140;" horiz-adv-x="226" d="M129 94 Q129 72 135.5 59.5 Q142 47 162 47 Q173 47 178 40 Q183 33 183 24 Q183 13 175.5 6.5 Q168 0 153 0 Q109 0 93.5 25.5 Q78 51 78 93 L78 666 Q78 676 85 683 Q92 690 104 690 Q116 690 122.5 683 Q129 676 129 666 L129 94 Z M193 326 Q183 335 183 354 Q183 392 221 392 Q238 392 248.5 382 Q259 372 259 354 Q259 335 248.5 326 Q238 317 221 317 Q204 317 193 326 Z " />
<glyph glyph-name="ntilde" unicode="&#xf1;" horiz-adv-x="563" d="M129 24 Q129 14 122 7 Q115 0 104 0 Q93 0 85.5 6.5 Q78 13 78 24 L78 471 Q78 480 84.5 486.5 Q91 493 104 493 Q117 493 123 486.5 Q129 480 129 471 L129 405 Q150 447 192.5 475 Q235 503 297 503 Q346 503 382 488 Q418 473 442 446 Q466 419 478 382.5 Q490 346 490 303 L490 24 Q490 14 482.5 7 Q475 0 464 0 Q453 0 445.5 7 Q438 14 438 24 L438 296 Q438 330 428 359.5 Q418 389 399.5 410.5 Q381 432 353 444.5 Q325 457 289 457 Q251 457 221 444 Q191 431 170.5 409 Q150 387 139.5 357.5 Q129 328 129 295 L129 24 Z M379 643 Q390 651 401 666 Q408 678 419 678 Q427 678 433.5 672 Q440 666 440 656 Q440 646 433 636 Q419 615 399.5 602 Q380 589 354 589 Q331 589 315 596 Q299 603 284.5 611 Q270 619 255.5 626 Q241 633 222 633 Q199 633 185.5 624 Q172 615 162 603 Q158 599 154 596.5 Q150 594 144 594 Q135 594 128.5 599.5 Q122 605 122 613 Q122 622 130 632 Q147 652 167 665 Q187 678 221 678 Q243 678 259.5 671.5 Q276 665 290.5 656.5 Q305 648 319.5 641.5 Q334 635 351 635 Q368 635 379 643 Z " />
<glyph glyph-name="nacute" unicode="&#x144;" horiz-adv-x="563" d="M129 24 Q129 14 122 7 Q115 0 104 0 Q93 0 85.5 6.5 Q78 13 78 24 L78 471 Q78 480 84.5 486.5 Q91 493 104 493 Q117 493 123 486.5 Q129 480 129 471 L129 405 Q150 447 192.5 475 Q235 503 297 503 Q346 503 382 488 Q418 473 442 446 Q466 419 478 382.5 Q490 346 490 303 L490 24 Q490 14 482.5 7 Q475 0 464 0 Q453 0 445.5 7 Q438 14 438 24 L438 296 Q438 330 428 359.5 Q418 389 399.5 410.5 Q381 432 353 444.5 Q325 457 289 457 Q251 457 221 444 Q191 431 170.5 409 Q150 387 139.5 357.5 Q129 328 129 295 L129 24 Z M224 559 Q219 555 212 555 Q204 555 199.5 560 Q195 565 195 572 Q195 581 202 587 L300 681 Q308 689 318.5 698 Q329 707 341 707 Q352 707 361 699 Q370 691 370 678 Q370 664 357 655 L224 559 Z " />
<glyph glyph-name="ncaron" unicode="&#x148;" horiz-adv-x="563" d="M129 24 Q129 14 122 7 Q115 0 104 0 Q93 0 85.5 6.5 Q78 13 78 24 L78 471 Q78 480 84.5 486.5 Q91 493 104 493 Q117 493 123 486.5 Q129 480 129 471 L129 405 Q150 447 192.5 475 Q235 503 297 503 Q346 503 382 488 Q418 473 442 446 Q466 419 478 382.5 Q490 346 490 303 L490 24 Q490 14 482.5 7 Q475 0 464 0 Q453 0 445.5 7 Q438 14 438 24 L438 296 Q438 330 428 359.5 Q418 389 399.5 410.5 Q381 432 353 444.5 Q325 457 289 457 Q251 457 221 444 Q191 431 170.5 409 Q150 387 139.5 357.5 Q129 328 129 295 L129 24 Z M151 671 Q139 683 139 691 Q139 697 144 702 Q149 707 156 707 Q162 707 174 698 L282 610 L390 698 Q402 707 408 707 Q415 707 420 702 Q425 697 425 691 Q425 683 413 671 L305 565 Q295 555 282 555 Q272 555 260 565 L151 671 Z " />
<glyph glyph-name="ncommaaccent" unicode="&#x146;" horiz-adv-x="563" d="M129 24 Q129 14 122 7 Q115 0 104 0 Q93 0 85.5 6.5 Q78 13 78 24 L78 471 Q78 480 84.5 486.5 Q91 493 104 493 Q117 493 123 486.5 Q129 480 129 471 L129 405 Q150 447 192.5 475 Q235 503 297 503 Q346 503 382 488 Q418 473 442 446 Q466 419 478 382.5 Q490 346 490 303 L490 24 Q490 14 482.5 7 Q475 0 464 0 Q453 0 445.5 7 Q438 14 438 24 L438 296 Q438 330 428 359.5 Q418 389 399.5 410.5 Q381 432 353 444.5 Q325 457 289 457 Q251 457 221 444 Q191 431 170.5 409 Q150 387 139.5 357.5 Q129 328 129 295 L129 24 Z M281 -192 Q298 -169 297 -138 Q248 -138 248 -95 Q248 -75 259.5 -63.5 Q271 -52 290 -52 Q310 -52 323 -65.5 Q336 -79 336 -111 Q336 -148 326.5 -174.5 Q317 -201 303 -218.5 Q289 -236 273.5 -244 Q258 -252 247 -252 Q232 -252 232 -237 Q232 -227 244 -222 Q264 -215 281 -192 Z " />
<glyph glyph-name="oacute" unicode="&#xf3;" horiz-adv-x="572" d="M189 9 Q145 29 113.5 63.5 Q82 98 65 144.5 Q48 191 48 246 Q48 301 65 348 Q82 395 113.5 429.5 Q145 464 189 483.5 Q233 503 286 503 Q339 503 383 483.5 Q427 464 458.5 429.5 Q490 395 507 348 Q524 301 524 246 Q524 191 507 144.5 Q490 98 458.5 63.5 Q427 29 383 9.5 Q339 -10 286 -10 Q233 -10 189 9 Z M150 97 Q174 69 208.5 53 Q243 37 286 37 Q329 37 363.5 53 Q398 69 422 97 Q446 125 458.5 163.5 Q471 202 471 246 Q471 290 458.5 328.5 Q446 367 422 395.5 Q398 424 363.5 440.5 Q329 457 286 457 Q243 457 209 441 Q175 425 151 396.5 Q127 368 114 329.5 Q101 291 101 246 Q101 202 113.5 163.5 Q126 125 150 97 Z M229 559 Q224 555 217 555 Q209 555 204.5 560 Q200 565 200 572 Q200 581 207 587 L305 681 Q313 689 323.5 698 Q334 707 346 707 Q357 707 366 699 Q375 691 375 678 Q375 664 362 655 L229 559 Z " />
<glyph glyph-name="ocircumflex" unicode="&#xf4;" horiz-adv-x="572" d="M189 9 Q145 29 113.5 63.5 Q82 98 65 144.5 Q48 191 48 246 Q48 301 65 348 Q82 395 113.5 429.5 Q145 464 189 483.5 Q233 503 286 503 Q339 503 383 483.5 Q427 464 458.5 429.5 Q490 395 507 348 Q524 301 524 246 Q524 191 507 144.5 Q490 98 458.5 63.5 Q427 29 383 9.5 Q339 -10 286 -10 Q233 -10 189 9 Z M150 97 Q174 69 208.5 53 Q243 37 286 37 Q329 37 363.5 53 Q398 69 422 97 Q446 125 458.5 163.5 Q471 202 471 246 Q471 290 458.5 328.5 Q446 367 422 395.5 Q398 424 363.5 440.5 Q329 457 286 457 Q243 457 209 441 Q175 425 151 396.5 Q127 368 114 329.5 Q101 291 101 246 Q101 202 113.5 163.5 Q126 125 150 97 Z M179 564 Q172 559 168.5 557 Q165 555 161 555 Q154 555 149 560 Q144 565 144 572 Q144 579 156 591 L265 697 Q275 707 287 707 Q301 707 310 697 L418 591 Q430 579 430 572 Q430 565 425 560 Q420 555 413 555 Q408 555 395 564 L287 653 L179 564 Z " />
<glyph glyph-name="odieresis" unicode="&#xf6;" horiz-adv-x="572" d="M189 9 Q145 29 113.5 63.5 Q82 98 65 144.5 Q48 191 48 246 Q48 301 65 348 Q82 395 113.5 429.5 Q145 464 189 483.5 Q233 503 286 503 Q339 503 383 483.5 Q427 464 458.5 429.5 Q490 395 507 348 Q524 301 524 246 Q524 191 507 144.5 Q490 98 458.5 63.5 Q427 29 383 9.5 Q339 -10 286 -10 Q233 -10 189 9 Z M150 97 Q174 69 208.5 53 Q243 37 286 37 Q329 37 363.5 53 Q398 69 422 97 Q446 125 458.5 163.5 Q471 202 471 246 Q471 290 458.5 328.5 Q446 367 422 395.5 Q398 424 363.5 440.5 Q329 457 286 457 Q243 457 209 441 Q175 425 151 396.5 Q127 368 114 329.5 Q101 291 101 246 Q101 202 113.5 163.5 Q126 125 150 97 Z M213 600 Q177 600 177 635 Q177 672 213 672 Q228 672 238.5 662.5 Q249 653 249 635 Q249 600 213 600 Z M359 600 Q323 600 323 636 Q323 672 359 672 Q374 672 384.5 662.5 Q395 653 395 636 Q395 600 359 600 Z " />
<glyph glyph-name="ograve" unicode="&#xf2;" horiz-adv-x="572" d="M189 9 Q145 29 113.5 63.5 Q82 98 65 144.5 Q48 191 48 246 Q48 301 65 348 Q82 395 113.5 429.5 Q145 464 189 483.5 Q233 503 286 503 Q339 503 383 483.5 Q427 464 458.5 429.5 Q490 395 507 348 Q524 301 524 246 Q524 191 507 144.5 Q490 98 458.5 63.5 Q427 29 383 9.5 Q339 -10 286 -10 Q233 -10 189 9 Z M150 97 Q174 69 208.5 53 Q243 37 286 37 Q329 37 363.5 53 Q398 69 422 97 Q446 125 458.5 163.5 Q471 202 471 246 Q471 290 458.5 328.5 Q446 367 422 395.5 Q398 424 363.5 440.5 Q329 457 286 457 Q243 457 209 441 Q175 425 151 396.5 Q127 368 114 329.5 Q101 291 101 246 Q101 202 113.5 163.5 Q126 125 150 97 Z M213 655 Q200 664 200 678 Q200 691 209 699 Q218 707 229 707 Q241 707 251.5 698 Q262 689 270 681 L368 587 Q375 581 375 572 Q375 565 370 560 Q365 555 358 555 Q351 555 346 559 L213 655 Z " />
<glyph glyph-name="otilde" unicode="&#xf5;" horiz-adv-x="572" d="M189 9 Q145 29 113.5 63.5 Q82 98 65 144.5 Q48 191 48 246 Q48 301 65 348 Q82 395 113.5 429.5 Q145 464 189 483.5 Q233 503 286 503 Q339 503 383 483.5 Q427 464 458.5 429.5 Q490 395 507 348 Q524 301 524 246 Q524 191 507 144.5 Q490 98 458.5 63.5 Q427 29 383 9.5 Q339 -10 286 -10 Q233 -10 189 9 Z M150 97 Q174 69 208.5 53 Q243 37 286 37 Q329 37 363.5 53 Q398 69 422 97 Q446 125 458.5 163.5 Q471 202 471 246 Q471 290 458.5 328.5 Q446 367 422 395.5 Q398 424 363.5 440.5 Q329 457 286 457 Q243 457 209 441 Q175 425 151 396.5 Q127 368 114 329.5 Q101 291 101 246 Q101 202 113.5 163.5 Q126 125 150 97 Z M384 643 Q395 651 406 666 Q413 678 424 678 Q432 678 438.5 672 Q445 666 445 656 Q445 646 438 636 Q424 615 404.5 602 Q385 589 359 589 Q336 589 320 596 Q304 603 289.5 611 Q275 619 260.5 626 Q246 633 227 633 Q204 633 190.5 624 Q177 615 167 603 Q163 599 159 596.5 Q155 594 149 594 Q140 594 133.5 599.5 Q127 605 127 613 Q127 622 135 632 Q152 652 172 665 Q192 678 226 678 Q248 678 264.5 671.5 Q281 665 295.5 656.5 Q310 648 324.5 641.5 Q339 635 356 635 Q373 635 384 643 Z " />
<glyph glyph-name="obreve" unicode="&#x14f;" horiz-adv-x="572" d="M189 9 Q145 29 113.5 63.5 Q82 98 65 144.5 Q48 191 48 246 Q48 301 65 348 Q82 395 113.5 429.5 Q145 464 189 483.5 Q233 503 286 503 Q339 503 383 483.5 Q427 464 458.5 429.5 Q490 395 507 348 Q524 301 524 246 Q524 191 507 144.5 Q490 98 458.5 63.5 Q427 29 383 9.5 Q339 -10 286 -10 Q233 -10 189 9 Z M150 97 Q174 69 208.5 53 Q243 37 286 37 Q329 37 363.5 53 Q398 69 422 97 Q446 125 458.5 163.5 Q471 202 471 246 Q471 290 458.5 328.5 Q446 367 422 395.5 Q398 424 363.5 440.5 Q329 457 286 457 Q243 457 209 441 Q175 425 151 396.5 Q127 368 114 329.5 Q101 291 101 246 Q101 202 113.5 163.5 Q126 125 150 97 Z M335 629 Q356 648 366 682 Q369 697 385 697 Q395 697 400 691.5 Q405 686 405 678 Q405 658 396 639 Q387 620 370.5 604 Q354 588 330 578.5 Q306 569 277 569 Q248 569 224.5 578.5 Q201 588 184.5 604 Q168 620 159 639 Q150 658 150 678 Q150 686 154.5 691.5 Q159 697 170 697 Q184 697 189 682 Q199 648 220 629 Q241 610 277 610 Q314 610 335 629 Z " />
<glyph glyph-name="ohungarumlaut" unicode="&#x151;" horiz-adv-x="572" d="M189 9 Q145 29 113.5 63.5 Q82 98 65 144.5 Q48 191 48 246 Q48 301 65 348 Q82 395 113.5 429.5 Q145 464 189 483.5 Q233 503 286 503 Q339 503 383 483.5 Q427 464 458.5 429.5 Q490 395 507 348 Q524 301 524 246 Q524 191 507 144.5 Q490 98 458.5 63.5 Q427 29 383 9.5 Q339 -10 286 -10 Q233 -10 189 9 Z M150 97 Q174 69 208.5 53 Q243 37 286 37 Q329 37 363.5 53 Q398 69 422 97 Q446 125 458.5 163.5 Q471 202 471 246 Q471 290 458.5 328.5 Q446 367 422 395.5 Q398 424 363.5 440.5 Q329 457 286 457 Q243 457 209 441 Q175 425 151 396.5 Q127 368 114 329.5 Q101 291 101 246 Q101 202 113.5 163.5 Q126 125 150 97 Z M194 559 Q189 555 182 555 Q174 555 169.5 560 Q165 565 165 572 Q165 581 172 587 L270 681 Q278 689 288.5 698 Q299 707 311 707 Q322 707 331 699 Q340 691 340 678 Q340 664 327 655 L194 559 Z M354 559 Q347 555 342 555 Q334 555 329 560 Q324 565 324 572 Q324 580 331 587 L430 681 Q438 689 448.5 698 Q459 707 470 707 Q481 707 490.5 699 Q500 691 500 678 Q500 665 487 655 L354 559 Z " />
<glyph glyph-name="omacron" unicode="&#x14d;" horiz-adv-x="572" d="M189 9 Q145 29 113.5 63.5 Q82 98 65 144.5 Q48 191 48 246 Q48 301 65 348 Q82 395 113.5 429.5 Q145 464 189 483.5 Q233 503 286 503 Q339 503 383 483.5 Q427 464 458.5 429.5 Q490 395 507 348 Q524 301 524 246 Q524 191 507 144.5 Q490 98 458.5 63.5 Q427 29 383 9.5 Q339 -10 286 -10 Q233 -10 189 9 Z M150 97 Q174 69 208.5 53 Q243 37 286 37 Q329 37 363.5 53 Q398 69 422 97 Q446 125 458.5 163.5 Q471 202 471 246 Q471 290 458.5 328.5 Q446 367 422 395.5 Q398 424 363.5 440.5 Q329 457 286 457 Q243 457 209 441 Q175 425 151 396.5 Q127 368 114 329.5 Q101 291 101 246 Q101 202 113.5 163.5 Q126 125 150 97 Z M185 628 Q174 628 167 635 Q160 642 160 652 Q160 663 167 669.5 Q174 676 185 676 L387 676 Q398 676 405 669.5 Q412 663 412 652 Q412 642 405 635 Q398 628 387 628 L185 628 Z " />
<glyph glyph-name="racute" unicode="&#x155;" horiz-adv-x="359" d="M129 24 Q129 13 122 6.5 Q115 0 104 0 Q93 0 85.5 6.5 Q78 13 78 24 L78 470 Q78 480 84.5 486.5 Q91 493 103 493 Q128 493 128 470 L128 390 Q154 443 194 473 Q234 503 305 503 Q333 503 333 481 Q333 470 327 463 Q321 456 308 456 Q227 456 178 406 Q129 356 129 269 L129 24 Z M123 559 Q118 555 111 555 Q103 555 98.5 560 Q94 565 94 572 Q94 581 101 587 L199 681 Q207 689 217.5 698 Q228 707 240 707 Q251 707 260 699 Q269 691 269 678 Q269 664 256 655 L123 559 Z " />
<glyph glyph-name="rcaron" unicode="&#x159;" horiz-adv-x="359" d="M129 24 Q129 13 122 6.5 Q115 0 104 0 Q93 0 85.5 6.5 Q78 13 78 24 L78 470 Q78 480 84.5 486.5 Q91 493 103 493 Q128 493 128 470 L128 390 Q154 443 194 473 Q234 503 305 503 Q333 503 333 481 Q333 470 327 463 Q321 456 308 456 Q227 456 178 406 Q129 356 129 269 L129 24 Z M50 671 Q38 683 38 691 Q38 697 43 702 Q48 707 55 707 Q61 707 73 698 L181 610 L289 698 Q301 707 307 707 Q314 707 319 702 Q324 697 324 691 Q324 683 312 671 L204 565 Q194 555 181 555 Q171 555 159 565 L50 671 Z " />
<glyph glyph-name="rcommaaccent" unicode="&#x157;" horiz-adv-x="359" d="M129 24 Q129 13 122 6.5 Q115 0 104 0 Q93 0 85.5 6.5 Q78 13 78 24 L78 470 Q78 480 84.5 486.5 Q91 493 103 493 Q128 493 128 470 L128 390 Q154 443 194 473 Q234 503 305 503 Q333 503 333 481 Q333 470 327 463 Q321 456 308 456 Q227 456 178 406 Q129 356 129 269 L129 24 Z M102 -192 Q119 -169 118 -138 Q69 -138 69 -95 Q69 -75 80.5 -63.5 Q92 -52 111 -52 Q131 -52 144 -65.5 Q157 -79 157 -111 Q157 -148 147.5 -174.5 Q138 -201 124 -218.5 Q110 -236 94.5 -244 Q79 -252 68 -252 Q53 -252 53 -237 Q53 -227 65 -222 Q85 -215 102 -192 Z " />
<glyph glyph-name="scaron" unicode="&#x161;" horiz-adv-x="458" d="M72 115 Q81 115 93 103 Q101 92 113.5 80.5 Q126 69 143 59 Q160 49 182.5 42.5 Q205 36 233 36 Q290 36 323.5 61 Q357 86 357 130 Q357 161 335.5 180 Q314 199 282 212.5 Q250 226 213 237 Q176 249 144 265.5 Q112 282 90.5 307 Q69 332 69 373 Q69 403 81.5 427 Q94 451 116.5 468 Q139 485 169.5 494 Q200 503 235 503 Q284 503 321 485 Q358 467 378 445 Q386 436 386 425 Q386 418 380.5 410 Q375 402 365 402 Q361 402 356 404.5 Q351 407 346 410 Q332 424 304.5 441 Q277 458 235 458 Q214 458 193.5 453.5 Q173 449 157.5 439.5 Q142 430 132 413.5 Q122 397 122 373 Q122 344 143.5 326 Q165 308 196 295.5 Q227 283 261 271 Q264 271 283.5 265 Q303 259 335 242.5 Q367 226 388.5 201.5 Q410 177 410 137 Q410 105 397 78 Q384 51 360.5 31.5 Q337 12 304 1 Q271 -10 230 -10 Q172 -10 128.5 12 Q85 34 56 72 Q49 80 49 92 Q49 100 55.5 107.5 Q62 115 72 115 Z M99 671 Q87 683 87 691 Q87 697 92 702 Q97 707 104 707 Q110 707 122 698 L230 610 L338 698 Q350 707 356 707 Q363 707 368 702 Q373 697 373 691 Q373 683 361 671 L253 565 Q243 555 230 555 Q220 555 208 565 L99 671 Z " />
<glyph glyph-name="sacute" unicode="&#x15b;" horiz-adv-x="458" d="M72 115 Q81 115 93 103 Q101 92 113.5 80.5 Q126 69 143 59 Q160 49 182.5 42.5 Q205 36 233 36 Q290 36 323.5 61 Q357 86 357 130 Q357 161 335.5 180 Q314 199 282 212.5 Q250 226 213 237 Q176 249 144 265.5 Q112 282 90.5 307 Q69 332 69 373 Q69 403 81.5 427 Q94 451 116.5 468 Q139 485 169.5 494 Q200 503 235 503 Q284 503 321 485 Q358 467 378 445 Q386 436 386 425 Q386 418 380.5 410 Q375 402 365 402 Q361 402 356 404.5 Q351 407 346 410 Q332 424 304.5 441 Q277 458 235 458 Q214 458 193.5 453.5 Q173 449 157.5 439.5 Q142 430 132 413.5 Q122 397 122 373 Q122 344 143.5 326 Q165 308 196 295.5 Q227 283 261 271 Q264 271 283.5 265 Q303 259 335 242.5 Q367 226 388.5 201.5 Q410 177 410 137 Q410 105 397 78 Q384 51 360.5 31.5 Q337 12 304 1 Q271 -10 230 -10 Q172 -10 128.5 12 Q85 34 56 72 Q49 80 49 92 Q49 100 55.5 107.5 Q62 115 72 115 Z M172 559 Q167 555 160 555 Q152 555 147.5 560 Q143 565 143 572 Q143 581 150 587 L248 681 Q256 689 266.5 698 Q277 707 289 707 Q300 707 309 699 Q318 691 318 678 Q318 664 305 655 L172 559 Z " />
<glyph glyph-name="scedilla" unicode="&#x15f;" horiz-adv-x="458" d="M198 -8 Q107 4 56 72 Q49 80 49 92 Q49 100 55.5 107.5 Q62 115 72 115 Q81 115 93 103 Q101 92 113.5 80.5 Q126 69 143 59 Q160 49 182.5 42.5 Q205 36 233 36 Q290 36 323.5 61 Q357 86 357 130 Q357 161 335.5 180 Q314 199 282 212.5 Q250 226 213 237 Q176 249 144 265.5 Q112 282 90.5 307 Q69 332 69 373 Q69 403 81.5 427 Q94 451 116.5 468 Q139 485 169.5 494 Q200 503 235 503 Q284 503 321 485 Q358 467 378 445 Q386 436 386 425 Q386 418 380.5 410 Q375 402 365 402 Q361 402 356 404.5 Q351 407 346 410 Q332 424 304.5 441 Q277 458 235 458 Q214 458 193.5 453.5 Q173 449 157.5 439.5 Q142 430 132 413.5 Q122 397 122 373 Q122 344 143.5 326 Q165 308 195 296 Q225 284 257 273 Q262 271 282.5 265 Q303 259 335 242.5 Q367 226 388.5 201.5 Q410 177 410 137 Q410 106 398 79.5 Q386 53 363.5 33.5 Q341 14 309.5 2.5 Q278 -9 239 -10 L239 -43 Q252 -45 265 -50.5 Q278 -56 288 -65.5 Q298 -75 304.5 -89 Q311 -103 311 -121 Q311 -146 302 -163.5 Q293 -181 279 -192.5 Q265 -204 248 -209 Q231 -214 215 -214 Q195 -214 188 -208.5 Q181 -203 181 -193 Q181 -183 187.5 -178 Q194 -173 205 -173 Q237 -173 251 -159.5 Q265 -146 265 -124 Q265 -103 252.5 -93 Q240 -83 218 -80 Q208 -79 203 -75 Q198 -71 198 -60 L198 -8 Z " />
<glyph glyph-name="scircumflex" unicode="&#x15d;" horiz-adv-x="458" d="M72 115 Q81 115 93 103 Q101 92 113.5 80.5 Q126 69 143 59 Q160 49 182.5 42.5 Q205 36 233 36 Q290 36 323.5 61 Q357 86 357 130 Q357 161 335.5 180 Q314 199 282 212.5 Q250 226 213 237 Q176 249 144 265.5 Q112 282 90.5 307 Q69 332 69 373 Q69 403 81.5 427 Q94 451 116.5 468 Q139 485 169.5 494 Q200 503 235 503 Q284 503 321 485 Q358 467 378 445 Q386 436 386 425 Q386 418 380.5 410 Q375 402 365 402 Q361 402 356 404.5 Q351 407 346 410 Q332 424 304.5 441 Q277 458 235 458 Q214 458 193.5 453.5 Q173 449 157.5 439.5 Q142 430 132 413.5 Q122 397 122 373 Q122 344 143.5 326 Q165 308 196 295.5 Q227 283 261 271 Q264 271 283.5 265 Q303 259 335 242.5 Q367 226 388.5 201.5 Q410 177 410 137 Q410 105 397 78 Q384 51 360.5 31.5 Q337 12 304 1 Q271 -10 230 -10 Q172 -10 128.5 12 Q85 34 56 72 Q49 80 49 92 Q49 100 55.5 107.5 Q62 115 72 115 Z M122 564 Q115 559 111.5 557 Q108 555 104 555 Q97 555 92 560 Q87 565 87 572 Q87 579 99 591 L208 697 Q218 707 230 707 Q244 707 253 697 L361 591 Q373 579 373 572 Q373 565 368 560 Q363 555 356 555 Q351 555 338 564 L230 653 L122 564 Z " />
<glyph glyph-name="uni0219" unicode="&#x219;" horiz-adv-x="458" d="M72 115 Q81 115 93 103 Q101 92 113.5 80.5 Q126 69 143 59 Q160 49 182.5 42.5 Q205 36 233 36 Q290 36 323.5 61 Q357 86 357 130 Q357 161 335.5 180 Q314 199 282 212.5 Q250 226 213 237 Q176 249 144 265.5 Q112 282 90.5 307 Q69 332 69 373 Q69 403 81.5 427 Q94 451 116.5 468 Q139 485 169.5 494 Q200 503 235 503 Q284 503 321 485 Q358 467 378 445 Q386 436 386 425 Q386 418 380.5 410 Q375 402 365 402 Q361 402 356 404.5 Q351 407 346 410 Q332 424 304.5 441 Q277 458 235 458 Q214 458 193.5 453.5 Q173 449 157.5 439.5 Q142 430 132 413.5 Q122 397 122 373 Q122 344 143.5 326 Q165 308 196 295.5 Q227 283 261 271 Q264 271 283.5 265 Q303 259 335 242.5 Q367 226 388.5 201.5 Q410 177 410 137 Q410 105 397 78 Q384 51 360.5 31.5 Q337 12 304 1 Q271 -10 230 -10 Q172 -10 128.5 12 Q85 34 56 72 Q49 80 49 92 Q49 100 55.5 107.5 Q62 115 72 115 Z M229 -192 Q246 -169 245 -138 Q196 -138 196 -95 Q196 -75 207.5 -63.5 Q219 -52 238 -52 Q258 -52 271 -65.5 Q284 -79 284 -111 Q284 -148 274.5 -174.5 Q265 -201 251 -218.5 Q237 -236 221.5 -244 Q206 -252 195 -252 Q180 -252 180 -237 Q180 -227 192 -222 Q212 -215 229 -192 Z " />
<glyph glyph-name="tbar" unicode="&#x167;" horiz-adv-x="348" d="M62 248 Q37 248 37 270 Q37 292 62 292 L110 292 L110 447 L57 447 Q46 447 39.5 453 Q33 459 33 470 Q33 481 39.5 487 Q46 493 57 493 L110 493 L110 592 Q110 604 117.5 610 Q125 616 136 616 Q162 616 162 592 L162 493 L269 493 Q280 493 286.5 487 Q293 481 293 470 Q293 460 286.5 453.5 Q280 447 269 447 L162 447 L162 292 L252 292 Q263 292 269.5 286.5 Q276 281 276 270 Q276 260 269.5 254 Q263 248 252 248 L162 248 L162 130 Q162 80 177 58.5 Q192 37 225 37 Q241 37 253 40.5 Q265 44 274 47.5 Q283 51 288.5 54.5 Q294 58 299 58 Q308 58 314 51 Q320 44 320 35 Q320 22 310 15 Q293 2 268 -4 Q243 -10 219 -10 Q160 -10 135 26.5 Q110 63 110 121 L110 248 L62 248 Z " />
<glyph glyph-name="tcaron" unicode="&#x165;" horiz-adv-x="348" d="M162 130 Q162 80 177 58.5 Q192 37 225 37 Q241 37 253 40.5 Q265 44 274 47.5 Q283 51 288.5 54.5 Q294 58 299 58 Q308 58 314 51 Q320 44 320 35 Q320 22 310 15 Q293 2 268 -4 Q243 -10 219 -10 Q160 -10 135 26.5 Q110 63 110 121 L110 447 L57 447 Q46 447 39.5 453 Q33 459 33 470 Q33 481 39.5 487 Q46 493 57 493 L110 493 L110 592 Q110 604 117.5 610 Q125 616 136 616 Q162 616 162 592 L162 493 L269 493 Q280 493 286.5 487 Q293 481 293 470 Q293 460 286.5 453.5 Q280 447 269 447 L162 447 L162 130 Z M249 619 Q266 642 265 673 Q216 673 216 716 Q216 736 227.5 747.5 Q239 759 258 759 Q278 759 291 745.5 Q304 732 304 700 Q304 663 294.5 636.5 Q285 610 271 592.5 Q257 575 241.5 567 Q226 559 215 559 Q200 559 200 574 Q200 584 212 589 Q232 596 249 619 Z " />
<glyph glyph-name="uni0163" unicode="&#x163;" horiz-adv-x="348" d="M162 130 Q162 80 177 58.5 Q192 37 225 37 Q241 37 253 40.5 Q265 44 274 47.5 Q283 51 288.5 54.5 Q294 58 299 58 Q308 58 314 51 Q320 44 320 35 Q320 22 310 15 Q293 2 268 -4 Q243 -10 219 -10 Q160 -10 135 26.5 Q110 63 110 121 L110 447 L57 447 Q46 447 39.5 453 Q33 459 33 470 Q33 481 39.5 487 Q46 493 57 493 L110 493 L110 592 Q110 604 117.5 610 Q125 616 136 616 Q162 616 162 592 L162 493 L269 493 Q280 493 286.5 487 Q293 481 293 470 Q293 460 286.5 453.5 Q280 447 269 447 L162 447 L162 130 Z M186 -192 Q203 -169 202 -138 Q153 -138 153 -95 Q153 -75 164.5 -63.5 Q176 -52 195 -52 Q215 -52 228 -65.5 Q241 -79 241 -111 Q241 -148 231.5 -174.5 Q222 -201 208 -218.5 Q194 -236 178.5 -244 Q163 -252 152 -252 Q137 -252 137 -237 Q137 -227 149 -222 Q169 -215 186 -192 Z " />
<glyph glyph-name="uni021B" unicode="&#x21b;" horiz-adv-x="348" d="M162 130 Q162 80 177 58.5 Q192 37 225 37 Q241 37 253 40.5 Q265 44 274 47.5 Q283 51 288.5 54.5 Q294 58 299 58 Q308 58 314 51 Q320 44 320 35 Q320 22 310 15 Q293 2 268 -4 Q243 -10 219 -10 Q160 -10 135 26.5 Q110 63 110 121 L110 447 L57 447 Q46 447 39.5 453 Q33 459 33 470 Q33 481 39.5 487 Q46 493 57 493 L110 493 L110 592 Q110 604 117.5 610 Q125 616 136 616 Q162 616 162 592 L162 493 L269 493 Q280 493 286.5 487 Q293 481 293 470 Q293 460 286.5 453.5 Q280 447 269 447 L162 447 L162 130 Z M186 -192 Q203 -169 202 -138 Q153 -138 153 -95 Q153 -75 164.5 -63.5 Q176 -52 195 -52 Q215 -52 228 -65.5 Q241 -79 241 -111 Q241 -148 231.5 -174.5 Q222 -201 208 -218.5 Q194 -236 178.5 -244 Q163 -252 152 -252 Q137 -252 137 -237 Q137 -227 149 -222 Q169 -215 186 -192 Z " />
<glyph glyph-name="uacute" unicode="&#xfa;" horiz-adv-x="534" d="M129 181 Q129 150 138 123.5 Q147 97 165 78 Q183 59 208.5 48 Q234 37 267 37 Q300 37 325.5 48 Q351 59 369 78 Q387 97 396 123.5 Q405 150 405 181 L405 469 Q405 480 413 486.5 Q421 493 432 493 Q443 493 450 486.5 Q457 480 457 469 L457 183 Q457 141 444.5 106 Q432 71 408 45 Q384 19 348.5 4.5 Q313 -10 267 -10 Q220 -10 184.5 4.5 Q149 19 125 45 Q101 71 89 106 Q77 141 77 183 L77 469 Q77 480 84 486.5 Q91 493 102 493 Q113 493 121 486.5 Q129 480 129 469 L129 181 Z M229 559 Q224 555 217 555 Q209 555 204.5 560 Q200 565 200 572 Q200 581 207 587 L305 681 Q313 689 323.5 698 Q334 707 346 707 Q357 707 366 699 Q375 691 375 678 Q375 664 362 655 L229 559 Z " />
<glyph glyph-name="ucircumflex" unicode="&#xfb;" horiz-adv-x="534" d="M129 181 Q129 150 138 123.5 Q147 97 165 78 Q183 59 208.5 48 Q234 37 267 37 Q300 37 325.5 48 Q351 59 369 78 Q387 97 396 123.5 Q405 150 405 181 L405 469 Q405 480 413 486.5 Q421 493 432 493 Q443 493 450 486.5 Q457 480 457 469 L457 183 Q457 141 444.5 106 Q432 71 408 45 Q384 19 348.5 4.5 Q313 -10 267 -10 Q220 -10 184.5 4.5 Q149 19 125 45 Q101 71 89 106 Q77 141 77 183 L77 469 Q77 480 84 486.5 Q91 493 102 493 Q113 493 121 486.5 Q129 480 129 469 L129 181 Z M159 564 Q152 559 148.5 557 Q145 555 141 555 Q134 555 129 560 Q124 565 124 572 Q124 579 136 591 L245 697 Q255 707 267 707 Q281 707 290 697 L398 591 Q410 579 410 572 Q410 565 405 560 Q400 555 393 555 Q388 555 375 564 L267 653 L159 564 Z " />
<glyph glyph-name="udieresis" unicode="&#xfc;" horiz-adv-x="534" d="M129 181 Q129 150 138 123.5 Q147 97 165 78 Q183 59 208.5 48 Q234 37 267 37 Q300 37 325.5 48 Q351 59 369 78 Q387 97 396 123.5 Q405 150 405 181 L405 469 Q405 480 413 486.5 Q421 493 432 493 Q443 493 450 486.5 Q457 480 457 469 L457 183 Q457 141 444.5 106 Q432 71 408 45 Q384 19 348.5 4.5 Q313 -10 267 -10 Q220 -10 184.5 4.5 Q149 19 125 45 Q101 71 89 106 Q77 141 77 183 L77 469 Q77 480 84 486.5 Q91 493 102 493 Q113 493 121 486.5 Q129 480 129 469 L129 181 Z M193 600 Q157 600 157 635 Q157 672 193 672 Q208 672 218.5 662.5 Q229 653 229 635 Q229 600 193 600 Z M339 600 Q303 600 303 636 Q303 672 339 672 Q354 672 364.5 662.5 Q375 653 375 636 Q375 600 339 600 Z " />
<glyph glyph-name="ugrave" unicode="&#xf9;" horiz-adv-x="534" d="M129 181 Q129 150 138 123.5 Q147 97 165 78 Q183 59 208.5 48 Q234 37 267 37 Q300 37 325.5 48 Q351 59 369 78 Q387 97 396 123.5 Q405 150 405 181 L405 469 Q405 480 413 486.5 Q421 493 432 493 Q443 493 450 486.5 Q457 480 457 469 L457 183 Q457 141 444.5 106 Q432 71 408 45 Q384 19 348.5 4.5 Q313 -10 267 -10 Q220 -10 184.5 4.5 Q149 19 125 45 Q101 71 89 106 Q77 141 77 183 L77 469 Q77 480 84 486.5 Q91 493 102 493 Q113 493 121 486.5 Q129 480 129 469 L129 181 Z M174 655 Q161 664 161 678 Q161 691 170 699 Q179 707 190 707 Q202 707 212.5 698 Q223 689 231 681 L329 587 Q336 581 336 572 Q336 565 331 560 Q326 555 319 555 Q312 555 307 559 L174 655 Z " />
<glyph glyph-name="ubreve" unicode="&#x16d;" horiz-adv-x="534" d="M129 181 Q129 150 138 123.5 Q147 97 165 78 Q183 59 208.5 48 Q234 37 267 37 Q300 37 325.5 48 Q351 59 369 78 Q387 97 396 123.5 Q405 150 405 181 L405 469 Q405 480 413 486.5 Q421 493 432 493 Q443 493 450 486.5 Q457 480 457 469 L457 183 Q457 141 444.5 106 Q432 71 408 45 Q384 19 348.5 4.5 Q313 -10 267 -10 Q220 -10 184.5 4.5 Q149 19 125 45 Q101 71 89 106 Q77 141 77 183 L77 469 Q77 480 84 486.5 Q91 493 102 493 Q113 493 121 486.5 Q129 480 129 469 L129 181 Z M315 629 Q336 648 346 682 Q349 697 365 697 Q375 697 380 691.5 Q385 686 385 678 Q385 658 376 639 Q367 620 350.5 604 Q334 588 310 578.5 Q286 569 257 569 Q228 569 204.5 578.5 Q181 588 164.5 604 Q148 620 139 639 Q130 658 130 678 Q130 686 134.5 691.5 Q139 697 150 697 Q164 697 169 682 Q179 648 200 629 Q221 610 257 610 Q294 610 315 629 Z " />
<glyph glyph-name="uhungarumlaut" unicode="&#x171;" horiz-adv-x="534" d="M129 181 Q129 150 138 123.5 Q147 97 165 78 Q183 59 208.5 48 Q234 37 267 37 Q300 37 325.5 48 Q351 59 369 78 Q387 97 396 123.5 Q405 150 405 181 L405 469 Q405 480 413 486.5 Q421 493 432 493 Q443 493 450 486.5 Q457 480 457 469 L457 183 Q457 141 444.5 106 Q432 71 408 45 Q384 19 348.5 4.5 Q313 -10 267 -10 Q220 -10 184.5 4.5 Q149 19 125 45 Q101 71 89 106 Q77 141 77 183 L77 469 Q77 480 84 486.5 Q91 493 102 493 Q113 493 121 486.5 Q129 480 129 469 L129 181 Z M174 559 Q169 555 162 555 Q154 555 149.5 560 Q145 565 145 572 Q145 581 152 587 L250 681 Q258 689 268.5 698 Q279 707 291 707 Q302 707 311 699 Q320 691 320 678 Q320 664 307 655 L174 559 Z M334 559 Q327 555 322 555 Q314 555 309 560 Q304 565 304 572 Q304 580 311 587 L410 681 Q418 689 428.5 698 Q439 707 450 707 Q461 707 470.5 699 Q480 691 480 678 Q480 665 467 655 L334 559 Z " />
<glyph glyph-name="umacron" unicode="&#x16b;" horiz-adv-x="534" d="M129 181 Q129 150 138 123.5 Q147 97 165 78 Q183 59 208.5 48 Q234 37 267 37 Q300 37 325.5 48 Q351 59 369 78 Q387 97 396 123.5 Q405 150 405 181 L405 469 Q405 480 413 486.5 Q421 493 432 493 Q443 493 450 486.5 Q457 480 457 469 L457 183 Q457 141 444.5 106 Q432 71 408 45 Q384 19 348.5 4.5 Q313 -10 267 -10 Q220 -10 184.5 4.5 Q149 19 125 45 Q101 71 89 106 Q77 141 77 183 L77 469 Q77 480 84 486.5 Q91 493 102 493 Q113 493 121 486.5 Q129 480 129 469 L129 181 Z M165 628 Q154 628 147 635 Q140 642 140 652 Q140 663 147 669.5 Q154 676 165 676 L367 676 Q378 676 385 669.5 Q392 663 392 652 Q392 642 385 635 Q378 628 367 628 L165 628 Z " />
<glyph glyph-name="uogonek" unicode="&#x173;" horiz-adv-x="534" d="M129 181 Q129 150 138 123.5 Q147 97 165 78 Q183 59 208.5 48 Q234 37 267 37 Q300 37 325.5 48 Q351 59 369 78 Q387 97 396 123.5 Q405 150 405 181 L405 469 Q405 480 413 486.5 Q421 493 432 493 Q443 493 450 486.5 Q457 480 457 469 L457 183 Q457 112 421 60.5 Q385 9 317 -5 Q279 -34 263 -62 Q247 -90 247 -116 Q247 -142 262 -156 Q277 -170 300 -171 Q314 -171 322 -175.5 Q330 -180 330 -190 Q330 -203 321.5 -207.5 Q313 -212 296 -212 Q257 -212 229.5 -191 Q202 -170 202 -126 Q202 -91 221.5 -62 Q241 -33 269 -10 Q220 -10 184.5 4.5 Q149 19 125 45 Q101 71 89 106 Q77 141 77 183 L77 469 Q77 480 84 486.5 Q91 493 102 493 Q113 493 121 486.5 Q129 480 129 469 L129 181 Z " />
<glyph glyph-name="uring" unicode="&#x16f;" horiz-adv-x="534" d="M129 181 Q129 150 138 123.5 Q147 97 165 78 Q183 59 208.5 48 Q234 37 267 37 Q300 37 325.5 48 Q351 59 369 78 Q387 97 396 123.5 Q405 150 405 181 L405 469 Q405 480 413 486.5 Q421 493 432 493 Q443 493 450 486.5 Q457 480 457 469 L457 183 Q457 141 444.5 106 Q432 71 408 45 Q384 19 348.5 4.5 Q313 -10 267 -10 Q220 -10 184.5 4.5 Q149 19 125 45 Q101 71 89 106 Q77 141 77 183 L77 469 Q77 480 84 486.5 Q91 493 102 493 Q113 493 121 486.5 Q129 480 129 469 L129 181 Z M203 579 Q190 591 181.5 608.5 Q173 626 173 649 Q173 672 181.5 689.5 Q190 707 203.5 719 Q217 731 233.5 737 Q250 743 266 743 Q306 743 332.5 716.5 Q359 690 359 649 Q359 609 332.5 582 Q306 555 266 555 Q249 555 232.5 561 Q216 567 203 579 Z M227 612 Q240 595 266 595 Q280 595 290 600 Q300 605 306 613 Q312 621 315 630.5 Q318 640 318 649 Q318 668 306.5 686 Q295 704 266 704 Q249 704 239 698.5 Q229 693 223.5 684.5 Q218 676 216 666.5 Q214 657 214 650 Q214 629 227 612 Z " />
<glyph glyph-name="utilde" unicode="&#x169;" horiz-adv-x="534" d="M129 181 Q129 150 138 123.5 Q147 97 165 78 Q183 59 208.5 48 Q234 37 267 37 Q300 37 325.5 48 Q351 59 369 78 Q387 97 396 123.5 Q405 150 405 181 L405 469 Q405 480 413 486.5 Q421 493 432 493 Q443 493 450 486.5 Q457 480 457 469 L457 183 Q457 141 444.5 106 Q432 71 408 45 Q384 19 348.5 4.5 Q313 -10 267 -10 Q220 -10 184.5 4.5 Q149 19 125 45 Q101 71 89 106 Q77 141 77 183 L77 469 Q77 480 84 486.5 Q91 493 102 493 Q113 493 121 486.5 Q129 480 129 469 L129 181 Z M364 643 Q375 651 386 666 Q393 678 404 678 Q412 678 418.5 672 Q425 666 425 656 Q425 646 418 636 Q404 615 384.5 602 Q365 589 339 589 Q316 589 300 596 Q284 603 269.5 611 Q255 619 240.5 626 Q226 633 207 633 Q184 633 170.5 624 Q157 615 147 603 Q143 599 139 596.5 Q135 594 129 594 Q120 594 113.5 599.5 Q107 605 107 613 Q107 622 115 632 Q132 652 152 665 Q172 678 206 678 Q228 678 244.5 671.5 Q261 665 275.5 656.5 Q290 648 304.5 641.5 Q319 635 336 635 Q353 635 364 643 Z " />
<glyph glyph-name="wacute" unicode="&#x1e83;" horiz-adv-x="715" d="M255 18 Q248 0 229 0 Q211 0 204 18 L36 456 Q33 465 33 471 Q33 481 41 487 Q49 493 60 493 Q77 493 83 476 L231 76 L334 405 Q336 414 342.5 418.5 Q349 423 357 423 Q365 423 371.5 418.5 Q378 414 381 405 L491 76 L634 476 Q640 493 656 493 Q667 493 675 487.5 Q683 482 683 471 Q683 465 680 456 L514 18 Q506 0 489 0 Q470 0 464 18 L356 344 L255 18 Z M300 559 Q295 555 288 555 Q280 555 275.5 560 Q271 565 271 572 Q271 581 278 587 L376 681 Q384 689 394.5 698 Q405 707 417 707 Q428 707 437 699 Q446 691 446 678 Q446 664 433 655 L300 559 Z " />
<glyph glyph-name="wcircumflex" unicode="&#x175;" horiz-adv-x="715" d="M255 18 Q248 0 229 0 Q211 0 204 18 L36 456 Q33 465 33 471 Q33 481 41 487 Q49 493 60 493 Q77 493 83 476 L231 76 L334 405 Q336 414 342.5 418.5 Q349 423 357 423 Q365 423 371.5 418.5 Q378 414 381 405 L491 76 L634 476 Q640 493 656 493 Q667 493 675 487.5 Q683 482 683 471 Q683 465 680 456 L514 18 Q506 0 489 0 Q470 0 464 18 L356 344 L255 18 Z M250 564 Q243 559 239.5 557 Q236 555 232 555 Q225 555 220 560 Q215 565 215 572 Q215 579 227 591 L336 697 Q346 707 358 707 Q372 707 381 697 L489 591 Q501 579 501 572 Q501 565 496 560 Q491 555 484 555 Q479 555 466 564 L358 653 L250 564 Z " />
<glyph glyph-name="wdieresis" unicode="&#x1e85;" horiz-adv-x="715" d="M255 18 Q248 0 229 0 Q211 0 204 18 L36 456 Q33 465 33 471 Q33 481 41 487 Q49 493 60 493 Q77 493 83 476 L231 76 L334 405 Q336 414 342.5 418.5 Q349 423 357 423 Q365 423 371.5 418.5 Q378 414 381 405 L491 76 L634 476 Q640 493 656 493 Q667 493 675 487.5 Q683 482 683 471 Q683 465 680 456 L514 18 Q506 0 489 0 Q470 0 464 18 L356 344 L255 18 Z M284 600 Q248 600 248 635 Q248 672 284 672 Q299 672 309.5 662.5 Q320 653 320 635 Q320 600 284 600 Z M430 600 Q394 600 394 636 Q394 672 430 672 Q445 672 455.5 662.5 Q466 653 466 636 Q466 600 430 600 Z " />
<glyph glyph-name="wgrave" unicode="&#x1e81;" horiz-adv-x="715" d="M255 18 Q248 0 229 0 Q211 0 204 18 L36 456 Q33 465 33 471 Q33 481 41 487 Q49 493 60 493 Q77 493 83 476 L231 76 L334 405 Q336 414 342.5 418.5 Q349 423 357 423 Q365 423 371.5 418.5 Q378 414 381 405 L491 76 L634 476 Q640 493 656 493 Q667 493 675 487.5 Q683 482 683 471 Q683 465 680 456 L514 18 Q506 0 489 0 Q470 0 464 18 L356 344 L255 18 Z M284 655 Q271 664 271 678 Q271 691 280 699 Q289 707 300 707 Q312 707 322.5 698 Q333 689 341 681 L439 587 Q446 581 446 572 Q446 565 441 560 Q436 555 429 555 Q422 555 417 559 L284 655 Z " />
<glyph glyph-name="yacute" unicode="&#xfd;" horiz-adv-x="485" d="M239 -50 Q224 -86 210 -112.5 Q196 -139 178 -156.5 Q160 -174 135.5 -182 Q111 -190 75 -190 Q42 -190 42 -166 Q42 -143 70 -143 Q101 -143 121.5 -135.5 Q142 -128 155.5 -114.5 Q169 -101 178 -82.5 Q187 -64 196 -43 L218 12 L36 456 Q33 462 33 470 Q33 480 40.5 486.5 Q48 493 61 493 Q77 493 83 477 L242 72 L404 478 Q410 493 425 493 Q435 493 442.5 487 Q450 481 450 470 Q450 467 449 462.5 Q448 458 447 456 L239 -50 Z M185 559 Q180 555 173 555 Q165 555 160.5 560 Q156 565 156 572 Q156 581 163 587 L261 681 Q269 689 279.5 698 Q290 707 302 707 Q313 707 322 699 Q331 691 331 678 Q331 664 318 655 L185 559 Z " />
<glyph glyph-name="ydieresis" unicode="&#xff;" horiz-adv-x="485" d="M239 -50 Q224 -86 210 -112.5 Q196 -139 178 -156.5 Q160 -174 135.5 -182 Q111 -190 75 -190 Q42 -190 42 -166 Q42 -143 70 -143 Q101 -143 121.5 -135.5 Q142 -128 155.5 -114.5 Q169 -101 178 -82.5 Q187 -64 196 -43 L218 12 L36 456 Q33 462 33 470 Q33 480 40.5 486.5 Q48 493 61 493 Q77 493 83 477 L242 72 L404 478 Q410 493 425 493 Q435 493 442.5 487 Q450 481 450 470 Q450 467 449 462.5 Q448 458 447 456 L239 -50 Z M169 600 Q133 600 133 635 Q133 672 169 672 Q184 672 194.5 662.5 Q205 653 205 635 Q205 600 169 600 Z M315 600 Q279 600 279 636 Q279 672 315 672 Q330 672 340.5 662.5 Q351 653 351 636 Q351 600 315 600 Z " />
<glyph glyph-name="ycircumflex" unicode="&#x177;" horiz-adv-x="485" d="M239 -50 Q224 -86 210 -112.5 Q196 -139 178 -156.5 Q160 -174 135.5 -182 Q111 -190 75 -190 Q42 -190 42 -166 Q42 -143 70 -143 Q101 -143 121.5 -135.5 Q142 -128 155.5 -114.5 Q169 -101 178 -82.5 Q187 -64 196 -43 L218 12 L36 456 Q33 462 33 470 Q33 480 40.5 486.5 Q48 493 61 493 Q77 493 83 477 L242 72 L404 478 Q410 493 425 493 Q435 493 442.5 487 Q450 481 450 470 Q450 467 449 462.5 Q448 458 447 456 L239 -50 Z M135 564 Q128 559 124.5 557 Q121 555 117 555 Q110 555 105 560 Q100 565 100 572 Q100 579 112 591 L221 697 Q231 707 243 707 Q257 707 266 697 L374 591 Q386 579 386 572 Q386 565 381 560 Q376 555 369 555 Q364 555 351 564 L243 653 L135 564 Z " />
<glyph glyph-name="ygrave" unicode="&#x1ef3;" horiz-adv-x="485" d="M239 -50 Q224 -86 210 -112.5 Q196 -139 178 -156.5 Q160 -174 135.5 -182 Q111 -190 75 -190 Q42 -190 42 -166 Q42 -143 70 -143 Q101 -143 121.5 -135.5 Q142 -128 155.5 -114.5 Q169 -101 178 -82.5 Q187 -64 196 -43 L218 12 L36 456 Q33 462 33 470 Q33 480 40.5 486.5 Q48 493 61 493 Q77 493 83 477 L242 72 L404 478 Q410 493 425 493 Q435 493 442.5 487 Q450 481 450 470 Q450 467 449 462.5 Q448 458 447 456 L239 -50 Z M169 655 Q156 664 156 678 Q156 691 165 699 Q174 707 185 707 Q197 707 207.5 698 Q218 689 226 681 L324 587 Q331 581 331 572 Q331 565 326 560 Q321 555 314 555 Q307 555 302 559 L169 655 Z " />
<glyph glyph-name="zcaron" unicode="&#x17e;" horiz-adv-x="443" d="M62 0 Q38 0 38 24 Q38 34 47 46 L339 447 L84 447 Q59 447 59 469 Q59 493 84 493 L381 493 Q406 493 406 474 Q406 462 393 445 L105 47 L376 47 Q400 47 400 24 Q400 0 376 0 L62 0 Z M92 671 Q80 683 80 691 Q80 697 85 702 Q90 707 97 707 Q103 707 115 698 L223 610 L331 698 Q343 707 349 707 Q356 707 361 702 Q366 697 366 691 Q366 683 354 671 L246 565 Q236 555 223 555 Q213 555 201 565 L92 671 Z " />
<glyph glyph-name="zacute" unicode="&#x17a;" horiz-adv-x="443" d="M62 0 Q38 0 38 24 Q38 34 47 46 L339 447 L84 447 Q59 447 59 469 Q59 493 84 493 L381 493 Q406 493 406 474 Q406 462 393 445 L105 47 L376 47 Q400 47 400 24 Q400 0 376 0 L62 0 Z M165 559 Q160 555 153 555 Q145 555 140.5 560 Q136 565 136 572 Q136 581 143 587 L241 681 Q249 689 259.5 698 Q270 707 282 707 Q293 707 302 699 Q311 691 311 678 Q311 664 298 655 L165 559 Z " />
<glyph glyph-name="zdotaccent" unicode="&#x17c;" horiz-adv-x="443" d="M62 0 Q38 0 38 24 Q38 34 47 46 L339 447 L84 447 Q59 447 59 469 Q59 493 84 493 L381 493 Q406 493 406 474 Q406 462 393 445 L105 47 L376 47 Q400 47 400 24 Q400 0 376 0 L62 0 Z M195 622 Q185 632 185 650 Q185 689 222 689 Q239 689 249.5 679 Q260 669 260 650 Q260 631 249.5 622 Q239 613 222 613 Q205 613 195 622 Z " />
<glyph glyph-name="acute" unicode="&#xb4;" horiz-adv-x="500" d="M193 559 Q188 555 181 555 Q173 555 168.5 560 Q164 565 164 572 Q164 581 171 587 L269 681 Q277 689 287.5 698 Q298 707 310 707 Q321 707 330 699 Q339 691 339 678 Q339 664 326 655 L193 559 Z " />
<glyph glyph-name="grave" unicode="&#x60;" horiz-adv-x="500" d="M177 655 Q164 664 164 678 Q164 691 173 699 Q182 707 193 707 Q205 707 215.5 698 Q226 689 234 681 L332 587 Q339 581 339 572 Q339 565 334 560 Q329 555 322 555 Q315 555 310 559 L177 655 Z " />
<glyph glyph-name="circumflex" unicode="&#x2c6;" horiz-adv-x="500" d="M143 564 Q136 559 132.5 557 Q129 555 125 555 Q118 555 113 560 Q108 565 108 572 Q108 579 120 591 L229 697 Q239 707 251 707 Q265 707 274 697 L382 591 Q394 579 394 572 Q394 565 389 560 Q384 555 377 555 Q372 555 359 564 L251 653 L143 564 Z " />
<glyph glyph-name="caron" unicode="&#x2c7;" horiz-adv-x="500" d="M120 671 Q108 683 108 691 Q108 697 113 702 Q118 707 125 707 Q131 707 143 698 L251 610 L359 698 Q371 707 377 707 Q384 707 389 702 Q394 697 394 691 Q394 683 382 671 L274 565 Q264 555 251 555 Q241 555 229 565 L120 671 Z " />
<glyph glyph-name="tilde" unicode="&#x2dc;" horiz-adv-x="500" d="M348 643 Q359 651 370 666 Q377 678 388 678 Q396 678 402.5 672 Q409 666 409 656 Q409 646 402 636 Q388 615 368.5 602 Q349 589 323 589 Q300 589 284 596 Q268 603 253.5 611 Q239 619 224.5 626 Q210 633 191 633 Q168 633 154.5 624 Q141 615 131 603 Q127 599 123 596.5 Q119 594 113 594 Q104 594 97.5 599.5 Q91 605 91 613 Q91 622 99 632 Q116 652 136 665 Q156 678 190 678 Q212 678 228.5 671.5 Q245 665 259.5 656.5 Q274 648 288.5 641.5 Q303 635 320 635 Q337 635 348 643 Z " />
<glyph glyph-name="dieresis" unicode="&#xa8;" horiz-adv-x="500" d="M177 600 Q141 600 141 635 Q141 672 177 672 Q192 672 202.5 662.5 Q213 653 213 635 Q213 600 177 600 Z M323 600 Q287 600 287 636 Q287 672 323 672 Q338 672 348.5 662.5 Q359 653 359 636 Q359 600 323 600 Z " />
<glyph glyph-name="ring" unicode="&#x2da;" horiz-adv-x="500" d="M187 579 Q174 591 165.5 608.5 Q157 626 157 649 Q157 672 165.5 689.5 Q174 707 187.5 719 Q201 731 217.5 737 Q234 743 250 743 Q290 743 316.5 716.5 Q343 690 343 649 Q343 609 316.5 582 Q290 555 250 555 Q233 555 216.5 561 Q200 567 187 579 Z M211 612 Q224 595 250 595 Q264 595 274 600 Q284 605 290 613 Q296 621 299 630.5 Q302 640 302 649 Q302 668 290.5 686 Q279 704 250 704 Q233 704 223 698.5 Q213 693 207.5 684.5 Q202 676 200 666.5 Q198 657 198 650 Q198 629 211 612 Z " />
<glyph glyph-name="cedilla" unicode="&#xb8;" horiz-adv-x="500" d="M241 -43 Q254 -45 267 -50.5 Q280 -56 290 -65.5 Q300 -75 306.5 -89 Q313 -103 313 -121 Q313 -146 304 -163.5 Q295 -181 280.5 -192.5 Q266 -204 249 -209 Q232 -214 216 -214 Q196 -214 189.5 -208.5 Q183 -203 183 -193 Q183 -183 189.5 -178 Q196 -173 207 -173 Q239 -173 253 -159.5 Q267 -146 267 -124 Q267 -103 254 -93 Q241 -83 219 -80 Q209 -79 204.5 -75 Q200 -71 200 -60 L200 0 L241 0 L241 -43 Z " />
<glyph glyph-name="hungarumlaut" unicode="&#x2dd;" horiz-adv-x="500" d="M136 559 Q131 555 124 555 Q116 555 111.5 560 Q107 565 107 572 Q107 581 114 587 L212 681 Q220 689 230.5 698 Q241 707 253 707 Q264 707 273 699 Q282 691 282 678 Q282 664 269 655 L136 559 Z M296 559 Q289 555 284 555 Q276 555 271 560 Q266 565 266 572 Q266 580 273 587 L372 681 Q380 689 390.5 698 Q401 707 412 707 Q423 707 432.5 699 Q442 691 442 678 Q442 665 429 655 L296 559 Z " />
<glyph glyph-name="breve" unicode="&#x2d8;" horiz-adv-x="500" d="M299 629 Q320 648 330 682 Q333 697 349 697 Q359 697 364 691.5 Q369 686 369 678 Q369 658 360 639 Q351 620 334.5 604 Q318 588 294 578.5 Q270 569 241 569 Q212 569 188.5 578.5 Q165 588 148.5 604 Q132 620 123 639 Q114 658 114 678 Q114 686 118.5 691.5 Q123 697 134 697 Q148 697 153 682 Q163 648 184 629 Q205 610 241 610 Q278 610 299 629 Z " />
<glyph glyph-name="macron" unicode="&#xaf;" horiz-adv-x="500" d="M149 628 Q138 628 131 635 Q124 642 124 652 Q124 663 131 669.5 Q138 676 149 676 L351 676 Q362 676 369 669.5 Q376 663 376 652 Q376 642 369 635 Q362 628 351 628 L149 628 Z " />
<glyph glyph-name="dotaccent" unicode="&#x2d9;" horiz-adv-x="500" d="M223 622 Q213 632 213 650 Q213 689 250 689 Q267 689 277.5 679 Q288 669 288 650 Q288 631 277.5 622 Q267 613 250 613 Q233 613 223 622 Z " />
<glyph glyph-name="periodcentered" unicode="&#xb7;" horiz-adv-x="500" d="M214 317 Q177 317 177 354 Q177 392 214 392 Q231 392 241.5 382 Q252 372 252 354 Q252 335 241.5 326 Q231 317 214 317 Z " />
<glyph glyph-name="ogonek" unicode="&#x2db;" horiz-adv-x="500" d="M313 24 Q253 -12 227 -48 Q201 -84 201 -116 Q201 -142 216 -156 Q231 -170 254 -171 Q283 -171 283 -190 Q283 -203 274.5 -207.5 Q266 -212 249 -212 Q210 -212 182.5 -191 Q155 -170 155 -126 Q155 -101 165.5 -79 Q176 -57 193 -38 Q210 -19 230.5 -3.5 Q251 12 272 24 L313 24 Z " />
<glyph glyph-name="commaaccent" unicode="&#xf6c3;" horiz-adv-x="214" d="M107 -192 Q124 -169 123 -138 Q74 -138 74 -95 Q74 -75 85.5 -63.5 Q97 -52 116 -52 Q136 -52 149 -65.5 Q162 -79 162 -111 Q162 -148 152.5 -174.5 Q143 -201 129 -218.5 Q115 -236 99.5 -244 Q84 -252 73 -252 Q58 -252 58 -237 Q58 -227 70 -222 Q90 -215 107 -192 Z " />
<glyph glyph-name="period" unicode="&#x2e;" horiz-adv-x="264" d="M132 0 Q112 0 100 12 Q88 24 88 45 Q88 66 100 77.5 Q112 89 132 89 Q151 89 163.5 77 Q176 65 176 45 Q176 24 164 12 Q152 0 132 0 Z " />
<glyph glyph-name="comma" unicode="&#x2c;" horiz-adv-x="264" d="M129 -46 Q136 -28 139 -1 Q113 -1 100.5 11.5 Q88 24 88 44 Q88 66 100 77.5 Q112 89 132 89 Q153 89 166 75 Q179 61 179 28 Q179 -12 167.5 -42 Q156 -72 140.5 -92 Q125 -112 107.5 -122 Q90 -132 78 -132 Q62 -132 62 -118 Q62 -107 75 -103 Q84 -100 94 -93.5 Q104 -87 113 -75.5 Q122 -64 129 -46 Z " />
<glyph glyph-name="colon" unicode="&#x3a;" horiz-adv-x="264" d="M132 0 Q112 0 100 12 Q88 24 88 45 Q88 66 100 77.5 Q112 89 132 89 Q151 89 163.5 77 Q176 65 176 45 Q176 24 164 12 Q152 0 132 0 Z M132 400 Q112 400 100 412 Q88 424 88 445 Q88 466 100 477.5 Q112 489 132 489 Q151 489 163.5 477 Q176 465 176 445 Q176 424 164 412 Q152 400 132 400 Z " />
<glyph glyph-name="semicolon" unicode="&#x3b;" horiz-adv-x="264" d="M129 -46 Q136 -28 139 -1 Q113 -1 100.5 11.5 Q88 24 88 44 Q88 66 100 77.5 Q112 89 132 89 Q153 89 166 75 Q179 61 179 28 Q179 -12 167.5 -42 Q156 -72 140.5 -92 Q125 -112 107.5 -122 Q90 -132 78 -132 Q62 -132 62 -118 Q62 -107 75 -103 Q84 -100 94 -93.5 Q104 -87 113 -75.5 Q122 -64 129 -46 Z M132 400 Q112 400 100 412 Q88 424 88 445 Q88 466 100 477.5 Q112 489 132 489 Q151 489 163.5 477 Q176 465 176 445 Q176 424 164 412 Q152 400 132 400 Z " />
<glyph glyph-name="ellipsis" unicode="&#x2026;" horiz-adv-x="624" d="M118 0 Q98 0 86 12 Q74 24 74 45 Q74 66 86 77.5 Q98 89 118 89 Q137 89 149.5 77 Q162 65 162 45 Q162 24 150 12 Q138 0 118 0 Z M311 0 Q291 0 279 12 Q267 24 267 45 Q267 66 279 77.5 Q291 89 311 89 Q330 89 342.5 77 Q355 65 355 45 Q355 24 343 12 Q331 0 311 0 Z M507 0 Q487 0 475 12 Q463 24 463 45 Q463 66 475 77.5 Q487 89 507 89 Q526 89 538.5 77 Q551 65 551 45 Q551 24 539 12 Q527 0 507 0 Z " />
<glyph glyph-name="question" unicode="&#x3f;" horiz-adv-x="512" d="M258 216 Q258 205 251.5 198.5 Q245 192 233 192 Q220 192 214 198.5 Q208 205 208 216 L208 364 Q208 378 215 384.5 Q222 391 234 394 Q303 408 339 444 Q375 480 375 536 Q375 583 343 616 Q311 649 252 649 Q220 649 192 636.5 Q164 624 142 599 Q129 584 120 569.5 Q111 555 97 555 Q86 555 79.5 561 Q73 567 73 578 Q73 590 78 600.5 Q83 611 90 620 Q113 653 153.5 676.5 Q194 700 252 700 Q294 700 327 688 Q360 676 382.5 654 Q405 632 417 602.5 Q429 573 429 537 Q429 496 416 465.5 Q403 435 379.5 412 Q356 389 325 373.5 Q294 358 258 349 L258 216 Z M232 0 Q212 0 200 12 Q188 24 188 45 Q188 66 200 78 Q212 90 232 90 Q252 90 264 78 Q276 66 276 45 Q276 24 264 12 Q252 0 232 0 Z " />
<glyph glyph-name="exclam" unicode="&#x21;" horiz-adv-x="264" d="M155 217 Q155 206 149.5 199 Q144 192 133 192 Q111 192 111 217 L100 655 Q99 675 106 687.5 Q113 700 132 700 Q150 700 157 688 Q164 676 164 655 L155 217 Z M132 0 Q112 0 100 12 Q88 24 88 45 Q88 66 100 78 Q112 90 132 90 Q152 90 164 78 Q176 66 176 45 Q176 24 164 12 Q152 0 132 0 Z " />
<glyph glyph-name="questiondown" unicode="&#xbf;" horiz-adv-x="512" d="M304 140 Q304 115 278 109 Q209 95 173 59.5 Q137 24 137 -33 Q137 -80 169 -113 Q201 -146 260 -146 Q292 -146 320 -133.5 Q348 -121 370 -95 Q383 -80 392 -65.5 Q401 -51 415 -51 Q426 -51 432.5 -57 Q439 -63 439 -74 Q439 -86 434 -96.5 Q429 -107 422 -116 Q399 -149 358.5 -173 Q318 -197 260 -197 Q218 -197 185 -184.5 Q152 -172 129.5 -150.5 Q107 -129 95 -99 Q83 -69 83 -33 Q83 7 96 38 Q109 69 132.5 91.5 Q156 114 187 129.5 Q218 145 254 155 L254 287 Q254 312 279 312 Q304 312 304 287 L304 140 Z M280 414 Q260 414 248 426 Q236 438 236 459 Q236 479 248 491 Q260 503 280 503 Q300 503 312 491 Q324 479 324 459 Q324 438 312 426 Q300 414 280 414 Z " />
<glyph glyph-name="exclamdown" unicode="&#xa1;" horiz-adv-x="264" d="M164 -152 Q165 -172 158 -184.5 Q151 -197 132 -197 Q114 -197 106.5 -184.5 Q99 -172 99 -152 L109 286 Q109 297 114.5 304.5 Q120 312 131 312 Q142 312 147.5 304.5 Q153 297 153 286 L164 -152 Z M132 414 Q112 414 100 426 Q88 438 88 459 Q88 479 100 491 Q112 503 132 503 Q152 503 164 491 Q176 479 176 459 Q176 438 164 426 Q152 414 132 414 Z " />
<glyph glyph-name="parenleft" unicode="&#x28;" horiz-adv-x="305" d="M239 -162 Q230 -154 221 -142 Q206 -122 181 -85.5 Q156 -49 131.5 4 Q107 57 89 126 Q71 195 71 280 Q71 365 89 434 Q107 503 131.5 556 Q156 609 181 645.5 Q206 682 221 702 Q230 714 239 722 Q248 730 258 730 Q269 730 275.5 722.5 Q282 715 282 707 Q282 699 277 691 Q272 683 262 670 Q244 647 220 611 Q196 575 175 526.5 Q154 478 139 416.5 Q124 355 124 280 Q124 205 139 143.5 Q154 82 175 33.5 Q196 -15 220 -51 Q244 -87 262 -110 Q272 -123 277 -131 Q282 -139 282 -147 Q282 -155 275.5 -162.5 Q269 -170 258 -170 Q248 -170 239 -162 Z " />
<glyph glyph-name="parenright" unicode="&#x29;" horiz-adv-x="305" d="M46 -170 Q36 -170 29.5 -162.5 Q23 -155 23 -147 Q23 -139 28 -131 Q33 -123 43 -110 Q61 -87 84.5 -51 Q108 -15 129.5 33.5 Q151 82 165.5 143.5 Q180 205 180 280 Q180 355 165.5 416.5 Q151 478 129.5 526.5 Q108 575 84.5 611 Q61 647 43 670 Q33 683 28 691 Q23 699 23 707 Q23 715 29.5 722.5 Q36 730 46 730 Q56 730 65 722 Q74 714 84 702 Q99 682 124 645.5 Q149 609 173 556 Q197 503 215 434 Q233 365 233 280 Q233 195 215 126 Q197 57 173 4 Q149 -49 124 -85.5 Q99 -122 84 -142 Q74 -154 65 -162 Q56 -170 46 -170 Z " />
<glyph glyph-name="braceleft" unicode="&#x7b;" horiz-adv-x="328" d="M187 34 Q187 -42 208.5 -80.5 Q230 -119 282 -119 Q310 -119 310 -144 Q310 -155 302 -162.5 Q294 -170 279 -170 Q237 -170 209.5 -155 Q182 -140 165 -113.5 Q148 -87 141 -49.5 Q134 -12 134 33 L134 189 Q134 221 120 237 Q106 253 80 253 Q63 253 57 260.5 Q51 268 51 280 Q51 291 57 299 Q63 307 80 307 Q106 307 120 323 Q134 339 134 371 L134 527 Q134 572 141 609.5 Q148 647 165 673.5 Q182 700 209.5 715 Q237 730 279 730 Q294 730 302 722.5 Q310 715 310 704 Q310 679 282 679 Q230 679 208.5 640.5 Q187 602 187 526 L187 371 Q187 335 176 314.5 Q165 294 138 280 Q165 266 176 245.5 Q187 225 187 189 L187 34 Z " />
<glyph glyph-name="braceright" unicode="&#x7d;" horiz-adv-x="328" d="M193 33 Q193 -12 186 -49.5 Q179 -87 162.5 -113.5 Q146 -140 118 -155 Q90 -170 48 -170 Q33 -170 25.5 -162.5 Q18 -155 18 -144 Q18 -133 25.5 -126 Q33 -119 45 -119 Q97 -119 119 -80.5 Q141 -42 141 34 L141 189 Q141 225 151.5 245.5 Q162 266 190 280 Q162 294 151.5 314.5 Q141 335 141 371 L141 526 Q141 602 119 640.5 Q97 679 45 679 Q33 679 25.5 686 Q18 693 18 704 Q18 715 25.5 722.5 Q33 730 48 730 Q90 730 118 715 Q146 700 162.5 673.5 Q179 647 186 609.5 Q193 572 193 527 L193 371 Q193 339 207.5 323 Q222 307 248 307 Q264 307 270 299 Q276 291 276 280 Q276 268 270 260.5 Q264 253 248 253 Q222 253 207.5 237 Q193 221 193 189 L193 33 Z " />
<glyph glyph-name="bracketleft" unicode="&#x5b;" horiz-adv-x="300" d="M110 -170 Q88 -170 88 -148 L88 708 Q88 730 111 730 L259 730 Q269 730 275.5 724 Q282 718 282 707 Q282 697 275.5 690.5 Q269 684 260 684 L141 684 L141 -124 L258 -124 Q268 -124 274.5 -130.5 Q281 -137 281 -147 Q281 -157 274.5 -163.5 Q268 -170 259 -170 L110 -170 Z " />
<glyph glyph-name="bracketright" unicode="&#x5d;" horiz-adv-x="300" d="M41 -170 Q32 -170 25.5 -163.5 Q19 -157 19 -147 Q19 -137 25.5 -130.5 Q32 -124 42 -124 L159 -124 L159 684 L40 684 Q31 684 24.5 690.5 Q18 697 18 707 Q18 718 24.5 724 Q31 730 41 730 L189 730 Q212 730 212 708 L212 -148 Q212 -170 190 -170 L41 -170 Z " />
<glyph glyph-name="slash" unicode="&#x2f;" horiz-adv-x="396" d="M70 21 Q64 8 57.5 4 Q51 0 43 0 Q33 0 25.5 7 Q18 14 18 25 Q18 28 19 32.5 Q20 37 22 41 L328 671 Q337 690 352 690 Q363 690 370.5 683.5 Q378 677 378 665 Q378 659 373 647 L70 21 Z " />
<glyph glyph-name="backslash" unicode="&#x5c;" horiz-adv-x="396" d="M374 41 Q376 37 377 32.5 Q378 28 378 25 Q378 14 370.5 7 Q363 0 353 0 Q345 0 338.5 4 Q332 8 326 21 L23 647 Q18 659 18 665 Q18 677 25.5 683.5 Q33 690 44 690 Q58 690 68 671 L374 41 Z " />
<glyph glyph-name="underscore" unicode="&#x5f;" horiz-adv-x="574" d="M91 -43 Q68 -43 68 -21 Q68 0 91 0 L483 0 Q506 0 506 -21 Q506 -43 483 -43 L91 -43 Z " />
<glyph glyph-name="hyphen" unicode="&#x2d;" horiz-adv-x="408" d="M95 231 Q84 231 76 238.5 Q68 246 68 257 Q68 268 76 275.5 Q84 283 95 283 L313 283 Q325 283 332.5 275.5 Q340 268 340 257 Q340 246 332.5 238.5 Q325 231 313 231 L95 231 Z " />
<glyph glyph-name="uni00AD" unicode="&#xad;" horiz-adv-x="408" d="" />
<glyph glyph-name="endash" unicode="&#x2013;" horiz-adv-x="491" d="M95 231 Q84 231 76 238.5 Q68 246 68 257 Q68 268 76 275.5 Q84 283 95 283 L396 283 Q407 283 415 275.5 Q423 268 423 257 Q423 246 415 238.5 Q407 231 396 231 L95 231 Z " />
<glyph glyph-name="emdash" unicode="&#x2014;" horiz-adv-x="921" d="M95 231 Q84 231 76 238.5 Q68 246 68 257 Q68 268 76 275.5 Q84 283 95 283 L826 283 Q837 283 845 275.5 Q853 268 853 257 Q853 246 845 238.5 Q837 231 826 231 L95 231 Z " />
<glyph glyph-name="brokenbar" unicode="&#xa6;" horiz-adv-x="239" d="M146 436 Q146 424 138.5 417 Q131 410 119 410 Q108 410 100.5 417 Q93 424 93 436 L93 782 Q93 794 100.5 801 Q108 808 119 808 Q131 808 138.5 801 Q146 794 146 782 L146 436 Z M146 -164 Q146 -176 138.5 -183 Q131 -190 119 -190 Q108 -190 100.5 -183 Q93 -176 93 -164 L93 182 Q93 194 100.5 201 Q108 208 119 208 Q131 208 138.5 201 Q146 194 146 182 L146 -164 Z " />
<glyph glyph-name="bar" unicode="&#x7c;" horiz-adv-x="239" d="M146 -164 Q146 -176 138.5 -183 Q131 -190 119 -190 Q108 -190 100.5 -183 Q93 -176 93 -164 L93 782 Q93 794 100.5 801 Q108 808 119 808 Q131 808 138.5 801 Q146 794 146 782 L146 -164 Z " />
<glyph glyph-name="guillemotleft" unicode="&#xab;" horiz-adv-x="563" d="M57 228 Q46 238 46 249 Q46 261 57 270 L262 435 Q270 442 282 442 Q290 442 296.5 435.5 Q303 429 303 419 Q303 407 294 400 L103 251 L293 99 Q304 88 304 78 Q304 70 297 63 Q290 56 282 56 Q273 56 263 63 L57 228 Z M268 228 Q257 238 257 249 Q257 261 268 270 L473 435 Q481 442 493 442 Q501 442 507.5 435.5 Q514 429 514 419 Q514 407 505 400 L314 251 L504 99 Q515 88 515 78 Q515 70 508 63 Q501 56 493 56 Q484 56 474 63 L268 228 Z " />
<glyph glyph-name="guillemotright" unicode="&#xbb;" horiz-adv-x="563" d="M87 63 Q76 56 68 56 Q60 56 53 63 Q46 70 46 78 Q46 88 57 99 L247 251 L56 400 Q46 408 46 419 Q46 429 53 435.5 Q60 442 68 442 Q80 442 87 435 L293 270 Q304 261 304 249 Q304 239 293 228 L87 63 Z M298 63 Q287 56 279 56 Q271 56 264 63 Q257 70 257 78 Q257 88 268 99 L458 251 L267 400 Q257 408 257 419 Q257 429 264 435.5 Q271 442 279 442 Q291 442 298 435 L504 270 Q515 261 515 249 Q515 239 504 228 L298 63 Z " />
<glyph glyph-name="guilsinglleft" unicode="&#x2039;" horiz-adv-x="352" d="M57 228 Q46 238 46 249 Q46 261 57 270 L262 435 Q270 442 282 442 Q290 442 296.5 435.5 Q303 429 303 419 Q303 407 294 400 L103 251 L293 99 Q304 88 304 78 Q304 70 297 63 Q290 56 282 56 Q273 56 263 63 L57 228 Z " />
<glyph glyph-name="guilsinglright" unicode="&#x203a;" horiz-adv-x="352" d="M87 63 Q76 56 68 56 Q60 56 53 63 Q46 70 46 78 Q46 88 57 99 L247 251 L56 400 Q46 408 46 419 Q46 429 53 435.5 Q60 442 68 442 Q80 442 87 435 L293 270 Q304 261 304 249 Q304 239 293 228 L87 63 Z " />
<glyph glyph-name="quotesinglbase" unicode="&#x201a;" horiz-adv-x="229" d="M115 50 Q115 76 138 76 Q161 76 161 50 L161 9 Q161 -37 145.5 -66.5 Q130 -96 107 -122 Q97 -133 86 -133 Q76 -133 69.5 -126.5 Q63 -120 63 -110 Q63 -102 70 -95 Q90 -75 102.5 -52 Q115 -29 115 9 L115 50 Z " />
<glyph glyph-name="quotedblbase" unicode="&#x201e;" horiz-adv-x="358" d="M115 50 Q115 76 138 76 Q161 76 161 50 L161 9 Q161 -37 145.5 -66.5 Q130 -96 107 -122 Q97 -133 86 -133 Q76 -133 69.5 -126.5 Q63 -120 63 -110 Q63 -102 70 -95 Q90 -75 102.5 -52 Q115 -29 115 9 L115 50 Z M243 50 Q243 76 266 76 Q289 76 289 50 L289 9 Q289 -37 273.5 -66.5 Q258 -96 235 -122 Q225 -133 214 -133 Q204 -133 197.5 -126.5 Q191 -120 191 -110 Q191 -102 198 -95 Q218 -75 230.5 -52 Q243 -29 243 9 L243 50 Z " />
<glyph glyph-name="quoteleft" unicode="&#x2018;" horiz-adv-x="229" d="M68 556 Q68 602 83.5 631.5 Q99 661 122 687 Q133 698 144 698 Q153 698 159.5 691.5 Q166 685 166 675 Q166 666 160 659 Q140 639 127 616.5 Q114 594 114 556 L114 515 Q114 489 92 489 Q68 489 68 515 L68 556 Z " />
<glyph glyph-name="quotedblleft" unicode="&#x201c;" horiz-adv-x="358" d="M68 556 Q68 602 83.5 631.5 Q99 661 122 687 Q133 698 144 698 Q153 698 159.5 691.5 Q166 685 166 675 Q166 666 160 659 Q140 639 127 616.5 Q114 594 114 556 L114 515 Q114 489 92 489 Q68 489 68 515 L68 556 Z M196 556 Q196 602 211.5 631.5 Q227 661 250 687 Q261 698 272 698 Q281 698 287.5 691.5 Q294 685 294 675 Q294 666 288 659 Q268 639 255 616.5 Q242 594 242 556 L242 515 Q242 489 220 489 Q196 489 196 515 L196 556 Z " />
<glyph glyph-name="quoteright" unicode="&#x2019;" horiz-adv-x="229" d="M115 672 Q115 698 138 698 Q161 698 161 672 L161 631 Q161 585 145.5 555.5 Q130 526 107 500 Q96 489 86 489 Q76 489 69.5 495.5 Q63 502 63 512 Q63 521 70 528 Q90 548 102.5 570.5 Q115 593 115 631 L115 672 Z " />
<glyph glyph-name="quotedblright" unicode="&#x201d;" horiz-adv-x="358" d="M115 672 Q115 698 138 698 Q161 698 161 672 L161 631 Q161 585 145.5 555.5 Q130 526 107 500 Q96 489 86 489 Q76 489 69.5 495.5 Q63 502 63 512 Q63 521 70 528 Q90 548 102.5 570.5 Q115 593 115 631 L115 672 Z M243 672 Q243 698 266 698 Q289 698 289 672 L289 631 Q289 585 273.5 555.5 Q258 526 235 500 Q224 489 214 489 Q204 489 197.5 495.5 Q191 502 191 512 Q191 521 198 528 Q218 548 230.5 570.5 Q243 593 243 631 L243 672 Z " />
<glyph glyph-name="quotesingle" unicode="&#x27;" horiz-adv-x="228" d="M131 494 Q129 476 114 476 Q98 476 96 494 L89 668 Q88 682 95 689.5 Q102 697 113 697 Q125 697 132.5 689.5 Q140 682 139 668 L131 494 Z " />
</font>
</svg>
